%TF.GenerationSoftware,KiCad,Pcbnew,(6.0.7-1)-1*%
%TF.CreationDate,2022-08-05T13:03:48-05:00*%
%TF.ProjectId,Adafruit NeoPixel 8 Stick,41646166-7275-4697-9420-4e656f506978,rev?*%
%TF.SameCoordinates,Original*%
%TF.FileFunction,Copper,L1,Top*%
%TF.FilePolarity,Positive*%
%FSLAX46Y46*%
G04 Gerber Fmt 4.6, Leading zero omitted, Abs format (unit mm)*
G04 Created by KiCad (PCBNEW (6.0.7-1)-1) date 2022-08-05 13:03:48*
%MOMM*%
%LPD*%
G01*
G04 APERTURE LIST*
%TA.AperFunction,SMDPad,CuDef*%
%ADD10R,1.500000X1.000000*%
%TD*%
%TA.AperFunction,ViaPad*%
%ADD11C,0.800000*%
%TD*%
%TA.AperFunction,Conductor*%
%ADD12C,0.250000*%
%TD*%
G04 APERTURE END LIST*
D10*
%TO.P,D5,1,VDD*%
%TO.N,+5V*%
X166026000Y-109550000D03*
%TO.P,D5,2,DOUT*%
%TO.N,Net-(D5-Pad2)*%
X166026000Y-106350000D03*
%TO.P,D5,3,VSS*%
%TO.N,GND*%
X161126000Y-106350000D03*
%TO.P,D5,4,DIN*%
%TO.N,Net-(D4-Pad2)*%
X161126000Y-109550000D03*
%TD*%
%TO.P,D8,1,VDD*%
%TO.N,+5V*%
X191172000Y-109550000D03*
%TO.P,D8,2,DOUT*%
%TO.N,Net-(D8-Pad2)*%
X191172000Y-106350000D03*
%TO.P,D8,3,VSS*%
%TO.N,GND*%
X186272000Y-106350000D03*
%TO.P,D8,4,DIN*%
%TO.N,Net-(D7-Pad2)*%
X186272000Y-109550000D03*
%TD*%
%TO.P,D6,1,VDD*%
%TO.N,+5V*%
X174408000Y-109550000D03*
%TO.P,D6,2,DOUT*%
%TO.N,Net-(D6-Pad2)*%
X174408000Y-106350000D03*
%TO.P,D6,3,VSS*%
%TO.N,GND*%
X169508000Y-106350000D03*
%TO.P,D6,4,DIN*%
%TO.N,Net-(D5-Pad2)*%
X169508000Y-109550000D03*
%TD*%
%TO.P,D1,1,VDD*%
%TO.N,+5V*%
X131228000Y-109550000D03*
%TO.P,D1,2,DOUT*%
%TO.N,Net-(D1-Pad2)*%
X131228000Y-106350000D03*
%TO.P,D1,3,VSS*%
%TO.N,GND*%
X126328000Y-106350000D03*
%TO.P,D1,4,DIN*%
%TO.N,/LED DATA*%
X126328000Y-109550000D03*
%TD*%
%TO.P,D7,1,VDD*%
%TO.N,+5V*%
X182790000Y-109550000D03*
%TO.P,D7,2,DOUT*%
%TO.N,Net-(D7-Pad2)*%
X182790000Y-106350000D03*
%TO.P,D7,3,VSS*%
%TO.N,GND*%
X177890000Y-106350000D03*
%TO.P,D7,4,DIN*%
%TO.N,Net-(D6-Pad2)*%
X177890000Y-109550000D03*
%TD*%
%TO.P,D2,1,VDD*%
%TO.N,+5V*%
X139610000Y-109550000D03*
%TO.P,D2,2,DOUT*%
%TO.N,Net-(D2-Pad2)*%
X139610000Y-106350000D03*
%TO.P,D2,3,VSS*%
%TO.N,GND*%
X134710000Y-106350000D03*
%TO.P,D2,4,DIN*%
%TO.N,Net-(D1-Pad2)*%
X134710000Y-109550000D03*
%TD*%
%TO.P,D4,1,VDD*%
%TO.N,+5V*%
X156374000Y-109550000D03*
%TO.P,D4,2,DOUT*%
%TO.N,Net-(D4-Pad2)*%
X156374000Y-106350000D03*
%TO.P,D4,3,VSS*%
%TO.N,GND*%
X151474000Y-106350000D03*
%TO.P,D4,4,DIN*%
%TO.N,Net-(D3-Pad2)*%
X151474000Y-109550000D03*
%TD*%
%TO.P,D3,1,VDD*%
%TO.N,+5V*%
X147992000Y-109550000D03*
%TO.P,D3,2,DOUT*%
%TO.N,Net-(D3-Pad2)*%
X147992000Y-106350000D03*
%TO.P,D3,3,VSS*%
%TO.N,GND*%
X143092000Y-106350000D03*
%TO.P,D3,4,DIN*%
%TO.N,Net-(D2-Pad2)*%
X143092000Y-109550000D03*
%TD*%
D11*
%TO.N,+5V*%
X126238000Y-112522000D03*
X189738000Y-112522000D03*
%TO.N,GND*%
X126238000Y-106426000D03*
%TO.N,/LED DATA*%
X126238000Y-109474000D03*
%TO.N,Net-(D8-Pad2)*%
X189738000Y-109474000D03*
%TD*%
D12*
%TO.N,+5V*%
X166026000Y-109550000D02*
X166026000Y-111162000D01*
X139610000Y-111162000D02*
X139700000Y-111252000D01*
X127508000Y-111252000D02*
X131318000Y-111252000D01*
X189738000Y-112522000D02*
X191172000Y-111088000D01*
X182790000Y-109550000D02*
X182790000Y-111162000D01*
X148082000Y-111252000D02*
X156464000Y-111252000D01*
X166116000Y-111252000D02*
X174498000Y-111252000D01*
X156374000Y-109550000D02*
X156374000Y-111162000D01*
X139700000Y-111252000D02*
X148082000Y-111252000D01*
X126238000Y-112522000D02*
X127508000Y-111252000D01*
X147992000Y-109550000D02*
X147992000Y-111162000D01*
X131318000Y-111252000D02*
X139700000Y-111252000D01*
X191172000Y-111088000D02*
X191172000Y-109550000D01*
X156374000Y-111162000D02*
X156464000Y-111252000D01*
X139610000Y-109550000D02*
X139610000Y-111162000D01*
X182880000Y-111252000D02*
X188468000Y-111252000D01*
X188468000Y-111252000D02*
X189738000Y-112522000D01*
X147992000Y-111162000D02*
X148082000Y-111252000D01*
X174498000Y-111252000D02*
X182880000Y-111252000D01*
X156464000Y-111252000D02*
X166116000Y-111252000D01*
X166026000Y-111162000D02*
X166116000Y-111252000D01*
X131228000Y-109550000D02*
X131228000Y-111162000D01*
X174408000Y-111162000D02*
X174498000Y-111252000D01*
X131228000Y-111162000D02*
X131318000Y-111252000D01*
X174408000Y-109550000D02*
X174408000Y-111162000D01*
X182790000Y-111162000D02*
X182880000Y-111252000D01*
%TO.N,GND*%
X178726000Y-106350000D02*
X177622000Y-106350000D01*
%TO.N,Net-(D1-Pad2)*%
X131228000Y-106350000D02*
X131510000Y-106350000D01*
X131510000Y-106350000D02*
X134710000Y-109550000D01*
%TO.N,Net-(D2-Pad2)*%
X139610000Y-106350000D02*
X139892000Y-106350000D01*
X139892000Y-106350000D02*
X143092000Y-109550000D01*
%TO.N,Net-(D3-Pad2)*%
X148274000Y-106350000D02*
X151474000Y-109550000D01*
X147992000Y-106350000D02*
X148274000Y-106350000D01*
%TO.N,Net-(D4-Pad2)*%
X156374000Y-106350000D02*
X157926000Y-106350000D01*
X157926000Y-106350000D02*
X161126000Y-109550000D01*
%TO.N,Net-(D5-Pad2)*%
X166308000Y-106350000D02*
X169508000Y-109550000D01*
X166026000Y-106350000D02*
X166308000Y-106350000D01*
%TO.N,Net-(D6-Pad2)*%
X174408000Y-106350000D02*
X174690000Y-106350000D01*
X174690000Y-106350000D02*
X177890000Y-109550000D01*
%TO.N,Net-(D7-Pad2)*%
X182790000Y-106350000D02*
X183072000Y-106350000D01*
X183072000Y-106350000D02*
X186272000Y-109550000D01*
%TO.N,Net-(D8-Pad2)*%
X189738000Y-109474000D02*
X189738000Y-107784000D01*
X189738000Y-107784000D02*
X191172000Y-106350000D01*
%TD*%
%TA.AperFunction,Conductor*%
%TO.N,GND*%
G36*
X129995638Y-97579093D02*
G01*
X130021358Y-97623642D01*
X130022500Y-97636700D01*
X130022500Y-103626928D01*
X130020399Y-103632000D01*
X130022500Y-103637072D01*
X130028483Y-103651517D01*
X130048000Y-103659601D01*
X130053072Y-103657500D01*
X187282928Y-103657500D01*
X187288000Y-103659601D01*
X187293072Y-103657500D01*
X187307517Y-103651517D01*
X187315601Y-103632000D01*
X187313500Y-103626928D01*
X187313500Y-97636700D01*
X187331093Y-97588362D01*
X187375642Y-97562642D01*
X187388700Y-97561500D01*
X194807300Y-97561500D01*
X194855638Y-97579093D01*
X194881358Y-97623642D01*
X194882500Y-97636700D01*
X194882500Y-118435300D01*
X194864907Y-118483638D01*
X194820358Y-118509358D01*
X194807300Y-118510500D01*
X187388700Y-118510500D01*
X187340362Y-118492907D01*
X187314642Y-118448358D01*
X187313500Y-118435300D01*
X187313500Y-112527072D01*
X187315601Y-112522000D01*
X187307517Y-112502483D01*
X187293072Y-112496500D01*
X187288000Y-112494399D01*
X187282928Y-112496500D01*
X130053072Y-112496500D01*
X130048000Y-112494399D01*
X130042928Y-112496500D01*
X130028483Y-112502483D01*
X130020399Y-112522000D01*
X130022500Y-112527072D01*
X130022500Y-118435300D01*
X130004907Y-118483638D01*
X129960358Y-118509358D01*
X129947300Y-118510500D01*
X122528700Y-118510500D01*
X122480362Y-118492907D01*
X122454642Y-118448358D01*
X122453500Y-118435300D01*
X122453500Y-112522000D01*
X125629091Y-112522000D01*
X125649839Y-112679597D01*
X125710669Y-112826454D01*
X125807436Y-112952564D01*
X125933545Y-113049331D01*
X126006974Y-113079746D01*
X126075854Y-113108277D01*
X126075856Y-113108277D01*
X126080403Y-113110161D01*
X126085281Y-113110803D01*
X126085284Y-113110804D01*
X126233116Y-113130266D01*
X126238000Y-113130909D01*
X126242884Y-113130266D01*
X126390716Y-113110804D01*
X126390719Y-113110803D01*
X126395597Y-113110161D01*
X126400144Y-113108277D01*
X126400146Y-113108277D01*
X126469026Y-113079746D01*
X126542455Y-113049331D01*
X126668564Y-112952564D01*
X126765331Y-112826454D01*
X126826161Y-112679597D01*
X126846909Y-112522000D01*
X126834990Y-112431468D01*
X126846124Y-112381248D01*
X126856373Y-112368479D01*
X127622126Y-111602726D01*
X127668746Y-111580986D01*
X127675300Y-111580700D01*
X131264826Y-111580700D01*
X131277188Y-111582328D01*
X131282552Y-111582797D01*
X131288910Y-111584501D01*
X131329086Y-111580986D01*
X131335640Y-111580700D01*
X139646826Y-111580700D01*
X139659188Y-111582328D01*
X139664552Y-111582797D01*
X139670910Y-111584501D01*
X139711086Y-111580986D01*
X139717640Y-111580700D01*
X148028826Y-111580700D01*
X148041188Y-111582328D01*
X148046552Y-111582797D01*
X148052910Y-111584501D01*
X148093086Y-111580986D01*
X148099640Y-111580700D01*
X156410826Y-111580700D01*
X156423188Y-111582328D01*
X156428552Y-111582797D01*
X156434910Y-111584501D01*
X156475086Y-111580986D01*
X156481640Y-111580700D01*
X166062826Y-111580700D01*
X166075188Y-111582328D01*
X166080552Y-111582797D01*
X166086910Y-111584501D01*
X166127086Y-111580986D01*
X166133640Y-111580700D01*
X174444826Y-111580700D01*
X174457188Y-111582328D01*
X174462552Y-111582797D01*
X174468910Y-111584501D01*
X174509086Y-111580986D01*
X174515640Y-111580700D01*
X182826826Y-111580700D01*
X182839188Y-111582328D01*
X182844552Y-111582797D01*
X182850910Y-111584501D01*
X182891086Y-111580986D01*
X182897640Y-111580700D01*
X188300700Y-111580700D01*
X188349038Y-111598293D01*
X188353874Y-111602726D01*
X189119627Y-112368479D01*
X189141367Y-112415099D01*
X189141010Y-112431465D01*
X189129091Y-112522000D01*
X189149839Y-112679597D01*
X189210669Y-112826454D01*
X189307436Y-112952564D01*
X189433545Y-113049331D01*
X189506974Y-113079746D01*
X189575854Y-113108277D01*
X189575856Y-113108277D01*
X189580403Y-113110161D01*
X189585281Y-113110803D01*
X189585284Y-113110804D01*
X189733116Y-113130266D01*
X189738000Y-113130909D01*
X189742884Y-113130266D01*
X189890716Y-113110804D01*
X189890719Y-113110803D01*
X189895597Y-113110161D01*
X189900144Y-113108277D01*
X189900146Y-113108277D01*
X189969026Y-113079746D01*
X190042455Y-113049331D01*
X190168564Y-112952564D01*
X190265331Y-112826454D01*
X190326161Y-112679597D01*
X190346909Y-112522000D01*
X190334990Y-112431468D01*
X190346124Y-112381248D01*
X190356373Y-112368479D01*
X191391947Y-111332905D01*
X191396784Y-111328472D01*
X191422642Y-111306774D01*
X191427683Y-111302544D01*
X191447846Y-111267621D01*
X191451368Y-111262093D01*
X191470726Y-111234446D01*
X191474499Y-111229058D01*
X191476202Y-111222703D01*
X191478464Y-111217852D01*
X191480517Y-111212896D01*
X191482352Y-111207855D01*
X191485642Y-111202156D01*
X191492644Y-111162446D01*
X191494064Y-111156041D01*
X191502798Y-111123444D01*
X191504501Y-111117090D01*
X191500986Y-111076914D01*
X191500700Y-111070360D01*
X191500700Y-110328900D01*
X191518293Y-110280562D01*
X191562842Y-110254842D01*
X191575900Y-110253700D01*
X191942064Y-110253700D01*
X192001480Y-110241881D01*
X192068860Y-110196860D01*
X192113881Y-110129480D01*
X192125700Y-110070064D01*
X192125700Y-109029936D01*
X192113881Y-108970520D01*
X192068860Y-108903140D01*
X192001480Y-108858119D01*
X191942064Y-108846300D01*
X190401936Y-108846300D01*
X190342520Y-108858119D01*
X190275140Y-108903140D01*
X190230119Y-108970520D01*
X190229471Y-108973777D01*
X190196296Y-109009984D01*
X190145297Y-109016700D01*
X190115792Y-109002943D01*
X190096121Y-108987849D01*
X190068483Y-108944466D01*
X190066700Y-108928189D01*
X190066700Y-107951300D01*
X190084293Y-107902962D01*
X190088726Y-107898126D01*
X190911126Y-107075726D01*
X190957746Y-107053986D01*
X190964300Y-107053700D01*
X191942064Y-107053700D01*
X192001480Y-107041881D01*
X192068860Y-106996860D01*
X192113881Y-106929480D01*
X192123545Y-106880899D01*
X192124979Y-106873689D01*
X192124979Y-106873688D01*
X192125700Y-106870064D01*
X192125700Y-105829936D01*
X192123549Y-105819120D01*
X192115326Y-105777786D01*
X192113881Y-105770520D01*
X192068860Y-105703140D01*
X192001480Y-105658119D01*
X191942064Y-105646300D01*
X190401936Y-105646300D01*
X190342520Y-105658119D01*
X190275140Y-105703140D01*
X190230119Y-105770520D01*
X190228674Y-105777786D01*
X190220452Y-105819120D01*
X190218300Y-105829936D01*
X190218300Y-106807700D01*
X190200707Y-106856038D01*
X190196274Y-106860874D01*
X189518053Y-107539095D01*
X189513216Y-107543528D01*
X189487358Y-107565226D01*
X189482317Y-107569456D01*
X189462156Y-107604376D01*
X189458632Y-107609907D01*
X189435501Y-107642942D01*
X189433798Y-107649297D01*
X189431536Y-107654148D01*
X189429483Y-107659104D01*
X189427648Y-107664145D01*
X189424358Y-107669844D01*
X189423216Y-107676322D01*
X189417356Y-107709554D01*
X189415936Y-107715959D01*
X189405499Y-107754910D01*
X189406072Y-107761462D01*
X189406072Y-107761464D01*
X189409014Y-107795086D01*
X189409300Y-107801640D01*
X189409300Y-108928189D01*
X189391707Y-108976527D01*
X189379881Y-108987847D01*
X189307436Y-109043436D01*
X189210669Y-109169546D01*
X189149839Y-109316403D01*
X189129091Y-109474000D01*
X189149839Y-109631597D01*
X189210669Y-109778454D01*
X189307436Y-109904564D01*
X189433545Y-110001331D01*
X189475939Y-110018891D01*
X189575854Y-110060277D01*
X189575856Y-110060277D01*
X189580403Y-110062161D01*
X189585281Y-110062803D01*
X189585284Y-110062804D01*
X189733116Y-110082266D01*
X189738000Y-110082909D01*
X189742884Y-110082266D01*
X189890716Y-110062804D01*
X189890719Y-110062803D01*
X189895597Y-110062161D01*
X189900144Y-110060277D01*
X189900146Y-110060277D01*
X190000061Y-110018891D01*
X190042455Y-110001331D01*
X190097320Y-109959231D01*
X190146380Y-109943763D01*
X190193904Y-109963448D01*
X190217657Y-110009076D01*
X190218300Y-110018891D01*
X190218300Y-110070064D01*
X190230119Y-110129480D01*
X190275140Y-110196860D01*
X190342520Y-110241881D01*
X190401936Y-110253700D01*
X190768100Y-110253700D01*
X190816438Y-110271293D01*
X190842158Y-110315842D01*
X190843300Y-110328900D01*
X190843300Y-110920700D01*
X190825707Y-110969038D01*
X190821274Y-110973874D01*
X189891521Y-111903627D01*
X189844901Y-111925367D01*
X189828535Y-111925010D01*
X189738000Y-111913091D01*
X189647468Y-111925010D01*
X189597248Y-111913876D01*
X189584479Y-111903627D01*
X188712905Y-111032053D01*
X188708472Y-111027216D01*
X188686774Y-111001358D01*
X188682544Y-110996317D01*
X188647621Y-110976154D01*
X188642093Y-110972632D01*
X188614446Y-110953274D01*
X188609058Y-110949501D01*
X188602703Y-110947798D01*
X188597852Y-110945536D01*
X188592896Y-110943483D01*
X188587855Y-110941648D01*
X188582156Y-110938358D01*
X188542447Y-110931356D01*
X188536041Y-110929936D01*
X188532488Y-110928984D01*
X188497090Y-110919499D01*
X188490538Y-110920072D01*
X188490536Y-110920072D01*
X188456914Y-110923014D01*
X188450360Y-110923300D01*
X183193900Y-110923300D01*
X183145562Y-110905707D01*
X183119842Y-110861158D01*
X183118700Y-110848100D01*
X183118700Y-110328900D01*
X183136293Y-110280562D01*
X183180842Y-110254842D01*
X183193900Y-110253700D01*
X183560064Y-110253700D01*
X183619480Y-110241881D01*
X183686860Y-110196860D01*
X183731881Y-110129480D01*
X183743700Y-110070064D01*
X183743700Y-109029936D01*
X183731881Y-108970520D01*
X183686860Y-108903140D01*
X183619480Y-108858119D01*
X183560064Y-108846300D01*
X182019936Y-108846300D01*
X181960520Y-108858119D01*
X181893140Y-108903140D01*
X181848119Y-108970520D01*
X181836300Y-109029936D01*
X181836300Y-110070064D01*
X181848119Y-110129480D01*
X181893140Y-110196860D01*
X181960520Y-110241881D01*
X182019936Y-110253700D01*
X182386100Y-110253700D01*
X182434438Y-110271293D01*
X182460158Y-110315842D01*
X182461300Y-110328900D01*
X182461300Y-110848100D01*
X182443707Y-110896438D01*
X182399158Y-110922158D01*
X182386100Y-110923300D01*
X174811900Y-110923300D01*
X174763562Y-110905707D01*
X174737842Y-110861158D01*
X174736700Y-110848100D01*
X174736700Y-110328900D01*
X174754293Y-110280562D01*
X174798842Y-110254842D01*
X174811900Y-110253700D01*
X175178064Y-110253700D01*
X175237480Y-110241881D01*
X175304860Y-110196860D01*
X175349881Y-110129480D01*
X175361700Y-110070064D01*
X175361700Y-109029936D01*
X175349881Y-108970520D01*
X175304860Y-108903140D01*
X175237480Y-108858119D01*
X175178064Y-108846300D01*
X173637936Y-108846300D01*
X173578520Y-108858119D01*
X173511140Y-108903140D01*
X173466119Y-108970520D01*
X173454300Y-109029936D01*
X173454300Y-110070064D01*
X173466119Y-110129480D01*
X173511140Y-110196860D01*
X173578520Y-110241881D01*
X173637936Y-110253700D01*
X174004100Y-110253700D01*
X174052438Y-110271293D01*
X174078158Y-110315842D01*
X174079300Y-110328900D01*
X174079300Y-110848100D01*
X174061707Y-110896438D01*
X174017158Y-110922158D01*
X174004100Y-110923300D01*
X166429900Y-110923300D01*
X166381562Y-110905707D01*
X166355842Y-110861158D01*
X166354700Y-110848100D01*
X166354700Y-110328900D01*
X166372293Y-110280562D01*
X166416842Y-110254842D01*
X166429900Y-110253700D01*
X166796064Y-110253700D01*
X166855480Y-110241881D01*
X166922860Y-110196860D01*
X166967881Y-110129480D01*
X166979700Y-110070064D01*
X166979700Y-109029936D01*
X166967881Y-108970520D01*
X166922860Y-108903140D01*
X166855480Y-108858119D01*
X166796064Y-108846300D01*
X165255936Y-108846300D01*
X165196520Y-108858119D01*
X165129140Y-108903140D01*
X165084119Y-108970520D01*
X165072300Y-109029936D01*
X165072300Y-110070064D01*
X165084119Y-110129480D01*
X165129140Y-110196860D01*
X165196520Y-110241881D01*
X165255936Y-110253700D01*
X165622100Y-110253700D01*
X165670438Y-110271293D01*
X165696158Y-110315842D01*
X165697300Y-110328900D01*
X165697300Y-110848100D01*
X165679707Y-110896438D01*
X165635158Y-110922158D01*
X165622100Y-110923300D01*
X156777900Y-110923300D01*
X156729562Y-110905707D01*
X156703842Y-110861158D01*
X156702700Y-110848100D01*
X156702700Y-110328900D01*
X156720293Y-110280562D01*
X156764842Y-110254842D01*
X156777900Y-110253700D01*
X157144064Y-110253700D01*
X157203480Y-110241881D01*
X157270860Y-110196860D01*
X157315881Y-110129480D01*
X157327700Y-110070064D01*
X157327700Y-109029936D01*
X157315881Y-108970520D01*
X157270860Y-108903140D01*
X157203480Y-108858119D01*
X157144064Y-108846300D01*
X155603936Y-108846300D01*
X155544520Y-108858119D01*
X155477140Y-108903140D01*
X155432119Y-108970520D01*
X155420300Y-109029936D01*
X155420300Y-110070064D01*
X155432119Y-110129480D01*
X155477140Y-110196860D01*
X155544520Y-110241881D01*
X155603936Y-110253700D01*
X155970100Y-110253700D01*
X156018438Y-110271293D01*
X156044158Y-110315842D01*
X156045300Y-110328900D01*
X156045300Y-110848100D01*
X156027707Y-110896438D01*
X155983158Y-110922158D01*
X155970100Y-110923300D01*
X148395900Y-110923300D01*
X148347562Y-110905707D01*
X148321842Y-110861158D01*
X148320700Y-110848100D01*
X148320700Y-110328900D01*
X148338293Y-110280562D01*
X148382842Y-110254842D01*
X148395900Y-110253700D01*
X148762064Y-110253700D01*
X148821480Y-110241881D01*
X148888860Y-110196860D01*
X148933881Y-110129480D01*
X148945700Y-110070064D01*
X148945700Y-109029936D01*
X148933881Y-108970520D01*
X148888860Y-108903140D01*
X148821480Y-108858119D01*
X148762064Y-108846300D01*
X147221936Y-108846300D01*
X147162520Y-108858119D01*
X147095140Y-108903140D01*
X147050119Y-108970520D01*
X147038300Y-109029936D01*
X147038300Y-110070064D01*
X147050119Y-110129480D01*
X147095140Y-110196860D01*
X147162520Y-110241881D01*
X147221936Y-110253700D01*
X147588100Y-110253700D01*
X147636438Y-110271293D01*
X147662158Y-110315842D01*
X147663300Y-110328900D01*
X147663300Y-110848100D01*
X147645707Y-110896438D01*
X147601158Y-110922158D01*
X147588100Y-110923300D01*
X140013900Y-110923300D01*
X139965562Y-110905707D01*
X139939842Y-110861158D01*
X139938700Y-110848100D01*
X139938700Y-110328900D01*
X139956293Y-110280562D01*
X140000842Y-110254842D01*
X140013900Y-110253700D01*
X140380064Y-110253700D01*
X140439480Y-110241881D01*
X140506860Y-110196860D01*
X140551881Y-110129480D01*
X140563700Y-110070064D01*
X140563700Y-109029936D01*
X140551881Y-108970520D01*
X140506860Y-108903140D01*
X140439480Y-108858119D01*
X140380064Y-108846300D01*
X138839936Y-108846300D01*
X138780520Y-108858119D01*
X138713140Y-108903140D01*
X138668119Y-108970520D01*
X138656300Y-109029936D01*
X138656300Y-110070064D01*
X138668119Y-110129480D01*
X138713140Y-110196860D01*
X138780520Y-110241881D01*
X138839936Y-110253700D01*
X139206100Y-110253700D01*
X139254438Y-110271293D01*
X139280158Y-110315842D01*
X139281300Y-110328900D01*
X139281300Y-110848100D01*
X139263707Y-110896438D01*
X139219158Y-110922158D01*
X139206100Y-110923300D01*
X131631900Y-110923300D01*
X131583562Y-110905707D01*
X131557842Y-110861158D01*
X131556700Y-110848100D01*
X131556700Y-110328900D01*
X131574293Y-110280562D01*
X131618842Y-110254842D01*
X131631900Y-110253700D01*
X131998064Y-110253700D01*
X132057480Y-110241881D01*
X132124860Y-110196860D01*
X132169881Y-110129480D01*
X132181700Y-110070064D01*
X132181700Y-109029936D01*
X132169881Y-108970520D01*
X132124860Y-108903140D01*
X132057480Y-108858119D01*
X131998064Y-108846300D01*
X130457936Y-108846300D01*
X130398520Y-108858119D01*
X130331140Y-108903140D01*
X130286119Y-108970520D01*
X130274300Y-109029936D01*
X130274300Y-110070064D01*
X130286119Y-110129480D01*
X130331140Y-110196860D01*
X130398520Y-110241881D01*
X130457936Y-110253700D01*
X130824100Y-110253700D01*
X130872438Y-110271293D01*
X130898158Y-110315842D01*
X130899300Y-110328900D01*
X130899300Y-110848100D01*
X130881707Y-110896438D01*
X130837158Y-110922158D01*
X130824100Y-110923300D01*
X127525637Y-110923300D01*
X127519082Y-110923014D01*
X127485463Y-110920072D01*
X127485461Y-110920072D01*
X127478910Y-110919499D01*
X127472559Y-110921201D01*
X127472556Y-110921201D01*
X127439959Y-110929936D01*
X127433553Y-110931356D01*
X127393844Y-110938358D01*
X127388145Y-110941648D01*
X127383104Y-110943483D01*
X127378148Y-110945536D01*
X127373297Y-110947798D01*
X127366942Y-110949501D01*
X127361554Y-110953274D01*
X127333907Y-110972632D01*
X127328379Y-110976154D01*
X127293456Y-110996317D01*
X127289226Y-111001358D01*
X127289224Y-111001360D01*
X127267531Y-111027213D01*
X127263099Y-111032049D01*
X126391521Y-111903627D01*
X126344901Y-111925367D01*
X126328535Y-111925010D01*
X126238000Y-111913091D01*
X126233116Y-111913734D01*
X126085284Y-111933196D01*
X126085281Y-111933197D01*
X126080403Y-111933839D01*
X126075856Y-111935723D01*
X126075854Y-111935723D01*
X126006974Y-111964254D01*
X125933546Y-111994669D01*
X125807436Y-112091436D01*
X125710669Y-112217546D01*
X125649839Y-112364403D01*
X125649197Y-112369281D01*
X125649196Y-112369284D01*
X125632725Y-112494399D01*
X125629091Y-112522000D01*
X122453500Y-112522000D01*
X122453500Y-110070064D01*
X125374300Y-110070064D01*
X125386119Y-110129480D01*
X125431140Y-110196860D01*
X125498520Y-110241881D01*
X125557936Y-110253700D01*
X127098064Y-110253700D01*
X127157480Y-110241881D01*
X127224860Y-110196860D01*
X127269881Y-110129480D01*
X127281700Y-110070064D01*
X127281700Y-109029936D01*
X127269881Y-108970520D01*
X127224860Y-108903140D01*
X127157480Y-108858119D01*
X127098064Y-108846300D01*
X125557936Y-108846300D01*
X125498520Y-108858119D01*
X125431140Y-108903140D01*
X125386119Y-108970520D01*
X125374300Y-109029936D01*
X125374300Y-110070064D01*
X122453500Y-110070064D01*
X122453500Y-106880880D01*
X125223201Y-106880880D01*
X125223602Y-106886349D01*
X125232615Y-106947584D01*
X125236041Y-106958609D01*
X125282785Y-107053817D01*
X125289919Y-107063782D01*
X125364720Y-107138451D01*
X125374702Y-107145572D01*
X125469995Y-107192152D01*
X125481009Y-107195556D01*
X125541668Y-107204406D01*
X125547101Y-107204800D01*
X126137341Y-107204800D01*
X126147498Y-107201103D01*
X126150600Y-107195731D01*
X126150600Y-107191540D01*
X126505400Y-107191540D01*
X126509097Y-107201697D01*
X126514469Y-107204799D01*
X127108880Y-107204799D01*
X127114349Y-107204398D01*
X127175584Y-107195385D01*
X127186609Y-107191959D01*
X127281817Y-107145215D01*
X127291782Y-107138081D01*
X127366451Y-107063280D01*
X127373572Y-107053298D01*
X127420152Y-106958005D01*
X127423556Y-106946991D01*
X127432406Y-106886332D01*
X127432800Y-106880899D01*
X127432800Y-106870064D01*
X130274300Y-106870064D01*
X130275021Y-106873688D01*
X130275021Y-106873689D01*
X130276455Y-106880899D01*
X130286119Y-106929480D01*
X130331140Y-106996860D01*
X130398520Y-107041881D01*
X130457936Y-107053700D01*
X131717700Y-107053700D01*
X131766038Y-107071293D01*
X131770874Y-107075726D01*
X133734274Y-109039126D01*
X133756014Y-109085746D01*
X133756300Y-109092300D01*
X133756300Y-110070064D01*
X133768119Y-110129480D01*
X133813140Y-110196860D01*
X133880520Y-110241881D01*
X133939936Y-110253700D01*
X135480064Y-110253700D01*
X135539480Y-110241881D01*
X135606860Y-110196860D01*
X135651881Y-110129480D01*
X135663700Y-110070064D01*
X135663700Y-109029936D01*
X135651881Y-108970520D01*
X135606860Y-108903140D01*
X135539480Y-108858119D01*
X135480064Y-108846300D01*
X134502300Y-108846300D01*
X134453962Y-108828707D01*
X134449126Y-108824274D01*
X132505732Y-106880880D01*
X133605201Y-106880880D01*
X133605602Y-106886349D01*
X133614615Y-106947584D01*
X133618041Y-106958609D01*
X133664785Y-107053817D01*
X133671919Y-107063782D01*
X133746720Y-107138451D01*
X133756702Y-107145572D01*
X133851995Y-107192152D01*
X133863009Y-107195556D01*
X133923668Y-107204406D01*
X133929101Y-107204800D01*
X134519341Y-107204800D01*
X134529498Y-107201103D01*
X134532600Y-107195731D01*
X134532600Y-107191540D01*
X134887400Y-107191540D01*
X134891097Y-107201697D01*
X134896469Y-107204799D01*
X135490880Y-107204799D01*
X135496349Y-107204398D01*
X135557584Y-107195385D01*
X135568609Y-107191959D01*
X135663817Y-107145215D01*
X135673782Y-107138081D01*
X135748451Y-107063280D01*
X135755572Y-107053298D01*
X135802152Y-106958005D01*
X135805556Y-106946991D01*
X135814406Y-106886332D01*
X135814800Y-106880899D01*
X135814800Y-106870064D01*
X138656300Y-106870064D01*
X138657021Y-106873688D01*
X138657021Y-106873689D01*
X138658455Y-106880899D01*
X138668119Y-106929480D01*
X138713140Y-106996860D01*
X138780520Y-107041881D01*
X138839936Y-107053700D01*
X140099700Y-107053700D01*
X140148038Y-107071293D01*
X140152874Y-107075726D01*
X142116274Y-109039126D01*
X142138014Y-109085746D01*
X142138300Y-109092300D01*
X142138300Y-110070064D01*
X142150119Y-110129480D01*
X142195140Y-110196860D01*
X142262520Y-110241881D01*
X142321936Y-110253700D01*
X143862064Y-110253700D01*
X143921480Y-110241881D01*
X143988860Y-110196860D01*
X144033881Y-110129480D01*
X144045700Y-110070064D01*
X144045700Y-109029936D01*
X144033881Y-108970520D01*
X143988860Y-108903140D01*
X143921480Y-108858119D01*
X143862064Y-108846300D01*
X142884300Y-108846300D01*
X142835962Y-108828707D01*
X142831126Y-108824274D01*
X140887732Y-106880880D01*
X141987201Y-106880880D01*
X141987602Y-106886349D01*
X141996615Y-106947584D01*
X142000041Y-106958609D01*
X142046785Y-107053817D01*
X142053919Y-107063782D01*
X142128720Y-107138451D01*
X142138702Y-107145572D01*
X142233995Y-107192152D01*
X142245009Y-107195556D01*
X142305668Y-107204406D01*
X142311101Y-107204800D01*
X142901341Y-107204800D01*
X142911498Y-107201103D01*
X142914600Y-107195731D01*
X142914600Y-107191540D01*
X143269400Y-107191540D01*
X143273097Y-107201697D01*
X143278469Y-107204799D01*
X143872880Y-107204799D01*
X143878349Y-107204398D01*
X143939584Y-107195385D01*
X143950609Y-107191959D01*
X144045817Y-107145215D01*
X144055782Y-107138081D01*
X144130451Y-107063280D01*
X144137572Y-107053298D01*
X144184152Y-106958005D01*
X144187556Y-106946991D01*
X144196406Y-106886332D01*
X144196800Y-106880899D01*
X144196800Y-106870064D01*
X147038300Y-106870064D01*
X147039021Y-106873688D01*
X147039021Y-106873689D01*
X147040455Y-106880899D01*
X147050119Y-106929480D01*
X147095140Y-106996860D01*
X147162520Y-107041881D01*
X147221936Y-107053700D01*
X148481700Y-107053700D01*
X148530038Y-107071293D01*
X148534874Y-107075726D01*
X150498274Y-109039126D01*
X150520014Y-109085746D01*
X150520300Y-109092300D01*
X150520300Y-110070064D01*
X150532119Y-110129480D01*
X150577140Y-110196860D01*
X150644520Y-110241881D01*
X150703936Y-110253700D01*
X152244064Y-110253700D01*
X152303480Y-110241881D01*
X152370860Y-110196860D01*
X152415881Y-110129480D01*
X152427700Y-110070064D01*
X152427700Y-109029936D01*
X152415881Y-108970520D01*
X152370860Y-108903140D01*
X152303480Y-108858119D01*
X152244064Y-108846300D01*
X151266300Y-108846300D01*
X151217962Y-108828707D01*
X151213126Y-108824274D01*
X149269732Y-106880880D01*
X150369201Y-106880880D01*
X150369602Y-106886349D01*
X150378615Y-106947584D01*
X150382041Y-106958609D01*
X150428785Y-107053817D01*
X150435919Y-107063782D01*
X150510720Y-107138451D01*
X150520702Y-107145572D01*
X150615995Y-107192152D01*
X150627009Y-107195556D01*
X150687668Y-107204406D01*
X150693101Y-107204800D01*
X151283341Y-107204800D01*
X151293498Y-107201103D01*
X151296600Y-107195731D01*
X151296600Y-107191540D01*
X151651400Y-107191540D01*
X151655097Y-107201697D01*
X151660469Y-107204799D01*
X152254880Y-107204799D01*
X152260349Y-107204398D01*
X152321584Y-107195385D01*
X152332609Y-107191959D01*
X152427817Y-107145215D01*
X152437782Y-107138081D01*
X152512451Y-107063280D01*
X152519572Y-107053298D01*
X152566152Y-106958005D01*
X152569556Y-106946991D01*
X152578406Y-106886332D01*
X152578800Y-106880899D01*
X152578800Y-106870064D01*
X155420300Y-106870064D01*
X155421021Y-106873688D01*
X155421021Y-106873689D01*
X155422455Y-106880899D01*
X155432119Y-106929480D01*
X155477140Y-106996860D01*
X155544520Y-107041881D01*
X155603936Y-107053700D01*
X157144064Y-107053700D01*
X157203480Y-107041881D01*
X157270860Y-106996860D01*
X157315881Y-106929480D01*
X157325545Y-106880899D01*
X157326979Y-106873689D01*
X157326979Y-106873688D01*
X157327700Y-106870064D01*
X157327700Y-106753900D01*
X157345293Y-106705562D01*
X157389842Y-106679842D01*
X157402900Y-106678700D01*
X157758700Y-106678700D01*
X157807038Y-106696293D01*
X157811874Y-106700726D01*
X160150274Y-109039126D01*
X160172014Y-109085746D01*
X160172300Y-109092300D01*
X160172300Y-110070064D01*
X160184119Y-110129480D01*
X160229140Y-110196860D01*
X160296520Y-110241881D01*
X160355936Y-110253700D01*
X161896064Y-110253700D01*
X161955480Y-110241881D01*
X162022860Y-110196860D01*
X162067881Y-110129480D01*
X162079700Y-110070064D01*
X162079700Y-109029936D01*
X162067881Y-108970520D01*
X162022860Y-108903140D01*
X161955480Y-108858119D01*
X161896064Y-108846300D01*
X160918300Y-108846300D01*
X160869962Y-108828707D01*
X160865126Y-108824274D01*
X158921732Y-106880880D01*
X160021201Y-106880880D01*
X160021602Y-106886349D01*
X160030615Y-106947584D01*
X160034041Y-106958609D01*
X160080785Y-107053817D01*
X160087919Y-107063782D01*
X160162720Y-107138451D01*
X160172702Y-107145572D01*
X160267995Y-107192152D01*
X160279009Y-107195556D01*
X160339668Y-107204406D01*
X160345101Y-107204800D01*
X160935341Y-107204800D01*
X160945498Y-107201103D01*
X160948600Y-107195731D01*
X160948600Y-107191540D01*
X161303400Y-107191540D01*
X161307097Y-107201697D01*
X161312469Y-107204799D01*
X161906880Y-107204799D01*
X161912349Y-107204398D01*
X161973584Y-107195385D01*
X161984609Y-107191959D01*
X162079817Y-107145215D01*
X162089782Y-107138081D01*
X162164451Y-107063280D01*
X162171572Y-107053298D01*
X162218152Y-106958005D01*
X162221556Y-106946991D01*
X162230406Y-106886332D01*
X162230800Y-106880899D01*
X162230800Y-106870064D01*
X165072300Y-106870064D01*
X165073021Y-106873688D01*
X165073021Y-106873689D01*
X165074455Y-106880899D01*
X165084119Y-106929480D01*
X165129140Y-106996860D01*
X165196520Y-107041881D01*
X165255936Y-107053700D01*
X166515700Y-107053700D01*
X166564038Y-107071293D01*
X166568874Y-107075726D01*
X168532274Y-109039126D01*
X168554014Y-109085746D01*
X168554300Y-109092300D01*
X168554300Y-110070064D01*
X168566119Y-110129480D01*
X168611140Y-110196860D01*
X168678520Y-110241881D01*
X168737936Y-110253700D01*
X170278064Y-110253700D01*
X170337480Y-110241881D01*
X170404860Y-110196860D01*
X170449881Y-110129480D01*
X170461700Y-110070064D01*
X170461700Y-109029936D01*
X170449881Y-108970520D01*
X170404860Y-108903140D01*
X170337480Y-108858119D01*
X170278064Y-108846300D01*
X169300300Y-108846300D01*
X169251962Y-108828707D01*
X169247126Y-108824274D01*
X167303732Y-106880880D01*
X168403201Y-106880880D01*
X168403602Y-106886349D01*
X168412615Y-106947584D01*
X168416041Y-106958609D01*
X168462785Y-107053817D01*
X168469919Y-107063782D01*
X168544720Y-107138451D01*
X168554702Y-107145572D01*
X168649995Y-107192152D01*
X168661009Y-107195556D01*
X168721668Y-107204406D01*
X168727101Y-107204800D01*
X169317341Y-107204800D01*
X169327498Y-107201103D01*
X169330600Y-107195731D01*
X169330600Y-107191540D01*
X169685400Y-107191540D01*
X169689097Y-107201697D01*
X169694469Y-107204799D01*
X170288880Y-107204799D01*
X170294349Y-107204398D01*
X170355584Y-107195385D01*
X170366609Y-107191959D01*
X170461817Y-107145215D01*
X170471782Y-107138081D01*
X170546451Y-107063280D01*
X170553572Y-107053298D01*
X170600152Y-106958005D01*
X170603556Y-106946991D01*
X170612406Y-106886332D01*
X170612800Y-106880899D01*
X170612800Y-106870064D01*
X173454300Y-106870064D01*
X173455021Y-106873688D01*
X173455021Y-106873689D01*
X173456455Y-106880899D01*
X173466119Y-106929480D01*
X173511140Y-106996860D01*
X173578520Y-107041881D01*
X173637936Y-107053700D01*
X174897700Y-107053700D01*
X174946038Y-107071293D01*
X174950874Y-107075726D01*
X176914274Y-109039126D01*
X176936014Y-109085746D01*
X176936300Y-109092300D01*
X176936300Y-110070064D01*
X176948119Y-110129480D01*
X176993140Y-110196860D01*
X177060520Y-110241881D01*
X177119936Y-110253700D01*
X178660064Y-110253700D01*
X178719480Y-110241881D01*
X178786860Y-110196860D01*
X178831881Y-110129480D01*
X178843700Y-110070064D01*
X178843700Y-109029936D01*
X178831881Y-108970520D01*
X178786860Y-108903140D01*
X178719480Y-108858119D01*
X178660064Y-108846300D01*
X177682300Y-108846300D01*
X177633962Y-108828707D01*
X177629126Y-108824274D01*
X175685732Y-106880880D01*
X176785201Y-106880880D01*
X176785602Y-106886349D01*
X176794615Y-106947584D01*
X176798041Y-106958609D01*
X176844785Y-107053817D01*
X176851919Y-107063782D01*
X176926720Y-107138451D01*
X176936702Y-107145572D01*
X177031995Y-107192152D01*
X177043009Y-107195556D01*
X177103668Y-107204406D01*
X177109101Y-107204800D01*
X177699341Y-107204800D01*
X177709498Y-107201103D01*
X177712600Y-107195731D01*
X177712600Y-107191540D01*
X178067400Y-107191540D01*
X178071097Y-107201697D01*
X178076469Y-107204799D01*
X178670880Y-107204799D01*
X178676349Y-107204398D01*
X178737584Y-107195385D01*
X178748609Y-107191959D01*
X178843817Y-107145215D01*
X178853782Y-107138081D01*
X178928451Y-107063280D01*
X178935572Y-107053298D01*
X178982152Y-106958005D01*
X178985556Y-106946991D01*
X178994406Y-106886332D01*
X178994800Y-106880899D01*
X178994800Y-106870064D01*
X181836300Y-106870064D01*
X181837021Y-106873688D01*
X181837021Y-106873689D01*
X181838455Y-106880899D01*
X181848119Y-106929480D01*
X181893140Y-106996860D01*
X181960520Y-107041881D01*
X182019936Y-107053700D01*
X183279700Y-107053700D01*
X183328038Y-107071293D01*
X183332874Y-107075726D01*
X185296274Y-109039126D01*
X185318014Y-109085746D01*
X185318300Y-109092300D01*
X185318300Y-110070064D01*
X185330119Y-110129480D01*
X185375140Y-110196860D01*
X185442520Y-110241881D01*
X185501936Y-110253700D01*
X187042064Y-110253700D01*
X187101480Y-110241881D01*
X187168860Y-110196860D01*
X187213881Y-110129480D01*
X187225700Y-110070064D01*
X187225700Y-109029936D01*
X187213881Y-108970520D01*
X187168860Y-108903140D01*
X187101480Y-108858119D01*
X187042064Y-108846300D01*
X186064300Y-108846300D01*
X186015962Y-108828707D01*
X186011126Y-108824274D01*
X184067732Y-106880880D01*
X185167201Y-106880880D01*
X185167602Y-106886349D01*
X185176615Y-106947584D01*
X185180041Y-106958609D01*
X185226785Y-107053817D01*
X185233919Y-107063782D01*
X185308720Y-107138451D01*
X185318702Y-107145572D01*
X185413995Y-107192152D01*
X185425009Y-107195556D01*
X185485668Y-107204406D01*
X185491101Y-107204800D01*
X186081341Y-107204800D01*
X186091498Y-107201103D01*
X186094600Y-107195731D01*
X186094600Y-107191540D01*
X186449400Y-107191540D01*
X186453097Y-107201697D01*
X186458469Y-107204799D01*
X187052880Y-107204799D01*
X187058349Y-107204398D01*
X187119584Y-107195385D01*
X187130609Y-107191959D01*
X187225817Y-107145215D01*
X187235782Y-107138081D01*
X187310451Y-107063280D01*
X187317572Y-107053298D01*
X187364152Y-106958005D01*
X187367556Y-106946991D01*
X187376406Y-106886332D01*
X187376800Y-106880899D01*
X187376800Y-106540659D01*
X187373103Y-106530502D01*
X187367731Y-106527400D01*
X186462659Y-106527400D01*
X186452502Y-106531097D01*
X186449400Y-106536469D01*
X186449400Y-107191540D01*
X186094600Y-107191540D01*
X186094600Y-106540659D01*
X186090903Y-106530502D01*
X186085531Y-106527400D01*
X185180460Y-106527400D01*
X185170303Y-106531097D01*
X185167201Y-106536469D01*
X185167201Y-106880880D01*
X184067732Y-106880880D01*
X183765726Y-106578874D01*
X183743986Y-106532254D01*
X183743700Y-106525700D01*
X183743700Y-106159341D01*
X185167200Y-106159341D01*
X185170897Y-106169498D01*
X185176269Y-106172600D01*
X186081341Y-106172600D01*
X186091498Y-106168903D01*
X186094600Y-106163531D01*
X186094600Y-106159341D01*
X186449400Y-106159341D01*
X186453097Y-106169498D01*
X186458469Y-106172600D01*
X187363540Y-106172600D01*
X187373697Y-106168903D01*
X187376799Y-106163531D01*
X187376799Y-105819120D01*
X187376398Y-105813651D01*
X187367385Y-105752416D01*
X187363959Y-105741391D01*
X187317215Y-105646183D01*
X187310081Y-105636218D01*
X187235280Y-105561549D01*
X187225298Y-105554428D01*
X187130005Y-105507848D01*
X187118991Y-105504444D01*
X187058332Y-105495594D01*
X187052899Y-105495200D01*
X186462659Y-105495200D01*
X186452502Y-105498897D01*
X186449400Y-105504269D01*
X186449400Y-106159341D01*
X186094600Y-106159341D01*
X186094600Y-105508460D01*
X186090903Y-105498303D01*
X186085531Y-105495201D01*
X185491120Y-105495201D01*
X185485651Y-105495602D01*
X185424416Y-105504615D01*
X185413391Y-105508041D01*
X185318183Y-105554785D01*
X185308218Y-105561919D01*
X185233549Y-105636720D01*
X185226428Y-105646702D01*
X185179848Y-105741995D01*
X185176444Y-105753009D01*
X185167594Y-105813668D01*
X185167200Y-105819101D01*
X185167200Y-106159341D01*
X183743700Y-106159341D01*
X183743700Y-105829936D01*
X183741549Y-105819120D01*
X183733326Y-105777786D01*
X183731881Y-105770520D01*
X183686860Y-105703140D01*
X183619480Y-105658119D01*
X183560064Y-105646300D01*
X182019936Y-105646300D01*
X181960520Y-105658119D01*
X181893140Y-105703140D01*
X181848119Y-105770520D01*
X181846674Y-105777786D01*
X181838452Y-105819120D01*
X181836300Y-105829936D01*
X181836300Y-106870064D01*
X178994800Y-106870064D01*
X178994800Y-106540659D01*
X178991103Y-106530502D01*
X178985731Y-106527400D01*
X178080659Y-106527400D01*
X178070502Y-106531097D01*
X178067400Y-106536469D01*
X178067400Y-107191540D01*
X177712600Y-107191540D01*
X177712600Y-106540659D01*
X177708903Y-106530502D01*
X177703531Y-106527400D01*
X176798460Y-106527400D01*
X176788303Y-106531097D01*
X176785201Y-106536469D01*
X176785201Y-106880880D01*
X175685732Y-106880880D01*
X175383726Y-106578874D01*
X175361986Y-106532254D01*
X175361700Y-106525700D01*
X175361700Y-106159341D01*
X176785200Y-106159341D01*
X176788897Y-106169498D01*
X176794269Y-106172600D01*
X177699341Y-106172600D01*
X177709498Y-106168903D01*
X177712600Y-106163531D01*
X177712600Y-106159341D01*
X178067400Y-106159341D01*
X178071097Y-106169498D01*
X178076469Y-106172600D01*
X178981540Y-106172600D01*
X178991697Y-106168903D01*
X178994799Y-106163531D01*
X178994799Y-105819120D01*
X178994398Y-105813651D01*
X178985385Y-105752416D01*
X178981959Y-105741391D01*
X178935215Y-105646183D01*
X178928081Y-105636218D01*
X178853280Y-105561549D01*
X178843298Y-105554428D01*
X178748005Y-105507848D01*
X178736991Y-105504444D01*
X178676332Y-105495594D01*
X178670899Y-105495200D01*
X178080659Y-105495200D01*
X178070502Y-105498897D01*
X178067400Y-105504269D01*
X178067400Y-106159341D01*
X177712600Y-106159341D01*
X177712600Y-105508460D01*
X177708903Y-105498303D01*
X177703531Y-105495201D01*
X177109120Y-105495201D01*
X177103651Y-105495602D01*
X177042416Y-105504615D01*
X177031391Y-105508041D01*
X176936183Y-105554785D01*
X176926218Y-105561919D01*
X176851549Y-105636720D01*
X176844428Y-105646702D01*
X176797848Y-105741995D01*
X176794444Y-105753009D01*
X176785594Y-105813668D01*
X176785200Y-105819101D01*
X176785200Y-106159341D01*
X175361700Y-106159341D01*
X175361700Y-105829936D01*
X175359549Y-105819120D01*
X175351326Y-105777786D01*
X175349881Y-105770520D01*
X175304860Y-105703140D01*
X175237480Y-105658119D01*
X175178064Y-105646300D01*
X173637936Y-105646300D01*
X173578520Y-105658119D01*
X173511140Y-105703140D01*
X173466119Y-105770520D01*
X173464674Y-105777786D01*
X173456452Y-105819120D01*
X173454300Y-105829936D01*
X173454300Y-106870064D01*
X170612800Y-106870064D01*
X170612800Y-106540659D01*
X170609103Y-106530502D01*
X170603731Y-106527400D01*
X169698659Y-106527400D01*
X169688502Y-106531097D01*
X169685400Y-106536469D01*
X169685400Y-107191540D01*
X169330600Y-107191540D01*
X169330600Y-106540659D01*
X169326903Y-106530502D01*
X169321531Y-106527400D01*
X168416460Y-106527400D01*
X168406303Y-106531097D01*
X168403201Y-106536469D01*
X168403201Y-106880880D01*
X167303732Y-106880880D01*
X167001726Y-106578874D01*
X166979986Y-106532254D01*
X166979700Y-106525700D01*
X166979700Y-106159341D01*
X168403200Y-106159341D01*
X168406897Y-106169498D01*
X168412269Y-106172600D01*
X169317341Y-106172600D01*
X169327498Y-106168903D01*
X169330600Y-106163531D01*
X169330600Y-106159341D01*
X169685400Y-106159341D01*
X169689097Y-106169498D01*
X169694469Y-106172600D01*
X170599540Y-106172600D01*
X170609697Y-106168903D01*
X170612799Y-106163531D01*
X170612799Y-105819120D01*
X170612398Y-105813651D01*
X170603385Y-105752416D01*
X170599959Y-105741391D01*
X170553215Y-105646183D01*
X170546081Y-105636218D01*
X170471280Y-105561549D01*
X170461298Y-105554428D01*
X170366005Y-105507848D01*
X170354991Y-105504444D01*
X170294332Y-105495594D01*
X170288899Y-105495200D01*
X169698659Y-105495200D01*
X169688502Y-105498897D01*
X169685400Y-105504269D01*
X169685400Y-106159341D01*
X169330600Y-106159341D01*
X169330600Y-105508460D01*
X169326903Y-105498303D01*
X169321531Y-105495201D01*
X168727120Y-105495201D01*
X168721651Y-105495602D01*
X168660416Y-105504615D01*
X168649391Y-105508041D01*
X168554183Y-105554785D01*
X168544218Y-105561919D01*
X168469549Y-105636720D01*
X168462428Y-105646702D01*
X168415848Y-105741995D01*
X168412444Y-105753009D01*
X168403594Y-105813668D01*
X168403200Y-105819101D01*
X168403200Y-106159341D01*
X166979700Y-106159341D01*
X166979700Y-105829936D01*
X166977549Y-105819120D01*
X166969326Y-105777786D01*
X166967881Y-105770520D01*
X166922860Y-105703140D01*
X166855480Y-105658119D01*
X166796064Y-105646300D01*
X165255936Y-105646300D01*
X165196520Y-105658119D01*
X165129140Y-105703140D01*
X165084119Y-105770520D01*
X165082674Y-105777786D01*
X165074452Y-105819120D01*
X165072300Y-105829936D01*
X165072300Y-106870064D01*
X162230800Y-106870064D01*
X162230800Y-106540659D01*
X162227103Y-106530502D01*
X162221731Y-106527400D01*
X161316659Y-106527400D01*
X161306502Y-106531097D01*
X161303400Y-106536469D01*
X161303400Y-107191540D01*
X160948600Y-107191540D01*
X160948600Y-106540659D01*
X160944903Y-106530502D01*
X160939531Y-106527400D01*
X160034460Y-106527400D01*
X160024303Y-106531097D01*
X160021201Y-106536469D01*
X160021201Y-106880880D01*
X158921732Y-106880880D01*
X158200193Y-106159341D01*
X160021200Y-106159341D01*
X160024897Y-106169498D01*
X160030269Y-106172600D01*
X160935341Y-106172600D01*
X160945498Y-106168903D01*
X160948600Y-106163531D01*
X160948600Y-106159341D01*
X161303400Y-106159341D01*
X161307097Y-106169498D01*
X161312469Y-106172600D01*
X162217540Y-106172600D01*
X162227697Y-106168903D01*
X162230799Y-106163531D01*
X162230799Y-105819120D01*
X162230398Y-105813651D01*
X162221385Y-105752416D01*
X162217959Y-105741391D01*
X162171215Y-105646183D01*
X162164081Y-105636218D01*
X162089280Y-105561549D01*
X162079298Y-105554428D01*
X161984005Y-105507848D01*
X161972991Y-105504444D01*
X161912332Y-105495594D01*
X161906899Y-105495200D01*
X161316659Y-105495200D01*
X161306502Y-105498897D01*
X161303400Y-105504269D01*
X161303400Y-106159341D01*
X160948600Y-106159341D01*
X160948600Y-105508460D01*
X160944903Y-105498303D01*
X160939531Y-105495201D01*
X160345120Y-105495201D01*
X160339651Y-105495602D01*
X160278416Y-105504615D01*
X160267391Y-105508041D01*
X160172183Y-105554785D01*
X160162218Y-105561919D01*
X160087549Y-105636720D01*
X160080428Y-105646702D01*
X160033848Y-105741995D01*
X160030444Y-105753009D01*
X160021594Y-105813668D01*
X160021200Y-105819101D01*
X160021200Y-106159341D01*
X158200193Y-106159341D01*
X158170905Y-106130053D01*
X158166472Y-106125216D01*
X158144774Y-106099358D01*
X158140544Y-106094317D01*
X158105621Y-106074154D01*
X158100093Y-106070632D01*
X158072446Y-106051274D01*
X158067058Y-106047501D01*
X158060703Y-106045798D01*
X158055852Y-106043536D01*
X158050896Y-106041483D01*
X158045855Y-106039648D01*
X158040156Y-106036358D01*
X158000447Y-106029356D01*
X157994041Y-106027936D01*
X157990488Y-106026984D01*
X157955090Y-106017499D01*
X157948538Y-106018072D01*
X157948536Y-106018072D01*
X157914914Y-106021014D01*
X157908360Y-106021300D01*
X157402900Y-106021300D01*
X157354562Y-106003707D01*
X157328842Y-105959158D01*
X157327700Y-105946100D01*
X157327700Y-105829936D01*
X157325549Y-105819120D01*
X157317326Y-105777786D01*
X157315881Y-105770520D01*
X157270860Y-105703140D01*
X157203480Y-105658119D01*
X157144064Y-105646300D01*
X155603936Y-105646300D01*
X155544520Y-105658119D01*
X155477140Y-105703140D01*
X155432119Y-105770520D01*
X155430674Y-105777786D01*
X155422452Y-105819120D01*
X155420300Y-105829936D01*
X155420300Y-106870064D01*
X152578800Y-106870064D01*
X152578800Y-106540659D01*
X152575103Y-106530502D01*
X152569731Y-106527400D01*
X151664659Y-106527400D01*
X151654502Y-106531097D01*
X151651400Y-106536469D01*
X151651400Y-107191540D01*
X151296600Y-107191540D01*
X151296600Y-106540659D01*
X151292903Y-106530502D01*
X151287531Y-106527400D01*
X150382460Y-106527400D01*
X150372303Y-106531097D01*
X150369201Y-106536469D01*
X150369201Y-106880880D01*
X149269732Y-106880880D01*
X148967726Y-106578874D01*
X148945986Y-106532254D01*
X148945700Y-106525700D01*
X148945700Y-106159341D01*
X150369200Y-106159341D01*
X150372897Y-106169498D01*
X150378269Y-106172600D01*
X151283341Y-106172600D01*
X151293498Y-106168903D01*
X151296600Y-106163531D01*
X151296600Y-106159341D01*
X151651400Y-106159341D01*
X151655097Y-106169498D01*
X151660469Y-106172600D01*
X152565540Y-106172600D01*
X152575697Y-106168903D01*
X152578799Y-106163531D01*
X152578799Y-105819120D01*
X152578398Y-105813651D01*
X152569385Y-105752416D01*
X152565959Y-105741391D01*
X152519215Y-105646183D01*
X152512081Y-105636218D01*
X152437280Y-105561549D01*
X152427298Y-105554428D01*
X152332005Y-105507848D01*
X152320991Y-105504444D01*
X152260332Y-105495594D01*
X152254899Y-105495200D01*
X151664659Y-105495200D01*
X151654502Y-105498897D01*
X151651400Y-105504269D01*
X151651400Y-106159341D01*
X151296600Y-106159341D01*
X151296600Y-105508460D01*
X151292903Y-105498303D01*
X151287531Y-105495201D01*
X150693120Y-105495201D01*
X150687651Y-105495602D01*
X150626416Y-105504615D01*
X150615391Y-105508041D01*
X150520183Y-105554785D01*
X150510218Y-105561919D01*
X150435549Y-105636720D01*
X150428428Y-105646702D01*
X150381848Y-105741995D01*
X150378444Y-105753009D01*
X150369594Y-105813668D01*
X150369200Y-105819101D01*
X150369200Y-106159341D01*
X148945700Y-106159341D01*
X148945700Y-105829936D01*
X148943549Y-105819120D01*
X148935326Y-105777786D01*
X148933881Y-105770520D01*
X148888860Y-105703140D01*
X148821480Y-105658119D01*
X148762064Y-105646300D01*
X147221936Y-105646300D01*
X147162520Y-105658119D01*
X147095140Y-105703140D01*
X147050119Y-105770520D01*
X147048674Y-105777786D01*
X147040452Y-105819120D01*
X147038300Y-105829936D01*
X147038300Y-106870064D01*
X144196800Y-106870064D01*
X144196800Y-106540659D01*
X144193103Y-106530502D01*
X144187731Y-106527400D01*
X143282659Y-106527400D01*
X143272502Y-106531097D01*
X143269400Y-106536469D01*
X143269400Y-107191540D01*
X142914600Y-107191540D01*
X142914600Y-106540659D01*
X142910903Y-106530502D01*
X142905531Y-106527400D01*
X142000460Y-106527400D01*
X141990303Y-106531097D01*
X141987201Y-106536469D01*
X141987201Y-106880880D01*
X140887732Y-106880880D01*
X140585726Y-106578874D01*
X140563986Y-106532254D01*
X140563700Y-106525700D01*
X140563700Y-106159341D01*
X141987200Y-106159341D01*
X141990897Y-106169498D01*
X141996269Y-106172600D01*
X142901341Y-106172600D01*
X142911498Y-106168903D01*
X142914600Y-106163531D01*
X142914600Y-106159341D01*
X143269400Y-106159341D01*
X143273097Y-106169498D01*
X143278469Y-106172600D01*
X144183540Y-106172600D01*
X144193697Y-106168903D01*
X144196799Y-106163531D01*
X144196799Y-105819120D01*
X144196398Y-105813651D01*
X144187385Y-105752416D01*
X144183959Y-105741391D01*
X144137215Y-105646183D01*
X144130081Y-105636218D01*
X144055280Y-105561549D01*
X144045298Y-105554428D01*
X143950005Y-105507848D01*
X143938991Y-105504444D01*
X143878332Y-105495594D01*
X143872899Y-105495200D01*
X143282659Y-105495200D01*
X143272502Y-105498897D01*
X143269400Y-105504269D01*
X143269400Y-106159341D01*
X142914600Y-106159341D01*
X142914600Y-105508460D01*
X142910903Y-105498303D01*
X142905531Y-105495201D01*
X142311120Y-105495201D01*
X142305651Y-105495602D01*
X142244416Y-105504615D01*
X142233391Y-105508041D01*
X142138183Y-105554785D01*
X142128218Y-105561919D01*
X142053549Y-105636720D01*
X142046428Y-105646702D01*
X141999848Y-105741995D01*
X141996444Y-105753009D01*
X141987594Y-105813668D01*
X141987200Y-105819101D01*
X141987200Y-106159341D01*
X140563700Y-106159341D01*
X140563700Y-105829936D01*
X140561549Y-105819120D01*
X140553326Y-105777786D01*
X140551881Y-105770520D01*
X140506860Y-105703140D01*
X140439480Y-105658119D01*
X140380064Y-105646300D01*
X138839936Y-105646300D01*
X138780520Y-105658119D01*
X138713140Y-105703140D01*
X138668119Y-105770520D01*
X138666674Y-105777786D01*
X138658452Y-105819120D01*
X138656300Y-105829936D01*
X138656300Y-106870064D01*
X135814800Y-106870064D01*
X135814800Y-106540659D01*
X135811103Y-106530502D01*
X135805731Y-106527400D01*
X134900659Y-106527400D01*
X134890502Y-106531097D01*
X134887400Y-106536469D01*
X134887400Y-107191540D01*
X134532600Y-107191540D01*
X134532600Y-106540659D01*
X134528903Y-106530502D01*
X134523531Y-106527400D01*
X133618460Y-106527400D01*
X133608303Y-106531097D01*
X133605201Y-106536469D01*
X133605201Y-106880880D01*
X132505732Y-106880880D01*
X132203726Y-106578874D01*
X132181986Y-106532254D01*
X132181700Y-106525700D01*
X132181700Y-106159341D01*
X133605200Y-106159341D01*
X133608897Y-106169498D01*
X133614269Y-106172600D01*
X134519341Y-106172600D01*
X134529498Y-106168903D01*
X134532600Y-106163531D01*
X134532600Y-106159341D01*
X134887400Y-106159341D01*
X134891097Y-106169498D01*
X134896469Y-106172600D01*
X135801540Y-106172600D01*
X135811697Y-106168903D01*
X135814799Y-106163531D01*
X135814799Y-105819120D01*
X135814398Y-105813651D01*
X135805385Y-105752416D01*
X135801959Y-105741391D01*
X135755215Y-105646183D01*
X135748081Y-105636218D01*
X135673280Y-105561549D01*
X135663298Y-105554428D01*
X135568005Y-105507848D01*
X135556991Y-105504444D01*
X135496332Y-105495594D01*
X135490899Y-105495200D01*
X134900659Y-105495200D01*
X134890502Y-105498897D01*
X134887400Y-105504269D01*
X134887400Y-106159341D01*
X134532600Y-106159341D01*
X134532600Y-105508460D01*
X134528903Y-105498303D01*
X134523531Y-105495201D01*
X133929120Y-105495201D01*
X133923651Y-105495602D01*
X133862416Y-105504615D01*
X133851391Y-105508041D01*
X133756183Y-105554785D01*
X133746218Y-105561919D01*
X133671549Y-105636720D01*
X133664428Y-105646702D01*
X133617848Y-105741995D01*
X133614444Y-105753009D01*
X133605594Y-105813668D01*
X133605200Y-105819101D01*
X133605200Y-106159341D01*
X132181700Y-106159341D01*
X132181700Y-105829936D01*
X132179549Y-105819120D01*
X132171326Y-105777786D01*
X132169881Y-105770520D01*
X132124860Y-105703140D01*
X132057480Y-105658119D01*
X131998064Y-105646300D01*
X130457936Y-105646300D01*
X130398520Y-105658119D01*
X130331140Y-105703140D01*
X130286119Y-105770520D01*
X130284674Y-105777786D01*
X130276452Y-105819120D01*
X130274300Y-105829936D01*
X130274300Y-106870064D01*
X127432800Y-106870064D01*
X127432800Y-106540659D01*
X127429103Y-106530502D01*
X127423731Y-106527400D01*
X126518659Y-106527400D01*
X126508502Y-106531097D01*
X126505400Y-106536469D01*
X126505400Y-107191540D01*
X126150600Y-107191540D01*
X126150600Y-106540659D01*
X126146903Y-106530502D01*
X126141531Y-106527400D01*
X125236460Y-106527400D01*
X125226303Y-106531097D01*
X125223201Y-106536469D01*
X125223201Y-106880880D01*
X122453500Y-106880880D01*
X122453500Y-106159341D01*
X125223200Y-106159341D01*
X125226897Y-106169498D01*
X125232269Y-106172600D01*
X126137341Y-106172600D01*
X126147498Y-106168903D01*
X126150600Y-106163531D01*
X126150600Y-106159341D01*
X126505400Y-106159341D01*
X126509097Y-106169498D01*
X126514469Y-106172600D01*
X127419540Y-106172600D01*
X127429697Y-106168903D01*
X127432799Y-106163531D01*
X127432799Y-105819120D01*
X127432398Y-105813651D01*
X127423385Y-105752416D01*
X127419959Y-105741391D01*
X127373215Y-105646183D01*
X127366081Y-105636218D01*
X127291280Y-105561549D01*
X127281298Y-105554428D01*
X127186005Y-105507848D01*
X127174991Y-105504444D01*
X127114332Y-105495594D01*
X127108899Y-105495200D01*
X126518659Y-105495200D01*
X126508502Y-105498897D01*
X126505400Y-105504269D01*
X126505400Y-106159341D01*
X126150600Y-106159341D01*
X126150600Y-105508460D01*
X126146903Y-105498303D01*
X126141531Y-105495201D01*
X125547120Y-105495201D01*
X125541651Y-105495602D01*
X125480416Y-105504615D01*
X125469391Y-105508041D01*
X125374183Y-105554785D01*
X125364218Y-105561919D01*
X125289549Y-105636720D01*
X125282428Y-105646702D01*
X125235848Y-105741995D01*
X125232444Y-105753009D01*
X125223594Y-105813668D01*
X125223200Y-105819101D01*
X125223200Y-106159341D01*
X122453500Y-106159341D01*
X122453500Y-97636700D01*
X122471093Y-97588362D01*
X122515642Y-97562642D01*
X122528700Y-97561500D01*
X129947300Y-97561500D01*
X129995638Y-97579093D01*
G37*
%TD.AperFunction*%
%TD*%
M02*
