%TF.GenerationSoftware,KiCad,Pcbnew,(6.0.7-1)-1*%
%TF.CreationDate,2022-08-05T13:03:48-05:00*%
%TF.ProjectId,Adafruit NeoPixel 8 Stick,41646166-7275-4697-9420-4e656f506978,rev?*%
%TF.SameCoordinates,Original*%
%TF.FileFunction,Legend,Top*%
%TF.FilePolarity,Positive*%
%FSLAX46Y46*%
G04 Gerber Fmt 4.6, Leading zero omitted, Abs format (unit mm)*
G04 Created by KiCad (PCBNEW (6.0.7-1)-1) date 2022-08-05 13:03:48*
%MOMM*%
%LPD*%
G01*
G04 APERTURE LIST*
%ADD10C,0.150000*%
G04 APERTURE END LIST*
D10*
%TO.C,D5*%
X162837904Y-111902380D02*
X162837904Y-110902380D01*
X163076000Y-110902380D01*
X163218857Y-110950000D01*
X163314095Y-111045238D01*
X163361714Y-111140476D01*
X163409333Y-111330952D01*
X163409333Y-111473809D01*
X163361714Y-111664285D01*
X163314095Y-111759523D01*
X163218857Y-111854761D01*
X163076000Y-111902380D01*
X162837904Y-111902380D01*
X164314095Y-110902380D02*
X163837904Y-110902380D01*
X163790285Y-111378571D01*
X163837904Y-111330952D01*
X163933142Y-111283333D01*
X164171238Y-111283333D01*
X164266476Y-111330952D01*
X164314095Y-111378571D01*
X164361714Y-111473809D01*
X164361714Y-111711904D01*
X164314095Y-111807142D01*
X164266476Y-111854761D01*
X164171238Y-111902380D01*
X163933142Y-111902380D01*
X163837904Y-111854761D01*
X163790285Y-111807142D01*
%TO.C,D8*%
X187983904Y-111902380D02*
X187983904Y-110902380D01*
X188222000Y-110902380D01*
X188364857Y-110950000D01*
X188460095Y-111045238D01*
X188507714Y-111140476D01*
X188555333Y-111330952D01*
X188555333Y-111473809D01*
X188507714Y-111664285D01*
X188460095Y-111759523D01*
X188364857Y-111854761D01*
X188222000Y-111902380D01*
X187983904Y-111902380D01*
X189126761Y-111330952D02*
X189031523Y-111283333D01*
X188983904Y-111235714D01*
X188936285Y-111140476D01*
X188936285Y-111092857D01*
X188983904Y-110997619D01*
X189031523Y-110950000D01*
X189126761Y-110902380D01*
X189317238Y-110902380D01*
X189412476Y-110950000D01*
X189460095Y-110997619D01*
X189507714Y-111092857D01*
X189507714Y-111140476D01*
X189460095Y-111235714D01*
X189412476Y-111283333D01*
X189317238Y-111330952D01*
X189126761Y-111330952D01*
X189031523Y-111378571D01*
X188983904Y-111426190D01*
X188936285Y-111521428D01*
X188936285Y-111711904D01*
X188983904Y-111807142D01*
X189031523Y-111854761D01*
X189126761Y-111902380D01*
X189317238Y-111902380D01*
X189412476Y-111854761D01*
X189460095Y-111807142D01*
X189507714Y-111711904D01*
X189507714Y-111521428D01*
X189460095Y-111426190D01*
X189412476Y-111378571D01*
X189317238Y-111330952D01*
%TO.C,D6*%
X171219904Y-111902380D02*
X171219904Y-110902380D01*
X171458000Y-110902380D01*
X171600857Y-110950000D01*
X171696095Y-111045238D01*
X171743714Y-111140476D01*
X171791333Y-111330952D01*
X171791333Y-111473809D01*
X171743714Y-111664285D01*
X171696095Y-111759523D01*
X171600857Y-111854761D01*
X171458000Y-111902380D01*
X171219904Y-111902380D01*
X172648476Y-110902380D02*
X172458000Y-110902380D01*
X172362761Y-110950000D01*
X172315142Y-110997619D01*
X172219904Y-111140476D01*
X172172285Y-111330952D01*
X172172285Y-111711904D01*
X172219904Y-111807142D01*
X172267523Y-111854761D01*
X172362761Y-111902380D01*
X172553238Y-111902380D01*
X172648476Y-111854761D01*
X172696095Y-111807142D01*
X172743714Y-111711904D01*
X172743714Y-111473809D01*
X172696095Y-111378571D01*
X172648476Y-111330952D01*
X172553238Y-111283333D01*
X172362761Y-111283333D01*
X172267523Y-111330952D01*
X172219904Y-111378571D01*
X172172285Y-111473809D01*
%TO.C,D1*%
X128039904Y-111902380D02*
X128039904Y-110902380D01*
X128278000Y-110902380D01*
X128420857Y-110950000D01*
X128516095Y-111045238D01*
X128563714Y-111140476D01*
X128611333Y-111330952D01*
X128611333Y-111473809D01*
X128563714Y-111664285D01*
X128516095Y-111759523D01*
X128420857Y-111854761D01*
X128278000Y-111902380D01*
X128039904Y-111902380D01*
X129563714Y-111902380D02*
X128992285Y-111902380D01*
X129278000Y-111902380D02*
X129278000Y-110902380D01*
X129182761Y-111045238D01*
X129087523Y-111140476D01*
X128992285Y-111188095D01*
%TO.C,D7*%
X179601904Y-111902380D02*
X179601904Y-110902380D01*
X179840000Y-110902380D01*
X179982857Y-110950000D01*
X180078095Y-111045238D01*
X180125714Y-111140476D01*
X180173333Y-111330952D01*
X180173333Y-111473809D01*
X180125714Y-111664285D01*
X180078095Y-111759523D01*
X179982857Y-111854761D01*
X179840000Y-111902380D01*
X179601904Y-111902380D01*
X180506666Y-110902380D02*
X181173333Y-110902380D01*
X180744761Y-111902380D01*
%TO.C,D2*%
X136421904Y-111902380D02*
X136421904Y-110902380D01*
X136660000Y-110902380D01*
X136802857Y-110950000D01*
X136898095Y-111045238D01*
X136945714Y-111140476D01*
X136993333Y-111330952D01*
X136993333Y-111473809D01*
X136945714Y-111664285D01*
X136898095Y-111759523D01*
X136802857Y-111854761D01*
X136660000Y-111902380D01*
X136421904Y-111902380D01*
X137374285Y-110997619D02*
X137421904Y-110950000D01*
X137517142Y-110902380D01*
X137755238Y-110902380D01*
X137850476Y-110950000D01*
X137898095Y-110997619D01*
X137945714Y-111092857D01*
X137945714Y-111188095D01*
X137898095Y-111330952D01*
X137326666Y-111902380D01*
X137945714Y-111902380D01*
%TO.C,D4*%
X153185904Y-111902380D02*
X153185904Y-110902380D01*
X153424000Y-110902380D01*
X153566857Y-110950000D01*
X153662095Y-111045238D01*
X153709714Y-111140476D01*
X153757333Y-111330952D01*
X153757333Y-111473809D01*
X153709714Y-111664285D01*
X153662095Y-111759523D01*
X153566857Y-111854761D01*
X153424000Y-111902380D01*
X153185904Y-111902380D01*
X154614476Y-111235714D02*
X154614476Y-111902380D01*
X154376380Y-110854761D02*
X154138285Y-111569047D01*
X154757333Y-111569047D01*
%TO.C,D3*%
X144803904Y-111902380D02*
X144803904Y-110902380D01*
X145042000Y-110902380D01*
X145184857Y-110950000D01*
X145280095Y-111045238D01*
X145327714Y-111140476D01*
X145375333Y-111330952D01*
X145375333Y-111473809D01*
X145327714Y-111664285D01*
X145280095Y-111759523D01*
X145184857Y-111854761D01*
X145042000Y-111902380D01*
X144803904Y-111902380D01*
X145708666Y-110902380D02*
X146327714Y-110902380D01*
X145994380Y-111283333D01*
X146137238Y-111283333D01*
X146232476Y-111330952D01*
X146280095Y-111378571D01*
X146327714Y-111473809D01*
X146327714Y-111711904D01*
X146280095Y-111807142D01*
X146232476Y-111854761D01*
X146137238Y-111902380D01*
X145851523Y-111902380D01*
X145756285Y-111854761D01*
X145708666Y-111807142D01*
%TD*%
M02*
