%TF.GenerationSoftware,KiCad,Pcbnew,(6.0.7-1)-1*%
%TF.CreationDate,2022-08-05T12:37:51-05:00*%
%TF.ProjectId,Adafruit NeoPixel 8 Stick,41646166-7275-4697-9420-4e656f506978,rev?*%
%TF.SameCoordinates,Original*%
%TF.FileFunction,Legend,Top*%
%TF.FilePolarity,Positive*%
%FSLAX46Y46*%
G04 Gerber Fmt 4.6, Leading zero omitted, Abs format (unit mm)*
G04 Created by KiCad (PCBNEW (6.0.7-1)-1) date 2022-08-05 12:37:51*
%MOMM*%
%LPD*%
G01*
G04 APERTURE LIST*
%ADD10C,0.150000*%
%ADD11C,0.120000*%
G04 APERTURE END LIST*
D10*
%TO.C,Y1*%
X131833190Y-119866190D02*
X132309380Y-119866190D01*
X131309380Y-120199523D02*
X131833190Y-119866190D01*
X131309380Y-119532857D01*
X132309380Y-118675714D02*
X132309380Y-119247142D01*
X132309380Y-118961428D02*
X131309380Y-118961428D01*
X131452238Y-119056666D01*
X131547476Y-119151904D01*
X131595095Y-119247142D01*
%TO.C,C2*%
X127087333Y-120031142D02*
X127039714Y-120078761D01*
X126896857Y-120126380D01*
X126801619Y-120126380D01*
X126658761Y-120078761D01*
X126563523Y-119983523D01*
X126515904Y-119888285D01*
X126468285Y-119697809D01*
X126468285Y-119554952D01*
X126515904Y-119364476D01*
X126563523Y-119269238D01*
X126658761Y-119174000D01*
X126801619Y-119126380D01*
X126896857Y-119126380D01*
X127039714Y-119174000D01*
X127087333Y-119221619D01*
X127468285Y-119221619D02*
X127515904Y-119174000D01*
X127611142Y-119126380D01*
X127849238Y-119126380D01*
X127944476Y-119174000D01*
X127992095Y-119221619D01*
X128039714Y-119316857D01*
X128039714Y-119412095D01*
X127992095Y-119554952D01*
X127420666Y-120126380D01*
X128039714Y-120126380D01*
%TO.C,D1*%
X126261904Y-126524380D02*
X126261904Y-125524380D01*
X126500000Y-125524380D01*
X126642857Y-125572000D01*
X126738095Y-125667238D01*
X126785714Y-125762476D01*
X126833333Y-125952952D01*
X126833333Y-126095809D01*
X126785714Y-126286285D01*
X126738095Y-126381523D01*
X126642857Y-126476761D01*
X126500000Y-126524380D01*
X126261904Y-126524380D01*
X127785714Y-126524380D02*
X127214285Y-126524380D01*
X127500000Y-126524380D02*
X127500000Y-125524380D01*
X127404761Y-125667238D01*
X127309523Y-125762476D01*
X127214285Y-125810095D01*
%TO.C,U1*%
X147838095Y-98224380D02*
X147838095Y-99033904D01*
X147885714Y-99129142D01*
X147933333Y-99176761D01*
X148028571Y-99224380D01*
X148219047Y-99224380D01*
X148314285Y-99176761D01*
X148361904Y-99129142D01*
X148409523Y-99033904D01*
X148409523Y-98224380D01*
X149409523Y-99224380D02*
X148838095Y-99224380D01*
X149123809Y-99224380D02*
X149123809Y-98224380D01*
X149028571Y-98367238D01*
X148933333Y-98462476D01*
X148838095Y-98510095D01*
%TO.C,R2*%
X135417333Y-127864380D02*
X135084000Y-127388190D01*
X134845904Y-127864380D02*
X134845904Y-126864380D01*
X135226857Y-126864380D01*
X135322095Y-126912000D01*
X135369714Y-126959619D01*
X135417333Y-127054857D01*
X135417333Y-127197714D01*
X135369714Y-127292952D01*
X135322095Y-127340571D01*
X135226857Y-127388190D01*
X134845904Y-127388190D01*
X135798285Y-126959619D02*
X135845904Y-126912000D01*
X135941142Y-126864380D01*
X136179238Y-126864380D01*
X136274476Y-126912000D01*
X136322095Y-126959619D01*
X136369714Y-127054857D01*
X136369714Y-127150095D01*
X136322095Y-127292952D01*
X135750666Y-127864380D01*
X136369714Y-127864380D01*
%TO.C,C3*%
X127087333Y-114697142D02*
X127039714Y-114744761D01*
X126896857Y-114792380D01*
X126801619Y-114792380D01*
X126658761Y-114744761D01*
X126563523Y-114649523D01*
X126515904Y-114554285D01*
X126468285Y-114363809D01*
X126468285Y-114220952D01*
X126515904Y-114030476D01*
X126563523Y-113935238D01*
X126658761Y-113840000D01*
X126801619Y-113792380D01*
X126896857Y-113792380D01*
X127039714Y-113840000D01*
X127087333Y-113887619D01*
X127420666Y-113792380D02*
X128039714Y-113792380D01*
X127706380Y-114173333D01*
X127849238Y-114173333D01*
X127944476Y-114220952D01*
X127992095Y-114268571D01*
X128039714Y-114363809D01*
X128039714Y-114601904D01*
X127992095Y-114697142D01*
X127944476Y-114744761D01*
X127849238Y-114792380D01*
X127563523Y-114792380D01*
X127468285Y-114744761D01*
X127420666Y-114697142D01*
D11*
%TO.C,Y1*%
X132857000Y-122515000D02*
X132857000Y-116265000D01*
X137907000Y-122515000D02*
X137907000Y-116265000D01*
X132857000Y-122515000D02*
G75*
G03*
X137907000Y-122515000I2525000J0D01*
G01*
X137907000Y-116265000D02*
G75*
G03*
X132857000Y-116265000I-2525000J0D01*
G01*
%TO.C,C2*%
X129724000Y-123229000D02*
X129724000Y-123544000D01*
X129724000Y-120804000D02*
X129724000Y-121119000D01*
X124784000Y-123229000D02*
X124784000Y-123544000D01*
X124784000Y-120804000D02*
X129724000Y-120804000D01*
X124784000Y-120804000D02*
X124784000Y-121119000D01*
X124784000Y-123544000D02*
X129724000Y-123544000D01*
%TO.C,D1*%
X125440000Y-127796000D02*
X125440000Y-127952000D01*
X125440000Y-130112000D02*
X125440000Y-130268000D01*
X128041130Y-127952163D02*
G75*
G03*
X125959039Y-127952000I-1041130J-1079837D01*
G01*
X125959039Y-130112000D02*
G75*
G03*
X128041130Y-130111837I1040961J1080000D01*
G01*
X125440000Y-130267516D02*
G75*
G03*
X128672335Y-130110608I1560000J1235516D01*
G01*
X128672335Y-127953392D02*
G75*
G03*
X125440000Y-127796484I-1672335J-1078608D01*
G01*
%TO.C,U1*%
X145950000Y-99772000D02*
X145950000Y-135452000D01*
X151250000Y-135452000D02*
X151250000Y-99772000D01*
X151250000Y-99772000D02*
X149600000Y-99772000D01*
X145950000Y-135452000D02*
X151250000Y-135452000D01*
X147600000Y-99772000D02*
X145950000Y-99772000D01*
X147600000Y-99772000D02*
G75*
G03*
X149600000Y-99772000I1000000J0D01*
G01*
%TO.C,C1*%
X132996000Y-110166000D02*
X132996000Y-105226000D01*
X135736000Y-110166000D02*
X135736000Y-105226000D01*
X135421000Y-110166000D02*
X135736000Y-110166000D01*
X135421000Y-105226000D02*
X135736000Y-105226000D01*
X132996000Y-105226000D02*
X133311000Y-105226000D01*
X132996000Y-110166000D02*
X133311000Y-110166000D01*
%TO.C,R2*%
X132314000Y-128412000D02*
X138854000Y-128412000D01*
X132314000Y-128742000D02*
X132314000Y-128412000D01*
X132314000Y-131152000D02*
X138854000Y-131152000D01*
X138854000Y-131152000D02*
X138854000Y-130822000D01*
X132314000Y-130822000D02*
X132314000Y-131152000D01*
X138854000Y-128412000D02*
X138854000Y-128742000D01*
%TO.C,C3*%
X129724000Y-115470000D02*
X129724000Y-115785000D01*
X124784000Y-115470000D02*
X124784000Y-115785000D01*
X129724000Y-117895000D02*
X129724000Y-118210000D01*
X124784000Y-115470000D02*
X129724000Y-115470000D01*
X124784000Y-117895000D02*
X124784000Y-118210000D01*
X124784000Y-118210000D02*
X129724000Y-118210000D01*
%TO.C,R1*%
X132104000Y-109696000D02*
X132434000Y-109696000D01*
X132434000Y-103156000D02*
X132104000Y-103156000D01*
X129694000Y-109696000D02*
X129694000Y-103156000D01*
X130024000Y-109696000D02*
X129694000Y-109696000D01*
X132434000Y-109696000D02*
X132434000Y-103156000D01*
X129694000Y-103156000D02*
X130024000Y-103156000D01*
%TD*%
M02*
