%TF.GenerationSoftware,KiCad,Pcbnew,(6.0.7-1)-1*%
%TF.CreationDate,2022-08-08T07:57:12-05:00*%
%TF.ProjectId,Adafruit NeoPixel 8 Stick,41646166-7275-4697-9420-4e656f506978,rev?*%
%TF.SameCoordinates,Original*%
%TF.FileFunction,Copper,L2,Bot*%
%TF.FilePolarity,Positive*%
%FSLAX46Y46*%
G04 Gerber Fmt 4.6, Leading zero omitted, Abs format (unit mm)*
G04 Created by KiCad (PCBNEW (6.0.7-1)-1) date 2022-08-08 07:57:12*
%MOMM*%
%LPD*%
G01*
G04 APERTURE LIST*
%TA.AperFunction,ComponentPad*%
%ADD10C,1.500000*%
%TD*%
%TA.AperFunction,ComponentPad*%
%ADD11C,1.600000*%
%TD*%
%TA.AperFunction,ComponentPad*%
%ADD12R,1.800000X1.800000*%
%TD*%
%TA.AperFunction,ComponentPad*%
%ADD13C,1.800000*%
%TD*%
%TA.AperFunction,ComponentPad*%
%ADD14R,1.600000X1.600000*%
%TD*%
%TA.AperFunction,ComponentPad*%
%ADD15O,1.600000X1.600000*%
%TD*%
%TA.AperFunction,SMDPad,CuDef*%
%ADD16R,1.500000X3.800000*%
%TD*%
%TA.AperFunction,ViaPad*%
%ADD17C,0.800000*%
%TD*%
%TA.AperFunction,Conductor*%
%ADD18C,0.250000*%
%TD*%
G04 APERTURE END LIST*
D10*
%TO.P,Y1,1,1*%
%TO.N,Net-(C2-Pad2)*%
X135382000Y-121830000D03*
%TO.P,Y1,2,2*%
%TO.N,Net-(C3-Pad2)*%
X135382000Y-116950000D03*
%TD*%
D11*
%TO.P,C2,1*%
%TO.N,GND*%
X124754000Y-122174000D03*
%TO.P,C2,2*%
%TO.N,Net-(C2-Pad2)*%
X129754000Y-122174000D03*
%TD*%
D12*
%TO.P,D1,1,K*%
%TO.N,GND*%
X125730000Y-129032000D03*
D13*
%TO.P,D1,2,A*%
%TO.N,Net-(D1-Pad2)*%
X128270000Y-129032000D03*
%TD*%
D14*
%TO.P,U1,1,~{RESET}/PC6*%
%TO.N,Net-(R1-Pad2)*%
X144790000Y-101102000D03*
D15*
%TO.P,U1,2,PD0*%
%TO.N,unconnected-(U1-Pad2)*%
X144790000Y-103642000D03*
%TO.P,U1,3,PD1*%
%TO.N,unconnected-(U1-Pad3)*%
X144790000Y-106182000D03*
%TO.P,U1,4,PD2*%
%TO.N,/LED DATA*%
X144790000Y-108722000D03*
%TO.P,U1,5,PD3*%
%TO.N,unconnected-(U1-Pad5)*%
X144790000Y-111262000D03*
%TO.P,U1,6,PD4*%
%TO.N,unconnected-(U1-Pad6)*%
X144790000Y-113802000D03*
%TO.P,U1,7,VCC*%
%TO.N,+5V*%
X144790000Y-116342000D03*
%TO.P,U1,8,GND*%
%TO.N,GND*%
X144790000Y-118882000D03*
%TO.P,U1,9,XTAL1/PB6*%
%TO.N,Net-(C3-Pad2)*%
X144790000Y-121422000D03*
%TO.P,U1,10,XTAL2/PB7*%
%TO.N,Net-(C2-Pad2)*%
X144790000Y-123962000D03*
%TO.P,U1,11,PD5*%
%TO.N,unconnected-(U1-Pad11)*%
X144790000Y-126502000D03*
%TO.P,U1,12,PD6*%
%TO.N,unconnected-(U1-Pad12)*%
X144790000Y-129042000D03*
%TO.P,U1,13,PD7*%
%TO.N,unconnected-(U1-Pad13)*%
X144790000Y-131582000D03*
%TO.P,U1,14,PB0*%
%TO.N,unconnected-(U1-Pad14)*%
X144790000Y-134122000D03*
%TO.P,U1,15,PB1*%
%TO.N,unconnected-(U1-Pad15)*%
X152410000Y-134122000D03*
%TO.P,U1,16,PB2*%
%TO.N,unconnected-(U1-Pad16)*%
X152410000Y-131582000D03*
%TO.P,U1,17,PB3*%
%TO.N,unconnected-(U1-Pad17)*%
X152410000Y-129042000D03*
%TO.P,U1,18,PB4*%
%TO.N,unconnected-(U1-Pad18)*%
X152410000Y-126502000D03*
%TO.P,U1,19,PB5*%
%TO.N,Net-(R2-Pad2)*%
X152410000Y-123962000D03*
%TO.P,U1,20,AVCC*%
%TO.N,unconnected-(U1-Pad20)*%
X152410000Y-121422000D03*
%TO.P,U1,21,AREF*%
%TO.N,unconnected-(U1-Pad21)*%
X152410000Y-118882000D03*
%TO.P,U1,22,GND*%
%TO.N,GND*%
X152410000Y-116342000D03*
%TO.P,U1,23,PC0*%
%TO.N,unconnected-(U1-Pad23)*%
X152410000Y-113802000D03*
%TO.P,U1,24,PC1*%
%TO.N,unconnected-(U1-Pad24)*%
X152410000Y-111262000D03*
%TO.P,U1,25,PC2*%
%TO.N,unconnected-(U1-Pad25)*%
X152410000Y-108722000D03*
%TO.P,U1,26,PC3*%
%TO.N,unconnected-(U1-Pad26)*%
X152410000Y-106182000D03*
%TO.P,U1,27,PC4*%
%TO.N,/SDA*%
X152410000Y-103642000D03*
%TO.P,U1,28,PC5*%
%TO.N,/SCL*%
X152410000Y-101102000D03*
%TD*%
D11*
%TO.P,C1,1*%
%TO.N,+5V*%
X134366000Y-110196000D03*
%TO.P,C1,2*%
%TO.N,GND*%
X134366000Y-105196000D03*
%TD*%
%TO.P,R2,1*%
%TO.N,Net-(D1-Pad2)*%
X131774000Y-129782000D03*
D15*
%TO.P,R2,2*%
%TO.N,Net-(R2-Pad2)*%
X139394000Y-129782000D03*
%TD*%
D11*
%TO.P,C3,1*%
%TO.N,GND*%
X124754000Y-116840000D03*
%TO.P,C3,2*%
%TO.N,Net-(C3-Pad2)*%
X129754000Y-116840000D03*
%TD*%
%TO.P,R1,1*%
%TO.N,+5V*%
X131064000Y-110236000D03*
D15*
%TO.P,R1,2*%
%TO.N,Net-(R1-Pad2)*%
X131064000Y-102616000D03*
%TD*%
D16*
%TO.P,CN2,1,1*%
%TO.N,GND*%
X147034000Y-93726000D03*
%TO.P,CN2,2,2*%
%TO.N,+5V*%
X144034000Y-93726000D03*
%TO.P,CN2,3,3*%
%TO.N,/LED DATA*%
X140874000Y-93726000D03*
%TO.P,CN2,4,4*%
%TO.N,GND*%
X137874000Y-93726000D03*
%TO.P,CN2,5,5*%
%TO.N,/SDA*%
X134874000Y-93726000D03*
%TO.P,CN2,6,6*%
%TO.N,/SCL*%
X131874000Y-93726000D03*
%TD*%
D17*
%TO.N,+5V*%
X142494000Y-95250000D03*
%TO.N,/SCL*%
X133350000Y-93726000D03*
%TO.N,Net-(R1-Pad2)*%
X139398600Y-102314600D03*
%TD*%
D18*
%TO.N,+5V*%
X144018000Y-93726000D02*
X142494000Y-95250000D01*
%TO.N,/LED DATA*%
X140874000Y-104806000D02*
X140874000Y-93726000D01*
X144790000Y-108722000D02*
X140874000Y-104806000D01*
%TO.N,/SDA*%
X153538200Y-96923800D02*
X153538200Y-102513800D01*
X148112200Y-91497800D02*
X153538200Y-96923800D01*
X139795800Y-91497800D02*
X148112200Y-91497800D01*
X139757800Y-95954200D02*
X139757800Y-91535800D01*
X153538200Y-102513800D02*
X152410000Y-103642000D01*
X139757800Y-91535800D02*
X139795800Y-91497800D01*
X136795800Y-95954200D02*
X139757800Y-95954200D01*
X134874000Y-94032400D02*
X136795800Y-95954200D01*
%TO.N,/SCL*%
X133350000Y-93726000D02*
X131874000Y-93726000D01*
%TO.N,Net-(R1-Pad2)*%
X139097200Y-102616000D02*
X131064000Y-102616000D01*
X139398600Y-102314600D02*
X139097200Y-102616000D01*
%TD*%
%TA.AperFunction,Conductor*%
%TO.N,GND*%
G36*
X139739764Y-89941501D02*
G01*
X150132471Y-89941501D01*
X150200592Y-89961503D01*
X150226179Y-89983271D01*
X151949190Y-91900158D01*
X156634027Y-97112142D01*
X156914208Y-97423850D01*
X156944871Y-97487883D01*
X156946500Y-97508080D01*
X156946500Y-137262500D01*
X156926498Y-137330621D01*
X156872842Y-137377114D01*
X156820500Y-137388500D01*
X122579500Y-137388500D01*
X122511379Y-137368498D01*
X122464886Y-137314842D01*
X122453500Y-137262500D01*
X122453500Y-134107918D01*
X143781542Y-134107918D01*
X143798013Y-134304064D01*
X143799712Y-134309989D01*
X143811557Y-134351296D01*
X143852268Y-134493274D01*
X143855087Y-134498759D01*
X143939424Y-134662861D01*
X143939427Y-134662866D01*
X143942242Y-134668343D01*
X144064506Y-134822602D01*
X144214403Y-134950175D01*
X144386226Y-135046203D01*
X144392085Y-135048107D01*
X144392088Y-135048108D01*
X144452201Y-135067640D01*
X144573427Y-135107029D01*
X144579537Y-135107758D01*
X144579539Y-135107758D01*
X144646203Y-135115707D01*
X144768878Y-135130335D01*
X144775013Y-135129863D01*
X144775015Y-135129863D01*
X144958992Y-135115707D01*
X144958996Y-135115706D01*
X144965134Y-135115234D01*
X145154719Y-135062301D01*
X145330411Y-134973552D01*
X145360333Y-134950175D01*
X145480659Y-134856166D01*
X145480660Y-134856165D01*
X145485520Y-134852368D01*
X145614136Y-134703364D01*
X145617180Y-134698006D01*
X145708316Y-134537580D01*
X145708318Y-134537575D01*
X145711362Y-134532217D01*
X145773493Y-134345444D01*
X145779496Y-134297922D01*
X145797721Y-134153664D01*
X145797722Y-134153655D01*
X145798163Y-134150161D01*
X145798556Y-134122000D01*
X145797175Y-134107918D01*
X151401542Y-134107918D01*
X151418013Y-134304064D01*
X151419712Y-134309989D01*
X151431557Y-134351296D01*
X151472268Y-134493274D01*
X151475087Y-134498759D01*
X151559424Y-134662861D01*
X151559427Y-134662866D01*
X151562242Y-134668343D01*
X151684506Y-134822602D01*
X151834403Y-134950175D01*
X152006226Y-135046203D01*
X152012085Y-135048107D01*
X152012088Y-135048108D01*
X152072201Y-135067640D01*
X152193427Y-135107029D01*
X152199537Y-135107758D01*
X152199539Y-135107758D01*
X152266203Y-135115707D01*
X152388878Y-135130335D01*
X152395013Y-135129863D01*
X152395015Y-135129863D01*
X152578992Y-135115707D01*
X152578996Y-135115706D01*
X152585134Y-135115234D01*
X152774719Y-135062301D01*
X152950411Y-134973552D01*
X152980333Y-134950175D01*
X153100659Y-134856166D01*
X153100660Y-134856165D01*
X153105520Y-134852368D01*
X153234136Y-134703364D01*
X153237180Y-134698006D01*
X153328316Y-134537580D01*
X153328318Y-134537575D01*
X153331362Y-134532217D01*
X153393493Y-134345444D01*
X153399496Y-134297922D01*
X153417721Y-134153664D01*
X153417722Y-134153655D01*
X153418163Y-134150161D01*
X153418556Y-134122000D01*
X153399348Y-133926104D01*
X153397031Y-133918428D01*
X153344237Y-133743569D01*
X153342456Y-133737669D01*
X153250048Y-133563874D01*
X153180182Y-133478210D01*
X153129537Y-133416112D01*
X153129534Y-133416109D01*
X153125642Y-133411337D01*
X153120893Y-133407408D01*
X152978727Y-133289798D01*
X152978723Y-133289796D01*
X152973977Y-133285869D01*
X152800831Y-133192249D01*
X152706815Y-133163147D01*
X152618685Y-133135866D01*
X152618682Y-133135865D01*
X152612798Y-133134044D01*
X152606673Y-133133400D01*
X152606672Y-133133400D01*
X152423169Y-133114113D01*
X152423168Y-133114113D01*
X152417041Y-133113469D01*
X152344275Y-133120091D01*
X152227153Y-133130749D01*
X152227149Y-133130750D01*
X152221015Y-133131308D01*
X152032188Y-133186883D01*
X151857752Y-133278076D01*
X151704350Y-133401414D01*
X151577827Y-133552199D01*
X151483001Y-133724688D01*
X151423483Y-133912309D01*
X151401542Y-134107918D01*
X145797175Y-134107918D01*
X145779348Y-133926104D01*
X145777031Y-133918428D01*
X145724237Y-133743569D01*
X145722456Y-133737669D01*
X145630048Y-133563874D01*
X145560182Y-133478210D01*
X145509537Y-133416112D01*
X145509534Y-133416109D01*
X145505642Y-133411337D01*
X145500893Y-133407408D01*
X145358727Y-133289798D01*
X145358723Y-133289796D01*
X145353977Y-133285869D01*
X145180831Y-133192249D01*
X145086815Y-133163147D01*
X144998685Y-133135866D01*
X144998682Y-133135865D01*
X144992798Y-133134044D01*
X144986673Y-133133400D01*
X144986672Y-133133400D01*
X144803169Y-133114113D01*
X144803168Y-133114113D01*
X144797041Y-133113469D01*
X144724275Y-133120091D01*
X144607153Y-133130749D01*
X144607149Y-133130750D01*
X144601015Y-133131308D01*
X144412188Y-133186883D01*
X144237752Y-133278076D01*
X144084350Y-133401414D01*
X143957827Y-133552199D01*
X143863001Y-133724688D01*
X143803483Y-133912309D01*
X143781542Y-134107918D01*
X122453500Y-134107918D01*
X122453500Y-131567918D01*
X143781542Y-131567918D01*
X143798013Y-131764064D01*
X143799712Y-131769989D01*
X143811557Y-131811296D01*
X143852268Y-131953274D01*
X143855087Y-131958759D01*
X143939424Y-132122861D01*
X143939427Y-132122866D01*
X143942242Y-132128343D01*
X144064506Y-132282602D01*
X144214403Y-132410175D01*
X144386226Y-132506203D01*
X144392085Y-132508107D01*
X144392088Y-132508108D01*
X144452201Y-132527640D01*
X144573427Y-132567029D01*
X144579537Y-132567758D01*
X144579539Y-132567758D01*
X144646203Y-132575707D01*
X144768878Y-132590335D01*
X144775013Y-132589863D01*
X144775015Y-132589863D01*
X144958992Y-132575707D01*
X144958996Y-132575706D01*
X144965134Y-132575234D01*
X145154719Y-132522301D01*
X145330411Y-132433552D01*
X145360333Y-132410175D01*
X145480659Y-132316166D01*
X145480660Y-132316165D01*
X145485520Y-132312368D01*
X145614136Y-132163364D01*
X145617180Y-132158006D01*
X145708316Y-131997580D01*
X145708318Y-131997575D01*
X145711362Y-131992217D01*
X145773493Y-131805444D01*
X145779496Y-131757922D01*
X145797721Y-131613664D01*
X145797722Y-131613655D01*
X145798163Y-131610161D01*
X145798556Y-131582000D01*
X145797175Y-131567918D01*
X151401542Y-131567918D01*
X151418013Y-131764064D01*
X151419712Y-131769989D01*
X151431557Y-131811296D01*
X151472268Y-131953274D01*
X151475087Y-131958759D01*
X151559424Y-132122861D01*
X151559427Y-132122866D01*
X151562242Y-132128343D01*
X151684506Y-132282602D01*
X151834403Y-132410175D01*
X152006226Y-132506203D01*
X152012085Y-132508107D01*
X152012088Y-132508108D01*
X152072201Y-132527640D01*
X152193427Y-132567029D01*
X152199537Y-132567758D01*
X152199539Y-132567758D01*
X152266203Y-132575707D01*
X152388878Y-132590335D01*
X152395013Y-132589863D01*
X152395015Y-132589863D01*
X152578992Y-132575707D01*
X152578996Y-132575706D01*
X152585134Y-132575234D01*
X152774719Y-132522301D01*
X152950411Y-132433552D01*
X152980333Y-132410175D01*
X153100659Y-132316166D01*
X153100660Y-132316165D01*
X153105520Y-132312368D01*
X153234136Y-132163364D01*
X153237180Y-132158006D01*
X153328316Y-131997580D01*
X153328318Y-131997575D01*
X153331362Y-131992217D01*
X153393493Y-131805444D01*
X153399496Y-131757922D01*
X153417721Y-131613664D01*
X153417722Y-131613655D01*
X153418163Y-131610161D01*
X153418556Y-131582000D01*
X153399348Y-131386104D01*
X153397031Y-131378428D01*
X153344237Y-131203569D01*
X153342456Y-131197669D01*
X153250048Y-131023874D01*
X153180182Y-130938210D01*
X153129537Y-130876112D01*
X153129534Y-130876109D01*
X153125642Y-130871337D01*
X153120893Y-130867408D01*
X152978727Y-130749798D01*
X152978723Y-130749796D01*
X152973977Y-130745869D01*
X152800831Y-130652249D01*
X152664910Y-130610175D01*
X152618685Y-130595866D01*
X152618682Y-130595865D01*
X152612798Y-130594044D01*
X152606673Y-130593400D01*
X152606672Y-130593400D01*
X152423169Y-130574113D01*
X152423168Y-130574113D01*
X152417041Y-130573469D01*
X152344275Y-130580091D01*
X152227153Y-130590749D01*
X152227149Y-130590750D01*
X152221015Y-130591308D01*
X152032188Y-130646883D01*
X151857752Y-130738076D01*
X151704350Y-130861414D01*
X151577827Y-131012199D01*
X151483001Y-131184688D01*
X151423483Y-131372309D01*
X151401542Y-131567918D01*
X145797175Y-131567918D01*
X145779348Y-131386104D01*
X145777031Y-131378428D01*
X145724237Y-131203569D01*
X145722456Y-131197669D01*
X145630048Y-131023874D01*
X145560182Y-130938210D01*
X145509537Y-130876112D01*
X145509534Y-130876109D01*
X145505642Y-130871337D01*
X145500893Y-130867408D01*
X145358727Y-130749798D01*
X145358723Y-130749796D01*
X145353977Y-130745869D01*
X145180831Y-130652249D01*
X145044910Y-130610175D01*
X144998685Y-130595866D01*
X144998682Y-130595865D01*
X144992798Y-130594044D01*
X144986673Y-130593400D01*
X144986672Y-130593400D01*
X144803169Y-130574113D01*
X144803168Y-130574113D01*
X144797041Y-130573469D01*
X144724275Y-130580091D01*
X144607153Y-130590749D01*
X144607149Y-130590750D01*
X144601015Y-130591308D01*
X144412188Y-130646883D01*
X144237752Y-130738076D01*
X144084350Y-130861414D01*
X143957827Y-131012199D01*
X143863001Y-131184688D01*
X143803483Y-131372309D01*
X143781542Y-131567918D01*
X122453500Y-131567918D01*
X122453500Y-129976669D01*
X124322001Y-129976669D01*
X124322371Y-129983490D01*
X124327895Y-130034352D01*
X124331521Y-130049604D01*
X124376676Y-130170054D01*
X124385214Y-130185649D01*
X124461715Y-130287724D01*
X124474276Y-130300285D01*
X124576351Y-130376786D01*
X124591946Y-130385324D01*
X124712394Y-130430478D01*
X124727649Y-130434105D01*
X124778514Y-130439631D01*
X124785328Y-130440000D01*
X125457885Y-130440000D01*
X125473124Y-130435525D01*
X125474329Y-130434135D01*
X125476000Y-130426452D01*
X125476000Y-130421884D01*
X125984000Y-130421884D01*
X125988475Y-130437123D01*
X125989865Y-130438328D01*
X125997548Y-130439999D01*
X126674669Y-130439999D01*
X126681490Y-130439629D01*
X126732352Y-130434105D01*
X126747604Y-130430479D01*
X126868054Y-130385324D01*
X126883649Y-130376786D01*
X126985724Y-130300285D01*
X126998285Y-130287724D01*
X127074786Y-130185649D01*
X127083324Y-130170054D01*
X127128478Y-130049606D01*
X127132105Y-130034351D01*
X127137631Y-129983486D01*
X127138000Y-129976672D01*
X127138000Y-129739338D01*
X127158002Y-129671217D01*
X127211658Y-129624724D01*
X127281932Y-129614620D01*
X127346512Y-129644114D01*
X127366897Y-129666618D01*
X127423809Y-129747147D01*
X127423814Y-129747153D01*
X127427145Y-129751866D01*
X127431281Y-129755895D01*
X127548593Y-129870175D01*
X127572444Y-129893410D01*
X127577240Y-129896615D01*
X127577243Y-129896617D01*
X127697050Y-129976669D01*
X127741104Y-130006105D01*
X127746407Y-130008383D01*
X127746410Y-130008385D01*
X127842354Y-130049606D01*
X127927477Y-130086178D01*
X127999661Y-130102511D01*
X128119684Y-130129670D01*
X128119689Y-130129671D01*
X128125321Y-130130945D01*
X128131092Y-130131172D01*
X128131094Y-130131172D01*
X128191668Y-130133552D01*
X128328011Y-130138909D01*
X128446263Y-130121763D01*
X128523035Y-130110632D01*
X128523039Y-130110631D01*
X128528757Y-130109802D01*
X128534229Y-130107944D01*
X128534231Y-130107944D01*
X128715374Y-130046454D01*
X128715376Y-130046453D01*
X128720838Y-130044599D01*
X128860826Y-129966203D01*
X128892784Y-129948306D01*
X128892785Y-129948305D01*
X128897821Y-129945485D01*
X129053777Y-129815777D01*
X129093581Y-129767918D01*
X130765542Y-129767918D01*
X130766058Y-129774062D01*
X130773794Y-129866182D01*
X130782013Y-129964064D01*
X130783712Y-129969989D01*
X130832149Y-130138909D01*
X130836268Y-130153274D01*
X130839087Y-130158759D01*
X130923424Y-130322861D01*
X130923427Y-130322866D01*
X130926242Y-130328343D01*
X131048506Y-130482602D01*
X131053200Y-130486597D01*
X131178693Y-130593400D01*
X131198403Y-130610175D01*
X131203781Y-130613181D01*
X131203783Y-130613182D01*
X131269191Y-130649737D01*
X131370226Y-130706203D01*
X131376085Y-130708107D01*
X131376088Y-130708108D01*
X131436201Y-130727640D01*
X131557427Y-130767029D01*
X131563537Y-130767758D01*
X131563539Y-130767758D01*
X131630203Y-130775707D01*
X131752878Y-130790335D01*
X131759013Y-130789863D01*
X131759015Y-130789863D01*
X131942992Y-130775707D01*
X131942996Y-130775706D01*
X131949134Y-130775234D01*
X132138719Y-130722301D01*
X132314411Y-130633552D01*
X132344333Y-130610175D01*
X132464659Y-130516166D01*
X132464660Y-130516165D01*
X132469520Y-130512368D01*
X132598136Y-130363364D01*
X132601180Y-130358006D01*
X132692316Y-130197580D01*
X132692318Y-130197575D01*
X132695362Y-130192217D01*
X132757493Y-130005444D01*
X132771241Y-129896617D01*
X132781721Y-129813664D01*
X132781722Y-129813655D01*
X132782163Y-129810161D01*
X132782556Y-129782000D01*
X132781175Y-129767918D01*
X138385542Y-129767918D01*
X138386058Y-129774062D01*
X138393794Y-129866182D01*
X138402013Y-129964064D01*
X138403712Y-129969989D01*
X138452149Y-130138909D01*
X138456268Y-130153274D01*
X138459087Y-130158759D01*
X138543424Y-130322861D01*
X138543427Y-130322866D01*
X138546242Y-130328343D01*
X138668506Y-130482602D01*
X138673200Y-130486597D01*
X138798693Y-130593400D01*
X138818403Y-130610175D01*
X138823781Y-130613181D01*
X138823783Y-130613182D01*
X138889191Y-130649737D01*
X138990226Y-130706203D01*
X138996085Y-130708107D01*
X138996088Y-130708108D01*
X139056201Y-130727640D01*
X139177427Y-130767029D01*
X139183537Y-130767758D01*
X139183539Y-130767758D01*
X139250203Y-130775707D01*
X139372878Y-130790335D01*
X139379013Y-130789863D01*
X139379015Y-130789863D01*
X139562992Y-130775707D01*
X139562996Y-130775706D01*
X139569134Y-130775234D01*
X139758719Y-130722301D01*
X139934411Y-130633552D01*
X139964333Y-130610175D01*
X140084659Y-130516166D01*
X140084660Y-130516165D01*
X140089520Y-130512368D01*
X140218136Y-130363364D01*
X140221180Y-130358006D01*
X140312316Y-130197580D01*
X140312318Y-130197575D01*
X140315362Y-130192217D01*
X140377493Y-130005444D01*
X140391241Y-129896617D01*
X140401721Y-129813664D01*
X140401722Y-129813655D01*
X140402163Y-129810161D01*
X140402556Y-129782000D01*
X140383348Y-129586104D01*
X140381031Y-129578428D01*
X140328237Y-129403569D01*
X140326456Y-129397669D01*
X140234048Y-129223874D01*
X140127869Y-129093685D01*
X140113537Y-129076112D01*
X140113534Y-129076109D01*
X140109642Y-129071337D01*
X140103961Y-129066637D01*
X140057158Y-129027918D01*
X143781542Y-129027918D01*
X143782058Y-129034062D01*
X143797017Y-129212199D01*
X143798013Y-129224064D01*
X143799712Y-129229989D01*
X143849036Y-129402001D01*
X143852268Y-129413274D01*
X143855087Y-129418759D01*
X143939424Y-129582861D01*
X143939427Y-129582866D01*
X143942242Y-129588343D01*
X144064506Y-129742602D01*
X144069200Y-129746597D01*
X144114917Y-129785505D01*
X144214403Y-129870175D01*
X144219781Y-129873181D01*
X144219783Y-129873182D01*
X144326590Y-129932874D01*
X144386226Y-129966203D01*
X144392085Y-129968107D01*
X144392088Y-129968108D01*
X144452201Y-129987640D01*
X144573427Y-130027029D01*
X144579537Y-130027758D01*
X144579539Y-130027758D01*
X144646203Y-130035707D01*
X144768878Y-130050335D01*
X144775013Y-130049863D01*
X144775015Y-130049863D01*
X144958992Y-130035707D01*
X144958996Y-130035706D01*
X144965134Y-130035234D01*
X145154719Y-129982301D01*
X145330411Y-129893552D01*
X145360333Y-129870175D01*
X145480659Y-129776166D01*
X145480660Y-129776165D01*
X145485520Y-129772368D01*
X145614136Y-129623364D01*
X145617180Y-129618006D01*
X145708316Y-129457580D01*
X145708318Y-129457575D01*
X145711362Y-129452217D01*
X145773493Y-129265444D01*
X145781079Y-129205396D01*
X145797721Y-129073664D01*
X145797722Y-129073655D01*
X145798163Y-129070161D01*
X145798556Y-129042000D01*
X145797175Y-129027918D01*
X151401542Y-129027918D01*
X151402058Y-129034062D01*
X151417017Y-129212199D01*
X151418013Y-129224064D01*
X151419712Y-129229989D01*
X151469036Y-129402001D01*
X151472268Y-129413274D01*
X151475087Y-129418759D01*
X151559424Y-129582861D01*
X151559427Y-129582866D01*
X151562242Y-129588343D01*
X151684506Y-129742602D01*
X151689200Y-129746597D01*
X151734917Y-129785505D01*
X151834403Y-129870175D01*
X151839781Y-129873181D01*
X151839783Y-129873182D01*
X151946590Y-129932874D01*
X152006226Y-129966203D01*
X152012085Y-129968107D01*
X152012088Y-129968108D01*
X152072201Y-129987640D01*
X152193427Y-130027029D01*
X152199537Y-130027758D01*
X152199539Y-130027758D01*
X152266203Y-130035707D01*
X152388878Y-130050335D01*
X152395013Y-130049863D01*
X152395015Y-130049863D01*
X152578992Y-130035707D01*
X152578996Y-130035706D01*
X152585134Y-130035234D01*
X152774719Y-129982301D01*
X152950411Y-129893552D01*
X152980333Y-129870175D01*
X153100659Y-129776166D01*
X153100660Y-129776165D01*
X153105520Y-129772368D01*
X153234136Y-129623364D01*
X153237180Y-129618006D01*
X153328316Y-129457580D01*
X153328318Y-129457575D01*
X153331362Y-129452217D01*
X153393493Y-129265444D01*
X153401079Y-129205396D01*
X153417721Y-129073664D01*
X153417722Y-129073655D01*
X153418163Y-129070161D01*
X153418556Y-129042000D01*
X153399348Y-128846104D01*
X153397031Y-128838428D01*
X153344237Y-128663569D01*
X153342456Y-128657669D01*
X153250048Y-128483874D01*
X153137102Y-128345388D01*
X153129537Y-128336112D01*
X153129534Y-128336109D01*
X153125642Y-128331337D01*
X153120893Y-128327408D01*
X152978727Y-128209798D01*
X152978723Y-128209796D01*
X152973977Y-128205869D01*
X152800831Y-128112249D01*
X152698297Y-128080510D01*
X152618685Y-128055866D01*
X152618682Y-128055865D01*
X152612798Y-128054044D01*
X152606673Y-128053400D01*
X152606672Y-128053400D01*
X152423169Y-128034113D01*
X152423168Y-128034113D01*
X152417041Y-128033469D01*
X152344275Y-128040091D01*
X152227153Y-128050749D01*
X152227149Y-128050750D01*
X152221015Y-128051308D01*
X152032188Y-128106883D01*
X151857752Y-128198076D01*
X151704350Y-128321414D01*
X151577827Y-128472199D01*
X151483001Y-128644688D01*
X151423483Y-128832309D01*
X151401542Y-129027918D01*
X145797175Y-129027918D01*
X145779348Y-128846104D01*
X145777031Y-128838428D01*
X145724237Y-128663569D01*
X145722456Y-128657669D01*
X145630048Y-128483874D01*
X145517102Y-128345388D01*
X145509537Y-128336112D01*
X145509534Y-128336109D01*
X145505642Y-128331337D01*
X145500893Y-128327408D01*
X145358727Y-128209798D01*
X145358723Y-128209796D01*
X145353977Y-128205869D01*
X145180831Y-128112249D01*
X145078297Y-128080510D01*
X144998685Y-128055866D01*
X144998682Y-128055865D01*
X144992798Y-128054044D01*
X144986673Y-128053400D01*
X144986672Y-128053400D01*
X144803169Y-128034113D01*
X144803168Y-128034113D01*
X144797041Y-128033469D01*
X144724275Y-128040091D01*
X144607153Y-128050749D01*
X144607149Y-128050750D01*
X144601015Y-128051308D01*
X144412188Y-128106883D01*
X144237752Y-128198076D01*
X144084350Y-128321414D01*
X143957827Y-128472199D01*
X143863001Y-128644688D01*
X143803483Y-128832309D01*
X143781542Y-129027918D01*
X140057158Y-129027918D01*
X139962727Y-128949798D01*
X139962723Y-128949796D01*
X139957977Y-128945869D01*
X139784831Y-128852249D01*
X139690815Y-128823147D01*
X139602685Y-128795866D01*
X139602682Y-128795865D01*
X139596798Y-128794044D01*
X139590673Y-128793400D01*
X139590672Y-128793400D01*
X139407169Y-128774113D01*
X139407168Y-128774113D01*
X139401041Y-128773469D01*
X139351252Y-128778000D01*
X139211153Y-128790749D01*
X139211149Y-128790750D01*
X139205015Y-128791308D01*
X139016188Y-128846883D01*
X138841752Y-128938076D01*
X138688350Y-129061414D01*
X138561827Y-129212199D01*
X138467001Y-129384688D01*
X138407483Y-129572309D01*
X138385542Y-129767918D01*
X132781175Y-129767918D01*
X132763348Y-129586104D01*
X132761031Y-129578428D01*
X132708237Y-129403569D01*
X132706456Y-129397669D01*
X132614048Y-129223874D01*
X132507869Y-129093685D01*
X132493537Y-129076112D01*
X132493534Y-129076109D01*
X132489642Y-129071337D01*
X132483961Y-129066637D01*
X132342727Y-128949798D01*
X132342723Y-128949796D01*
X132337977Y-128945869D01*
X132164831Y-128852249D01*
X132070815Y-128823147D01*
X131982685Y-128795866D01*
X131982682Y-128795865D01*
X131976798Y-128794044D01*
X131970673Y-128793400D01*
X131970672Y-128793400D01*
X131787169Y-128774113D01*
X131787168Y-128774113D01*
X131781041Y-128773469D01*
X131731252Y-128778000D01*
X131591153Y-128790749D01*
X131591149Y-128790750D01*
X131585015Y-128791308D01*
X131396188Y-128846883D01*
X131221752Y-128938076D01*
X131068350Y-129061414D01*
X130941827Y-129212199D01*
X130847001Y-129384688D01*
X130787483Y-129572309D01*
X130765542Y-129767918D01*
X129093581Y-129767918D01*
X129183485Y-129659821D01*
X129282599Y-129482838D01*
X129292994Y-129452217D01*
X129345944Y-129296231D01*
X129345944Y-129296229D01*
X129347802Y-129290757D01*
X129351473Y-129265444D01*
X129376376Y-129093685D01*
X129376909Y-129090011D01*
X129378428Y-129032000D01*
X129359867Y-128830005D01*
X129349544Y-128793400D01*
X129340091Y-128759885D01*
X129304807Y-128634775D01*
X129215090Y-128452848D01*
X129116944Y-128321414D01*
X129097176Y-128294941D01*
X129097175Y-128294940D01*
X129093723Y-128290317D01*
X128944768Y-128152625D01*
X128773216Y-128044383D01*
X128767856Y-128042245D01*
X128767851Y-128042242D01*
X128590175Y-127971357D01*
X128584811Y-127969217D01*
X128579154Y-127968092D01*
X128579148Y-127968090D01*
X128391529Y-127930771D01*
X128391527Y-127930771D01*
X128385862Y-127929644D01*
X128380087Y-127929568D01*
X128380083Y-127929568D01*
X128278824Y-127928243D01*
X128183034Y-127926989D01*
X128177337Y-127927968D01*
X128177336Y-127927968D01*
X127988808Y-127960363D01*
X127988805Y-127960364D01*
X127983118Y-127961341D01*
X127792809Y-128031549D01*
X127708814Y-128081521D01*
X127623450Y-128132307D01*
X127623447Y-128132309D01*
X127618482Y-128135263D01*
X127614142Y-128139069D01*
X127614138Y-128139072D01*
X127470316Y-128265202D01*
X127465975Y-128269009D01*
X127462400Y-128273544D01*
X127462399Y-128273545D01*
X127362949Y-128399696D01*
X127305067Y-128440809D01*
X127234147Y-128444103D01*
X127172705Y-128408531D01*
X127140248Y-128345388D01*
X127137999Y-128321690D01*
X127137999Y-128087331D01*
X127137629Y-128080510D01*
X127132105Y-128029648D01*
X127128479Y-128014396D01*
X127083324Y-127893946D01*
X127074786Y-127878351D01*
X126998285Y-127776276D01*
X126985724Y-127763715D01*
X126883649Y-127687214D01*
X126868054Y-127678676D01*
X126747606Y-127633522D01*
X126732351Y-127629895D01*
X126681486Y-127624369D01*
X126674672Y-127624000D01*
X126002115Y-127624000D01*
X125986876Y-127628475D01*
X125985671Y-127629865D01*
X125984000Y-127637548D01*
X125984000Y-130421884D01*
X125476000Y-130421884D01*
X125476000Y-129304115D01*
X125471525Y-129288876D01*
X125470135Y-129287671D01*
X125462452Y-129286000D01*
X124340116Y-129286000D01*
X124324877Y-129290475D01*
X124323672Y-129291865D01*
X124322001Y-129299548D01*
X124322001Y-129976669D01*
X122453500Y-129976669D01*
X122453500Y-128759885D01*
X124322000Y-128759885D01*
X124326475Y-128775124D01*
X124327865Y-128776329D01*
X124335548Y-128778000D01*
X125457885Y-128778000D01*
X125473124Y-128773525D01*
X125474329Y-128772135D01*
X125476000Y-128764452D01*
X125476000Y-127642116D01*
X125471525Y-127626877D01*
X125470135Y-127625672D01*
X125462452Y-127624001D01*
X124785331Y-127624001D01*
X124778510Y-127624371D01*
X124727648Y-127629895D01*
X124712396Y-127633521D01*
X124591946Y-127678676D01*
X124576351Y-127687214D01*
X124474276Y-127763715D01*
X124461715Y-127776276D01*
X124385214Y-127878351D01*
X124376676Y-127893946D01*
X124331522Y-128014394D01*
X124327895Y-128029649D01*
X124322369Y-128080514D01*
X124322000Y-128087328D01*
X124322000Y-128759885D01*
X122453500Y-128759885D01*
X122453500Y-126487918D01*
X143781542Y-126487918D01*
X143798013Y-126684064D01*
X143799712Y-126689989D01*
X143811557Y-126731296D01*
X143852268Y-126873274D01*
X143855087Y-126878759D01*
X143939424Y-127042861D01*
X143939427Y-127042866D01*
X143942242Y-127048343D01*
X144064506Y-127202602D01*
X144214403Y-127330175D01*
X144386226Y-127426203D01*
X144392085Y-127428107D01*
X144392088Y-127428108D01*
X144452201Y-127447640D01*
X144573427Y-127487029D01*
X144579537Y-127487758D01*
X144579539Y-127487758D01*
X144646203Y-127495707D01*
X144768878Y-127510335D01*
X144775013Y-127509863D01*
X144775015Y-127509863D01*
X144958992Y-127495707D01*
X144958996Y-127495706D01*
X144965134Y-127495234D01*
X145154719Y-127442301D01*
X145330411Y-127353552D01*
X145360333Y-127330175D01*
X145480659Y-127236166D01*
X145480660Y-127236165D01*
X145485520Y-127232368D01*
X145614136Y-127083364D01*
X145617180Y-127078006D01*
X145708316Y-126917580D01*
X145708318Y-126917575D01*
X145711362Y-126912217D01*
X145773493Y-126725444D01*
X145779496Y-126677922D01*
X145797721Y-126533664D01*
X145797722Y-126533655D01*
X145798163Y-126530161D01*
X145798556Y-126502000D01*
X145797175Y-126487918D01*
X151401542Y-126487918D01*
X151418013Y-126684064D01*
X151419712Y-126689989D01*
X151431557Y-126731296D01*
X151472268Y-126873274D01*
X151475087Y-126878759D01*
X151559424Y-127042861D01*
X151559427Y-127042866D01*
X151562242Y-127048343D01*
X151684506Y-127202602D01*
X151834403Y-127330175D01*
X152006226Y-127426203D01*
X152012085Y-127428107D01*
X152012088Y-127428108D01*
X152072201Y-127447640D01*
X152193427Y-127487029D01*
X152199537Y-127487758D01*
X152199539Y-127487758D01*
X152266203Y-127495707D01*
X152388878Y-127510335D01*
X152395013Y-127509863D01*
X152395015Y-127509863D01*
X152578992Y-127495707D01*
X152578996Y-127495706D01*
X152585134Y-127495234D01*
X152774719Y-127442301D01*
X152950411Y-127353552D01*
X152980333Y-127330175D01*
X153100659Y-127236166D01*
X153100660Y-127236165D01*
X153105520Y-127232368D01*
X153234136Y-127083364D01*
X153237180Y-127078006D01*
X153328316Y-126917580D01*
X153328318Y-126917575D01*
X153331362Y-126912217D01*
X153393493Y-126725444D01*
X153399496Y-126677922D01*
X153417721Y-126533664D01*
X153417722Y-126533655D01*
X153418163Y-126530161D01*
X153418556Y-126502000D01*
X153399348Y-126306104D01*
X153397031Y-126298428D01*
X153344237Y-126123569D01*
X153342456Y-126117669D01*
X153250048Y-125943874D01*
X153180182Y-125858210D01*
X153129537Y-125796112D01*
X153129534Y-125796109D01*
X153125642Y-125791337D01*
X153120893Y-125787408D01*
X152978727Y-125669798D01*
X152978723Y-125669796D01*
X152973977Y-125665869D01*
X152800831Y-125572249D01*
X152706814Y-125543146D01*
X152618685Y-125515866D01*
X152618682Y-125515865D01*
X152612798Y-125514044D01*
X152606673Y-125513400D01*
X152606672Y-125513400D01*
X152423169Y-125494113D01*
X152423168Y-125494113D01*
X152417041Y-125493469D01*
X152344275Y-125500091D01*
X152227153Y-125510749D01*
X152227149Y-125510750D01*
X152221015Y-125511308D01*
X152032188Y-125566883D01*
X151857752Y-125658076D01*
X151704350Y-125781414D01*
X151577827Y-125932199D01*
X151483001Y-126104688D01*
X151423483Y-126292309D01*
X151401542Y-126487918D01*
X145797175Y-126487918D01*
X145779348Y-126306104D01*
X145777031Y-126298428D01*
X145724237Y-126123569D01*
X145722456Y-126117669D01*
X145630048Y-125943874D01*
X145560182Y-125858210D01*
X145509537Y-125796112D01*
X145509534Y-125796109D01*
X145505642Y-125791337D01*
X145500893Y-125787408D01*
X145358727Y-125669798D01*
X145358723Y-125669796D01*
X145353977Y-125665869D01*
X145180831Y-125572249D01*
X145086814Y-125543146D01*
X144998685Y-125515866D01*
X144998682Y-125515865D01*
X144992798Y-125514044D01*
X144986673Y-125513400D01*
X144986672Y-125513400D01*
X144803169Y-125494113D01*
X144803168Y-125494113D01*
X144797041Y-125493469D01*
X144724275Y-125500091D01*
X144607153Y-125510749D01*
X144607149Y-125510750D01*
X144601015Y-125511308D01*
X144412188Y-125566883D01*
X144237752Y-125658076D01*
X144084350Y-125781414D01*
X143957827Y-125932199D01*
X143863001Y-126104688D01*
X143803483Y-126292309D01*
X143781542Y-126487918D01*
X122453500Y-126487918D01*
X122453500Y-123947918D01*
X143781542Y-123947918D01*
X143798013Y-124144064D01*
X143799712Y-124149989D01*
X143811557Y-124191296D01*
X143852268Y-124333274D01*
X143855087Y-124338759D01*
X143939424Y-124502861D01*
X143939427Y-124502866D01*
X143942242Y-124508343D01*
X144064506Y-124662602D01*
X144214403Y-124790175D01*
X144386226Y-124886203D01*
X144392085Y-124888107D01*
X144392088Y-124888108D01*
X144452201Y-124907640D01*
X144573427Y-124947029D01*
X144579537Y-124947758D01*
X144579539Y-124947758D01*
X144646203Y-124955707D01*
X144768878Y-124970335D01*
X144775013Y-124969863D01*
X144775015Y-124969863D01*
X144958992Y-124955707D01*
X144958996Y-124955706D01*
X144965134Y-124955234D01*
X145154719Y-124902301D01*
X145330411Y-124813552D01*
X145360333Y-124790175D01*
X145480659Y-124696166D01*
X145480660Y-124696165D01*
X145485520Y-124692368D01*
X145614136Y-124543364D01*
X145617180Y-124538006D01*
X145708316Y-124377580D01*
X145708318Y-124377575D01*
X145711362Y-124372217D01*
X145773493Y-124185444D01*
X145779496Y-124137922D01*
X145797721Y-123993664D01*
X145797722Y-123993655D01*
X145798163Y-123990161D01*
X145798556Y-123962000D01*
X145797175Y-123947918D01*
X151401542Y-123947918D01*
X151418013Y-124144064D01*
X151419712Y-124149989D01*
X151431557Y-124191296D01*
X151472268Y-124333274D01*
X151475087Y-124338759D01*
X151559424Y-124502861D01*
X151559427Y-124502866D01*
X151562242Y-124508343D01*
X151684506Y-124662602D01*
X151834403Y-124790175D01*
X152006226Y-124886203D01*
X152012085Y-124888107D01*
X152012088Y-124888108D01*
X152072201Y-124907640D01*
X152193427Y-124947029D01*
X152199537Y-124947758D01*
X152199539Y-124947758D01*
X152266203Y-124955707D01*
X152388878Y-124970335D01*
X152395013Y-124969863D01*
X152395015Y-124969863D01*
X152578992Y-124955707D01*
X152578996Y-124955706D01*
X152585134Y-124955234D01*
X152774719Y-124902301D01*
X152950411Y-124813552D01*
X152980333Y-124790175D01*
X153100659Y-124696166D01*
X153100660Y-124696165D01*
X153105520Y-124692368D01*
X153234136Y-124543364D01*
X153237180Y-124538006D01*
X153328316Y-124377580D01*
X153328318Y-124377575D01*
X153331362Y-124372217D01*
X153393493Y-124185444D01*
X153399496Y-124137922D01*
X153417721Y-123993664D01*
X153417722Y-123993655D01*
X153418163Y-123990161D01*
X153418556Y-123962000D01*
X153399348Y-123766104D01*
X153397031Y-123758428D01*
X153344237Y-123583569D01*
X153342456Y-123577669D01*
X153250048Y-123403874D01*
X153171799Y-123307931D01*
X153129537Y-123256112D01*
X153129534Y-123256109D01*
X153125642Y-123251337D01*
X153120893Y-123247408D01*
X152978727Y-123129798D01*
X152978723Y-123129796D01*
X152973977Y-123125869D01*
X152800831Y-123032249D01*
X152690777Y-122998182D01*
X152618685Y-122975866D01*
X152618682Y-122975865D01*
X152612798Y-122974044D01*
X152606673Y-122973400D01*
X152606672Y-122973400D01*
X152423169Y-122954113D01*
X152423168Y-122954113D01*
X152417041Y-122953469D01*
X152344275Y-122960091D01*
X152227153Y-122970749D01*
X152227149Y-122970750D01*
X152221015Y-122971308D01*
X152032188Y-123026883D01*
X151857752Y-123118076D01*
X151704350Y-123241414D01*
X151577827Y-123392199D01*
X151483001Y-123564688D01*
X151423483Y-123752309D01*
X151401542Y-123947918D01*
X145797175Y-123947918D01*
X145779348Y-123766104D01*
X145777031Y-123758428D01*
X145724237Y-123583569D01*
X145722456Y-123577669D01*
X145630048Y-123403874D01*
X145551799Y-123307931D01*
X145509537Y-123256112D01*
X145509534Y-123256109D01*
X145505642Y-123251337D01*
X145500893Y-123247408D01*
X145358727Y-123129798D01*
X145358723Y-123129796D01*
X145353977Y-123125869D01*
X145180831Y-123032249D01*
X145070777Y-122998182D01*
X144998685Y-122975866D01*
X144998682Y-122975865D01*
X144992798Y-122974044D01*
X144986673Y-122973400D01*
X144986672Y-122973400D01*
X144803169Y-122954113D01*
X144803168Y-122954113D01*
X144797041Y-122953469D01*
X144724275Y-122960091D01*
X144607153Y-122970749D01*
X144607149Y-122970750D01*
X144601015Y-122971308D01*
X144412188Y-123026883D01*
X144237752Y-123118076D01*
X144084350Y-123241414D01*
X143957827Y-123392199D01*
X143863001Y-123564688D01*
X143803483Y-123752309D01*
X143781542Y-123947918D01*
X122453500Y-123947918D01*
X122453500Y-123260062D01*
X124032493Y-123260062D01*
X124041789Y-123272077D01*
X124092994Y-123307931D01*
X124102489Y-123313414D01*
X124299947Y-123405490D01*
X124310239Y-123409236D01*
X124520688Y-123465625D01*
X124531481Y-123467528D01*
X124748525Y-123486517D01*
X124759475Y-123486517D01*
X124976519Y-123467528D01*
X124987312Y-123465625D01*
X125197761Y-123409236D01*
X125208053Y-123405490D01*
X125405511Y-123313414D01*
X125415006Y-123307931D01*
X125467048Y-123271491D01*
X125475424Y-123261012D01*
X125468356Y-123247566D01*
X124766812Y-122546022D01*
X124752868Y-122538408D01*
X124751035Y-122538539D01*
X124744420Y-122542790D01*
X124038923Y-123248287D01*
X124032493Y-123260062D01*
X122453500Y-123260062D01*
X122453500Y-122179475D01*
X123441483Y-122179475D01*
X123460472Y-122396519D01*
X123462375Y-122407312D01*
X123518764Y-122617761D01*
X123522510Y-122628053D01*
X123614586Y-122825511D01*
X123620069Y-122835006D01*
X123656509Y-122887048D01*
X123666988Y-122895424D01*
X123680434Y-122888356D01*
X124381978Y-122186812D01*
X124388356Y-122175132D01*
X125118408Y-122175132D01*
X125118539Y-122176965D01*
X125122790Y-122183580D01*
X125828287Y-122889077D01*
X125840062Y-122895507D01*
X125852077Y-122886211D01*
X125887931Y-122835006D01*
X125893414Y-122825511D01*
X125985490Y-122628053D01*
X125989236Y-122617761D01*
X126045625Y-122407312D01*
X126047528Y-122396519D01*
X126066517Y-122179475D01*
X126066517Y-122168525D01*
X126065764Y-122159918D01*
X128745542Y-122159918D01*
X128747019Y-122177505D01*
X128760971Y-122343650D01*
X128762013Y-122356064D01*
X128763712Y-122361989D01*
X128814337Y-122538539D01*
X128816268Y-122545274D01*
X128819087Y-122550759D01*
X128903424Y-122714861D01*
X128903427Y-122714866D01*
X128906242Y-122720343D01*
X129028506Y-122874602D01*
X129033200Y-122878597D01*
X129144593Y-122973400D01*
X129178403Y-123002175D01*
X129183781Y-123005181D01*
X129183783Y-123005182D01*
X129228954Y-123030427D01*
X129350226Y-123098203D01*
X129356085Y-123100107D01*
X129356088Y-123100108D01*
X129411388Y-123118076D01*
X129537427Y-123159029D01*
X129543537Y-123159758D01*
X129543539Y-123159758D01*
X129610203Y-123167707D01*
X129732878Y-123182335D01*
X129739013Y-123181863D01*
X129739015Y-123181863D01*
X129922992Y-123167707D01*
X129922996Y-123167706D01*
X129929134Y-123167234D01*
X130118719Y-123114301D01*
X130294411Y-123025552D01*
X130324333Y-123002175D01*
X130444659Y-122908166D01*
X130444660Y-122908165D01*
X130449520Y-122904368D01*
X130578136Y-122755364D01*
X130581180Y-122750006D01*
X130672316Y-122589580D01*
X130672318Y-122589575D01*
X130675362Y-122584217D01*
X130737493Y-122397444D01*
X130744346Y-122343195D01*
X130761721Y-122205664D01*
X130761722Y-122205655D01*
X130762163Y-122202161D01*
X130762556Y-122174000D01*
X130743348Y-121978104D01*
X130741031Y-121970428D01*
X130699302Y-121832217D01*
X130694593Y-121816620D01*
X134423778Y-121816620D01*
X134424294Y-121822763D01*
X134435688Y-121958440D01*
X134439429Y-122002994D01*
X134441128Y-122008919D01*
X134488464Y-122174000D01*
X134490981Y-122182779D01*
X134493797Y-122188258D01*
X134539060Y-122276330D01*
X134576472Y-122349127D01*
X134692646Y-122495702D01*
X134697339Y-122499696D01*
X134697340Y-122499697D01*
X134802953Y-122589580D01*
X134835077Y-122616920D01*
X134840455Y-122619926D01*
X134840457Y-122619927D01*
X134916708Y-122662542D01*
X134998340Y-122708164D01*
X135176216Y-122765960D01*
X135361931Y-122788105D01*
X135368066Y-122787633D01*
X135368068Y-122787633D01*
X135542268Y-122774229D01*
X135542272Y-122774228D01*
X135548410Y-122773756D01*
X135728550Y-122723460D01*
X135895491Y-122639132D01*
X135920073Y-122619927D01*
X136038012Y-122527783D01*
X136038013Y-122527782D01*
X136042873Y-122523985D01*
X136152898Y-122396519D01*
X136161058Y-122387066D01*
X136161059Y-122387065D01*
X136165082Y-122382404D01*
X136257464Y-122219782D01*
X136316500Y-122042313D01*
X136339941Y-121856758D01*
X136340315Y-121830000D01*
X136322064Y-121643862D01*
X136268006Y-121464815D01*
X136180201Y-121299677D01*
X136133509Y-121242427D01*
X136065887Y-121159513D01*
X136065884Y-121159510D01*
X136061992Y-121154738D01*
X136056300Y-121150029D01*
X135922633Y-121039450D01*
X135922630Y-121039448D01*
X135917883Y-121035521D01*
X135753362Y-120946565D01*
X135574696Y-120891258D01*
X135568575Y-120890615D01*
X135568572Y-120890614D01*
X135394818Y-120872352D01*
X135394817Y-120872352D01*
X135388690Y-120871708D01*
X135292390Y-120880472D01*
X135208571Y-120888100D01*
X135208570Y-120888100D01*
X135202430Y-120888659D01*
X135196516Y-120890400D01*
X135196514Y-120890400D01*
X135193599Y-120891258D01*
X135023009Y-120941466D01*
X134857262Y-121028116D01*
X134711502Y-121145310D01*
X134591281Y-121288584D01*
X134501179Y-121452480D01*
X134499318Y-121458347D01*
X134499317Y-121458349D01*
X134472903Y-121541617D01*
X134444626Y-121630755D01*
X134423778Y-121816620D01*
X130694593Y-121816620D01*
X130686456Y-121789669D01*
X130594048Y-121615874D01*
X130510141Y-121512994D01*
X130473537Y-121468112D01*
X130473534Y-121468109D01*
X130469642Y-121463337D01*
X130464854Y-121459376D01*
X130322727Y-121341798D01*
X130322723Y-121341796D01*
X130317977Y-121337869D01*
X130144831Y-121244249D01*
X130022688Y-121206440D01*
X129962685Y-121187866D01*
X129962682Y-121187865D01*
X129956798Y-121186044D01*
X129950673Y-121185400D01*
X129950672Y-121185400D01*
X129767169Y-121166113D01*
X129767168Y-121166113D01*
X129761041Y-121165469D01*
X129688275Y-121172091D01*
X129571153Y-121182749D01*
X129571149Y-121182750D01*
X129565015Y-121183308D01*
X129376188Y-121238883D01*
X129201752Y-121330076D01*
X129048350Y-121453414D01*
X128921827Y-121604199D01*
X128827001Y-121776688D01*
X128825140Y-121782555D01*
X128825139Y-121782557D01*
X128802719Y-121853233D01*
X128767483Y-121964309D01*
X128745542Y-122159918D01*
X126065764Y-122159918D01*
X126047528Y-121951481D01*
X126045625Y-121940688D01*
X125989236Y-121730239D01*
X125985490Y-121719947D01*
X125893414Y-121522489D01*
X125887931Y-121512994D01*
X125851491Y-121460952D01*
X125841012Y-121452576D01*
X125827566Y-121459644D01*
X125126022Y-122161188D01*
X125118408Y-122175132D01*
X124388356Y-122175132D01*
X124389592Y-122172868D01*
X124389461Y-122171035D01*
X124385210Y-122164420D01*
X123679713Y-121458923D01*
X123667938Y-121452493D01*
X123655923Y-121461789D01*
X123620069Y-121512994D01*
X123614586Y-121522489D01*
X123522510Y-121719947D01*
X123518764Y-121730239D01*
X123462375Y-121940688D01*
X123460472Y-121951481D01*
X123441483Y-122168525D01*
X123441483Y-122179475D01*
X122453500Y-122179475D01*
X122453500Y-121086988D01*
X124032576Y-121086988D01*
X124039644Y-121100434D01*
X124741188Y-121801978D01*
X124755132Y-121809592D01*
X124756965Y-121809461D01*
X124763580Y-121805210D01*
X125469077Y-121099713D01*
X125475507Y-121087938D01*
X125466211Y-121075923D01*
X125415006Y-121040069D01*
X125405511Y-121034586D01*
X125208053Y-120942510D01*
X125197761Y-120938764D01*
X124987312Y-120882375D01*
X124976519Y-120880472D01*
X124759475Y-120861483D01*
X124748525Y-120861483D01*
X124531481Y-120880472D01*
X124520688Y-120882375D01*
X124310239Y-120938764D01*
X124299947Y-120942510D01*
X124102489Y-121034586D01*
X124092994Y-121040069D01*
X124040952Y-121076509D01*
X124032576Y-121086988D01*
X122453500Y-121086988D01*
X122453500Y-119148522D01*
X143507273Y-119148522D01*
X143554764Y-119325761D01*
X143558510Y-119336053D01*
X143650586Y-119533511D01*
X143656069Y-119543007D01*
X143781028Y-119721467D01*
X143788084Y-119729875D01*
X143942125Y-119883916D01*
X143950533Y-119890972D01*
X144128993Y-120015931D01*
X144138489Y-120021414D01*
X144335947Y-120113490D01*
X144346239Y-120117236D01*
X144556688Y-120173625D01*
X144567481Y-120175528D01*
X144611121Y-120179346D01*
X144677240Y-120205209D01*
X144718880Y-120262712D01*
X144722821Y-120333599D01*
X144687813Y-120395364D01*
X144624969Y-120428397D01*
X144611567Y-120430348D01*
X144601015Y-120431308D01*
X144412188Y-120486883D01*
X144237752Y-120578076D01*
X144084350Y-120701414D01*
X143957827Y-120852199D01*
X143863001Y-121024688D01*
X143861140Y-121030555D01*
X143861139Y-121030557D01*
X143833242Y-121118498D01*
X143803483Y-121212309D01*
X143781542Y-121407918D01*
X143782058Y-121414062D01*
X143790366Y-121512994D01*
X143798013Y-121604064D01*
X143799712Y-121609989D01*
X143849675Y-121784230D01*
X143852268Y-121793274D01*
X143855087Y-121798759D01*
X143939424Y-121962861D01*
X143939427Y-121962866D01*
X143942242Y-121968343D01*
X144064506Y-122122602D01*
X144069200Y-122126597D01*
X144178692Y-122219782D01*
X144214403Y-122250175D01*
X144386226Y-122346203D01*
X144392085Y-122348107D01*
X144392088Y-122348108D01*
X144452201Y-122367640D01*
X144573427Y-122407029D01*
X144579537Y-122407758D01*
X144579539Y-122407758D01*
X144646203Y-122415707D01*
X144768878Y-122430335D01*
X144775013Y-122429863D01*
X144775015Y-122429863D01*
X144958992Y-122415707D01*
X144958996Y-122415706D01*
X144965134Y-122415234D01*
X145154719Y-122362301D01*
X145330411Y-122273552D01*
X145360333Y-122250175D01*
X145480659Y-122156166D01*
X145480660Y-122156165D01*
X145485520Y-122152368D01*
X145614136Y-122003364D01*
X145617180Y-121998006D01*
X145708316Y-121837580D01*
X145708318Y-121837575D01*
X145711362Y-121832217D01*
X145773493Y-121645444D01*
X145789026Y-121522489D01*
X145797721Y-121453664D01*
X145797722Y-121453655D01*
X145798163Y-121450161D01*
X145798556Y-121422000D01*
X145797175Y-121407918D01*
X151401542Y-121407918D01*
X151402058Y-121414062D01*
X151410366Y-121512994D01*
X151418013Y-121604064D01*
X151419712Y-121609989D01*
X151469675Y-121784230D01*
X151472268Y-121793274D01*
X151475087Y-121798759D01*
X151559424Y-121962861D01*
X151559427Y-121962866D01*
X151562242Y-121968343D01*
X151684506Y-122122602D01*
X151689200Y-122126597D01*
X151798692Y-122219782D01*
X151834403Y-122250175D01*
X152006226Y-122346203D01*
X152012085Y-122348107D01*
X152012088Y-122348108D01*
X152072201Y-122367640D01*
X152193427Y-122407029D01*
X152199537Y-122407758D01*
X152199539Y-122407758D01*
X152266203Y-122415707D01*
X152388878Y-122430335D01*
X152395013Y-122429863D01*
X152395015Y-122429863D01*
X152578992Y-122415707D01*
X152578996Y-122415706D01*
X152585134Y-122415234D01*
X152774719Y-122362301D01*
X152950411Y-122273552D01*
X152980333Y-122250175D01*
X153100659Y-122156166D01*
X153100660Y-122156165D01*
X153105520Y-122152368D01*
X153234136Y-122003364D01*
X153237180Y-121998006D01*
X153328316Y-121837580D01*
X153328318Y-121837575D01*
X153331362Y-121832217D01*
X153393493Y-121645444D01*
X153409026Y-121522489D01*
X153417721Y-121453664D01*
X153417722Y-121453655D01*
X153418163Y-121450161D01*
X153418556Y-121422000D01*
X153399348Y-121226104D01*
X153397031Y-121218428D01*
X153357346Y-121086988D01*
X153342456Y-121037669D01*
X153250048Y-120863874D01*
X153180182Y-120778210D01*
X153129537Y-120716112D01*
X153129534Y-120716109D01*
X153125642Y-120711337D01*
X153120893Y-120707408D01*
X152978727Y-120589798D01*
X152978723Y-120589796D01*
X152973977Y-120585869D01*
X152800831Y-120492249D01*
X152706814Y-120463146D01*
X152618685Y-120435866D01*
X152618682Y-120435865D01*
X152612798Y-120434044D01*
X152606673Y-120433400D01*
X152606672Y-120433400D01*
X152423169Y-120414113D01*
X152423168Y-120414113D01*
X152417041Y-120413469D01*
X152344275Y-120420091D01*
X152227153Y-120430749D01*
X152227149Y-120430750D01*
X152221015Y-120431308D01*
X152032188Y-120486883D01*
X151857752Y-120578076D01*
X151704350Y-120701414D01*
X151577827Y-120852199D01*
X151483001Y-121024688D01*
X151481140Y-121030555D01*
X151481139Y-121030557D01*
X151453242Y-121118498D01*
X151423483Y-121212309D01*
X151401542Y-121407918D01*
X145797175Y-121407918D01*
X145779348Y-121226104D01*
X145777031Y-121218428D01*
X145737346Y-121086988D01*
X145722456Y-121037669D01*
X145630048Y-120863874D01*
X145560182Y-120778210D01*
X145509537Y-120716112D01*
X145509534Y-120716109D01*
X145505642Y-120711337D01*
X145500893Y-120707408D01*
X145358727Y-120589798D01*
X145358723Y-120589796D01*
X145353977Y-120585869D01*
X145180831Y-120492249D01*
X145086814Y-120463146D01*
X144998685Y-120435866D01*
X144998682Y-120435865D01*
X144992798Y-120434044D01*
X144986673Y-120433400D01*
X144986672Y-120433400D01*
X144960860Y-120430687D01*
X144895204Y-120403673D01*
X144854575Y-120345451D01*
X144851872Y-120274506D01*
X144887955Y-120213362D01*
X144951366Y-120181432D01*
X144963051Y-120179856D01*
X145012520Y-120175528D01*
X145023312Y-120173625D01*
X145233761Y-120117236D01*
X145244053Y-120113490D01*
X145441511Y-120021414D01*
X145451007Y-120015931D01*
X145629467Y-119890972D01*
X145637875Y-119883916D01*
X145791916Y-119729875D01*
X145798972Y-119721467D01*
X145923931Y-119543007D01*
X145929414Y-119533511D01*
X146021490Y-119336053D01*
X146025236Y-119325761D01*
X146071394Y-119153497D01*
X146071058Y-119139401D01*
X146063116Y-119136000D01*
X143522033Y-119136000D01*
X143508502Y-119139973D01*
X143507273Y-119148522D01*
X122453500Y-119148522D01*
X122453500Y-118610503D01*
X143508606Y-118610503D01*
X143508942Y-118624599D01*
X143516884Y-118628000D01*
X146057967Y-118628000D01*
X146071498Y-118624027D01*
X146072727Y-118615478D01*
X146025236Y-118438239D01*
X146021490Y-118427947D01*
X145929414Y-118230489D01*
X145923931Y-118220993D01*
X145798972Y-118042533D01*
X145791916Y-118034125D01*
X145637875Y-117880084D01*
X145629467Y-117873028D01*
X145451007Y-117748069D01*
X145441511Y-117742586D01*
X145244053Y-117650510D01*
X145233761Y-117646764D01*
X145023312Y-117590375D01*
X145012519Y-117588472D01*
X144972057Y-117584932D01*
X144905938Y-117559069D01*
X144864298Y-117501566D01*
X144860357Y-117430679D01*
X144895365Y-117368914D01*
X144960656Y-117335579D01*
X144965134Y-117335234D01*
X144971062Y-117333579D01*
X144971067Y-117333578D01*
X145102592Y-117296855D01*
X145154719Y-117282301D01*
X145330411Y-117193552D01*
X145360333Y-117170175D01*
X145480659Y-117076166D01*
X145480660Y-117076165D01*
X145485520Y-117072368D01*
X145614136Y-116923364D01*
X145617180Y-116918006D01*
X145708316Y-116757580D01*
X145708318Y-116757575D01*
X145711362Y-116752217D01*
X145759163Y-116608522D01*
X151127273Y-116608522D01*
X151174764Y-116785761D01*
X151178510Y-116796053D01*
X151270586Y-116993511D01*
X151276069Y-117003007D01*
X151401028Y-117181467D01*
X151408084Y-117189875D01*
X151562125Y-117343916D01*
X151570533Y-117350972D01*
X151748993Y-117475931D01*
X151758489Y-117481414D01*
X151955947Y-117573490D01*
X151966239Y-117577236D01*
X152176688Y-117633625D01*
X152187481Y-117635528D01*
X152231121Y-117639346D01*
X152297240Y-117665209D01*
X152338880Y-117722712D01*
X152342821Y-117793599D01*
X152307813Y-117855364D01*
X152244969Y-117888397D01*
X152231567Y-117890348D01*
X152221015Y-117891308D01*
X152032188Y-117946883D01*
X151857752Y-118038076D01*
X151852952Y-118041936D01*
X151852951Y-118041936D01*
X151851705Y-118042938D01*
X151704350Y-118161414D01*
X151577827Y-118312199D01*
X151483001Y-118484688D01*
X151423483Y-118672309D01*
X151401542Y-118867918D01*
X151418013Y-119064064D01*
X151419712Y-119069989D01*
X151439780Y-119139973D01*
X151472268Y-119253274D01*
X151475087Y-119258759D01*
X151559424Y-119422861D01*
X151559427Y-119422866D01*
X151562242Y-119428343D01*
X151684506Y-119582602D01*
X151834403Y-119710175D01*
X151839781Y-119713181D01*
X151839783Y-119713182D01*
X151869439Y-119729756D01*
X152006226Y-119806203D01*
X152012085Y-119808107D01*
X152012088Y-119808108D01*
X152072201Y-119827640D01*
X152193427Y-119867029D01*
X152199537Y-119867758D01*
X152199539Y-119867758D01*
X152266203Y-119875707D01*
X152388878Y-119890335D01*
X152395013Y-119889863D01*
X152395015Y-119889863D01*
X152578992Y-119875707D01*
X152578996Y-119875706D01*
X152585134Y-119875234D01*
X152774719Y-119822301D01*
X152950411Y-119733552D01*
X152980333Y-119710175D01*
X153100659Y-119616166D01*
X153100660Y-119616165D01*
X153105520Y-119612368D01*
X153234136Y-119463364D01*
X153237180Y-119458006D01*
X153328316Y-119297580D01*
X153328318Y-119297575D01*
X153331362Y-119292217D01*
X153393493Y-119105444D01*
X153399496Y-119057922D01*
X153417721Y-118913664D01*
X153417722Y-118913655D01*
X153418163Y-118910161D01*
X153418556Y-118882000D01*
X153399348Y-118686104D01*
X153397031Y-118678428D01*
X153344237Y-118503569D01*
X153342456Y-118497669D01*
X153250048Y-118323874D01*
X153173885Y-118230489D01*
X153129537Y-118176112D01*
X153129534Y-118176109D01*
X153125642Y-118171337D01*
X153120893Y-118167408D01*
X152978727Y-118049798D01*
X152978723Y-118049796D01*
X152973977Y-118045869D01*
X152800831Y-117952249D01*
X152678194Y-117914287D01*
X152618685Y-117895866D01*
X152618682Y-117895865D01*
X152612798Y-117894044D01*
X152606673Y-117893400D01*
X152606672Y-117893400D01*
X152580860Y-117890687D01*
X152515204Y-117863673D01*
X152474575Y-117805451D01*
X152471872Y-117734506D01*
X152507955Y-117673362D01*
X152571366Y-117641432D01*
X152583051Y-117639856D01*
X152632520Y-117635528D01*
X152643312Y-117633625D01*
X152853761Y-117577236D01*
X152864053Y-117573490D01*
X153061511Y-117481414D01*
X153071007Y-117475931D01*
X153249467Y-117350972D01*
X153257875Y-117343916D01*
X153411916Y-117189875D01*
X153418972Y-117181467D01*
X153543931Y-117003007D01*
X153549414Y-116993511D01*
X153641490Y-116796053D01*
X153645236Y-116785761D01*
X153691394Y-116613497D01*
X153691058Y-116599401D01*
X153683116Y-116596000D01*
X151142033Y-116596000D01*
X151128502Y-116599973D01*
X151127273Y-116608522D01*
X145759163Y-116608522D01*
X145773493Y-116565444D01*
X145785806Y-116467978D01*
X145797721Y-116373664D01*
X145797722Y-116373655D01*
X145798163Y-116370161D01*
X145798556Y-116342000D01*
X145779348Y-116146104D01*
X145777031Y-116138428D01*
X145756523Y-116070503D01*
X151128606Y-116070503D01*
X151128942Y-116084599D01*
X151136884Y-116088000D01*
X153677967Y-116088000D01*
X153691498Y-116084027D01*
X153692727Y-116075478D01*
X153645236Y-115898239D01*
X153641490Y-115887947D01*
X153549414Y-115690489D01*
X153543931Y-115680993D01*
X153418972Y-115502533D01*
X153411916Y-115494125D01*
X153257875Y-115340084D01*
X153249467Y-115333028D01*
X153071007Y-115208069D01*
X153061511Y-115202586D01*
X152864053Y-115110510D01*
X152853761Y-115106764D01*
X152643312Y-115050375D01*
X152632519Y-115048472D01*
X152592057Y-115044932D01*
X152525938Y-115019069D01*
X152484298Y-114961566D01*
X152480357Y-114890679D01*
X152515365Y-114828914D01*
X152580656Y-114795579D01*
X152585134Y-114795234D01*
X152591062Y-114793579D01*
X152591067Y-114793578D01*
X152696338Y-114764185D01*
X152774719Y-114742301D01*
X152950411Y-114653552D01*
X152980333Y-114630175D01*
X153100659Y-114536166D01*
X153100660Y-114536165D01*
X153105520Y-114532368D01*
X153234136Y-114383364D01*
X153237180Y-114378006D01*
X153328316Y-114217580D01*
X153328318Y-114217575D01*
X153331362Y-114212217D01*
X153393493Y-114025444D01*
X153399496Y-113977922D01*
X153417721Y-113833664D01*
X153417722Y-113833655D01*
X153418163Y-113830161D01*
X153418556Y-113802000D01*
X153399348Y-113606104D01*
X153397031Y-113598428D01*
X153344237Y-113423569D01*
X153342456Y-113417669D01*
X153250048Y-113243874D01*
X153180182Y-113158210D01*
X153129537Y-113096112D01*
X153129534Y-113096109D01*
X153125642Y-113091337D01*
X153120893Y-113087408D01*
X152978727Y-112969798D01*
X152978723Y-112969796D01*
X152973977Y-112965869D01*
X152800831Y-112872249D01*
X152706814Y-112843146D01*
X152618685Y-112815866D01*
X152618682Y-112815865D01*
X152612798Y-112814044D01*
X152606673Y-112813400D01*
X152606672Y-112813400D01*
X152423169Y-112794113D01*
X152423168Y-112794113D01*
X152417041Y-112793469D01*
X152344275Y-112800091D01*
X152227153Y-112810749D01*
X152227149Y-112810750D01*
X152221015Y-112811308D01*
X152032188Y-112866883D01*
X151857752Y-112958076D01*
X151704350Y-113081414D01*
X151577827Y-113232199D01*
X151483001Y-113404688D01*
X151423483Y-113592309D01*
X151401542Y-113787918D01*
X151418013Y-113984064D01*
X151419712Y-113989989D01*
X151431557Y-114031296D01*
X151472268Y-114173274D01*
X151475087Y-114178759D01*
X151559424Y-114342861D01*
X151559427Y-114342866D01*
X151562242Y-114348343D01*
X151684506Y-114502602D01*
X151834403Y-114630175D01*
X152006226Y-114726203D01*
X152012085Y-114728107D01*
X152012088Y-114728108D01*
X152072201Y-114747640D01*
X152193427Y-114787029D01*
X152199535Y-114787757D01*
X152199538Y-114787758D01*
X152244857Y-114793162D01*
X152310130Y-114821090D01*
X152349942Y-114879874D01*
X152351654Y-114950850D01*
X152314721Y-115011484D01*
X152250870Y-115042525D01*
X152240917Y-115043797D01*
X152187481Y-115048472D01*
X152176688Y-115050375D01*
X151966239Y-115106764D01*
X151955947Y-115110510D01*
X151758489Y-115202586D01*
X151748993Y-115208069D01*
X151570533Y-115333028D01*
X151562125Y-115340084D01*
X151408084Y-115494125D01*
X151401028Y-115502533D01*
X151276069Y-115680993D01*
X151270586Y-115690489D01*
X151178510Y-115887947D01*
X151174764Y-115898239D01*
X151128606Y-116070503D01*
X145756523Y-116070503D01*
X145739185Y-116013079D01*
X145722456Y-115957669D01*
X145630048Y-115783874D01*
X145553885Y-115690489D01*
X145509537Y-115636112D01*
X145509534Y-115636109D01*
X145505642Y-115631337D01*
X145500893Y-115627408D01*
X145358727Y-115509798D01*
X145358723Y-115509796D01*
X145353977Y-115505869D01*
X145180831Y-115412249D01*
X145086815Y-115383147D01*
X144998685Y-115355866D01*
X144998682Y-115355865D01*
X144992798Y-115354044D01*
X144986673Y-115353400D01*
X144986672Y-115353400D01*
X144803169Y-115334113D01*
X144803168Y-115334113D01*
X144797041Y-115333469D01*
X144724351Y-115340084D01*
X144607153Y-115350749D01*
X144607149Y-115350750D01*
X144601015Y-115351308D01*
X144412188Y-115406883D01*
X144237752Y-115498076D01*
X144232952Y-115501936D01*
X144232951Y-115501936D01*
X144231705Y-115502938D01*
X144084350Y-115621414D01*
X143957827Y-115772199D01*
X143863001Y-115944688D01*
X143861140Y-115950555D01*
X143861139Y-115950557D01*
X143842088Y-116010614D01*
X143803483Y-116132309D01*
X143781542Y-116327918D01*
X143782058Y-116334062D01*
X143793943Y-116475592D01*
X143798013Y-116524064D01*
X143799712Y-116529989D01*
X143834193Y-116650238D01*
X143852268Y-116713274D01*
X143855087Y-116718759D01*
X143939424Y-116882861D01*
X143939427Y-116882866D01*
X143942242Y-116888343D01*
X144064506Y-117042602D01*
X144069200Y-117046597D01*
X144165928Y-117128919D01*
X144214403Y-117170175D01*
X144219781Y-117173181D01*
X144219783Y-117173182D01*
X144277336Y-117205347D01*
X144386226Y-117266203D01*
X144392085Y-117268107D01*
X144392088Y-117268108D01*
X144452201Y-117287640D01*
X144573427Y-117327029D01*
X144579535Y-117327757D01*
X144579538Y-117327758D01*
X144624857Y-117333162D01*
X144690130Y-117361090D01*
X144729942Y-117419874D01*
X144731654Y-117490850D01*
X144694721Y-117551484D01*
X144630870Y-117582525D01*
X144620917Y-117583797D01*
X144567481Y-117588472D01*
X144556688Y-117590375D01*
X144346239Y-117646764D01*
X144335947Y-117650510D01*
X144138489Y-117742586D01*
X144128993Y-117748069D01*
X143950533Y-117873028D01*
X143942125Y-117880084D01*
X143788084Y-118034125D01*
X143781028Y-118042533D01*
X143656069Y-118220993D01*
X143650586Y-118230489D01*
X143558510Y-118427947D01*
X143554764Y-118438239D01*
X143508606Y-118610503D01*
X122453500Y-118610503D01*
X122453500Y-117926062D01*
X124032493Y-117926062D01*
X124041789Y-117938077D01*
X124092994Y-117973931D01*
X124102489Y-117979414D01*
X124299947Y-118071490D01*
X124310239Y-118075236D01*
X124520688Y-118131625D01*
X124531481Y-118133528D01*
X124748525Y-118152517D01*
X124759475Y-118152517D01*
X124976519Y-118133528D01*
X124987312Y-118131625D01*
X125197761Y-118075236D01*
X125208053Y-118071490D01*
X125405511Y-117979414D01*
X125415006Y-117973931D01*
X125467048Y-117937491D01*
X125475424Y-117927012D01*
X125468356Y-117913566D01*
X124766812Y-117212022D01*
X124752868Y-117204408D01*
X124751035Y-117204539D01*
X124744420Y-117208790D01*
X124038923Y-117914287D01*
X124032493Y-117926062D01*
X122453500Y-117926062D01*
X122453500Y-116845475D01*
X123441483Y-116845475D01*
X123460472Y-117062519D01*
X123462375Y-117073312D01*
X123518764Y-117283761D01*
X123522510Y-117294053D01*
X123614586Y-117491511D01*
X123620069Y-117501006D01*
X123656509Y-117553048D01*
X123666988Y-117561424D01*
X123680434Y-117554356D01*
X124381978Y-116852812D01*
X124388356Y-116841132D01*
X125118408Y-116841132D01*
X125118539Y-116842965D01*
X125122790Y-116849580D01*
X125828287Y-117555077D01*
X125840062Y-117561507D01*
X125852077Y-117552211D01*
X125887931Y-117501006D01*
X125893414Y-117491511D01*
X125985490Y-117294053D01*
X125989236Y-117283761D01*
X126045625Y-117073312D01*
X126047528Y-117062519D01*
X126066517Y-116845475D01*
X126066517Y-116834525D01*
X126065764Y-116825918D01*
X128745542Y-116825918D01*
X128747019Y-116843505D01*
X128758209Y-116976758D01*
X128762013Y-117022064D01*
X128763712Y-117027989D01*
X128814337Y-117204539D01*
X128816268Y-117211274D01*
X128819087Y-117216759D01*
X128903424Y-117380861D01*
X128903427Y-117380866D01*
X128906242Y-117386343D01*
X129028506Y-117540602D01*
X129033200Y-117544597D01*
X129154443Y-117647783D01*
X129178403Y-117668175D01*
X129350226Y-117764203D01*
X129356085Y-117766107D01*
X129356088Y-117766108D01*
X129416201Y-117785640D01*
X129537427Y-117825029D01*
X129543537Y-117825758D01*
X129543539Y-117825758D01*
X129610203Y-117833707D01*
X129732878Y-117848335D01*
X129739013Y-117847863D01*
X129739015Y-117847863D01*
X129922992Y-117833707D01*
X129922996Y-117833706D01*
X129929134Y-117833234D01*
X130118719Y-117780301D01*
X130294411Y-117691552D01*
X130317694Y-117673362D01*
X130444659Y-117574166D01*
X130444660Y-117574165D01*
X130449520Y-117570368D01*
X130578136Y-117421364D01*
X130581180Y-117416006D01*
X130672316Y-117255580D01*
X130672318Y-117255575D01*
X130675362Y-117250217D01*
X130737493Y-117063444D01*
X130748889Y-116973233D01*
X130753515Y-116936620D01*
X134423778Y-116936620D01*
X134429353Y-117003007D01*
X134435497Y-117076166D01*
X134439429Y-117122994D01*
X134441128Y-117128919D01*
X134485528Y-117283761D01*
X134490981Y-117302779D01*
X134576472Y-117469127D01*
X134692646Y-117615702D01*
X134697339Y-117619696D01*
X134697340Y-117619697D01*
X134818383Y-117722712D01*
X134835077Y-117736920D01*
X134840455Y-117739926D01*
X134840457Y-117739927D01*
X134887303Y-117766108D01*
X134998340Y-117828164D01*
X135176216Y-117885960D01*
X135361931Y-117908105D01*
X135368066Y-117907633D01*
X135368068Y-117907633D01*
X135542268Y-117894229D01*
X135542272Y-117894228D01*
X135548410Y-117893756D01*
X135728550Y-117843460D01*
X135895491Y-117759132D01*
X135920073Y-117739927D01*
X136038012Y-117647783D01*
X136038013Y-117647782D01*
X136042873Y-117643985D01*
X136165082Y-117502404D01*
X136257464Y-117339782D01*
X136316500Y-117162313D01*
X136339941Y-116976758D01*
X136340315Y-116950000D01*
X136322064Y-116763862D01*
X136268006Y-116584815D01*
X136180201Y-116419677D01*
X136167306Y-116403866D01*
X136065887Y-116279513D01*
X136065884Y-116279510D01*
X136061992Y-116274738D01*
X136057243Y-116270809D01*
X135922633Y-116159450D01*
X135922630Y-116159448D01*
X135917883Y-116155521D01*
X135753362Y-116066565D01*
X135574696Y-116011258D01*
X135568575Y-116010615D01*
X135568572Y-116010614D01*
X135394818Y-115992352D01*
X135394817Y-115992352D01*
X135388690Y-115991708D01*
X135272320Y-116002298D01*
X135208571Y-116008100D01*
X135208570Y-116008100D01*
X135202430Y-116008659D01*
X135196516Y-116010400D01*
X135196514Y-116010400D01*
X135193599Y-116011258D01*
X135023009Y-116061466D01*
X134857262Y-116148116D01*
X134711502Y-116265310D01*
X134591281Y-116408584D01*
X134501179Y-116572480D01*
X134499318Y-116578347D01*
X134499317Y-116578349D01*
X134488167Y-116613497D01*
X134444626Y-116750755D01*
X134423778Y-116936620D01*
X130753515Y-116936620D01*
X130761721Y-116871664D01*
X130761722Y-116871655D01*
X130762163Y-116868161D01*
X130762556Y-116840000D01*
X130743348Y-116644104D01*
X130741031Y-116636428D01*
X130717751Y-116559324D01*
X130686456Y-116455669D01*
X130594048Y-116281874D01*
X130494202Y-116159450D01*
X130473537Y-116134112D01*
X130473534Y-116134109D01*
X130469642Y-116129337D01*
X130464893Y-116125408D01*
X130322727Y-116007798D01*
X130322723Y-116007796D01*
X130317977Y-116003869D01*
X130144831Y-115910249D01*
X130050815Y-115881147D01*
X129962685Y-115853866D01*
X129962682Y-115853865D01*
X129956798Y-115852044D01*
X129950673Y-115851400D01*
X129950672Y-115851400D01*
X129767169Y-115832113D01*
X129767168Y-115832113D01*
X129761041Y-115831469D01*
X129688275Y-115838091D01*
X129571153Y-115848749D01*
X129571149Y-115848750D01*
X129565015Y-115849308D01*
X129376188Y-115904883D01*
X129201752Y-115996076D01*
X129048350Y-116119414D01*
X128921827Y-116270199D01*
X128827001Y-116442688D01*
X128825140Y-116448555D01*
X128825139Y-116448557D01*
X128799307Y-116529989D01*
X128767483Y-116630309D01*
X128745542Y-116825918D01*
X126065764Y-116825918D01*
X126047528Y-116617481D01*
X126045625Y-116606688D01*
X125989236Y-116396239D01*
X125985490Y-116385947D01*
X125893414Y-116188489D01*
X125887931Y-116178994D01*
X125851491Y-116126952D01*
X125841012Y-116118576D01*
X125827566Y-116125644D01*
X125126022Y-116827188D01*
X125118408Y-116841132D01*
X124388356Y-116841132D01*
X124389592Y-116838868D01*
X124389461Y-116837035D01*
X124385210Y-116830420D01*
X123679713Y-116124923D01*
X123667938Y-116118493D01*
X123655923Y-116127789D01*
X123620069Y-116178994D01*
X123614586Y-116188489D01*
X123522510Y-116385947D01*
X123518764Y-116396239D01*
X123462375Y-116606688D01*
X123460472Y-116617481D01*
X123441483Y-116834525D01*
X123441483Y-116845475D01*
X122453500Y-116845475D01*
X122453500Y-115752988D01*
X124032576Y-115752988D01*
X124039644Y-115766434D01*
X124741188Y-116467978D01*
X124755132Y-116475592D01*
X124756965Y-116475461D01*
X124763580Y-116471210D01*
X125469077Y-115765713D01*
X125475507Y-115753938D01*
X125466211Y-115741923D01*
X125415006Y-115706069D01*
X125405511Y-115700586D01*
X125208053Y-115608510D01*
X125197761Y-115604764D01*
X124987312Y-115548375D01*
X124976519Y-115546472D01*
X124759475Y-115527483D01*
X124748525Y-115527483D01*
X124531481Y-115546472D01*
X124520688Y-115548375D01*
X124310239Y-115604764D01*
X124299947Y-115608510D01*
X124102489Y-115700586D01*
X124092994Y-115706069D01*
X124040952Y-115742509D01*
X124032576Y-115752988D01*
X122453500Y-115752988D01*
X122453500Y-113787918D01*
X143781542Y-113787918D01*
X143798013Y-113984064D01*
X143799712Y-113989989D01*
X143811557Y-114031296D01*
X143852268Y-114173274D01*
X143855087Y-114178759D01*
X143939424Y-114342861D01*
X143939427Y-114342866D01*
X143942242Y-114348343D01*
X144064506Y-114502602D01*
X144214403Y-114630175D01*
X144386226Y-114726203D01*
X144392085Y-114728107D01*
X144392088Y-114728108D01*
X144452201Y-114747640D01*
X144573427Y-114787029D01*
X144579537Y-114787758D01*
X144579539Y-114787758D01*
X144643016Y-114795327D01*
X144768878Y-114810335D01*
X144775013Y-114809863D01*
X144775015Y-114809863D01*
X144958992Y-114795707D01*
X144958996Y-114795706D01*
X144965134Y-114795234D01*
X145154719Y-114742301D01*
X145330411Y-114653552D01*
X145360333Y-114630175D01*
X145480659Y-114536166D01*
X145480660Y-114536165D01*
X145485520Y-114532368D01*
X145614136Y-114383364D01*
X145617180Y-114378006D01*
X145708316Y-114217580D01*
X145708318Y-114217575D01*
X145711362Y-114212217D01*
X145773493Y-114025444D01*
X145779496Y-113977922D01*
X145797721Y-113833664D01*
X145797722Y-113833655D01*
X145798163Y-113830161D01*
X145798556Y-113802000D01*
X145779348Y-113606104D01*
X145777031Y-113598428D01*
X145724237Y-113423569D01*
X145722456Y-113417669D01*
X145630048Y-113243874D01*
X145560182Y-113158210D01*
X145509537Y-113096112D01*
X145509534Y-113096109D01*
X145505642Y-113091337D01*
X145500893Y-113087408D01*
X145358727Y-112969798D01*
X145358723Y-112969796D01*
X145353977Y-112965869D01*
X145180831Y-112872249D01*
X145086814Y-112843146D01*
X144998685Y-112815866D01*
X144998682Y-112815865D01*
X144992798Y-112814044D01*
X144986673Y-112813400D01*
X144986672Y-112813400D01*
X144803169Y-112794113D01*
X144803168Y-112794113D01*
X144797041Y-112793469D01*
X144724275Y-112800091D01*
X144607153Y-112810749D01*
X144607149Y-112810750D01*
X144601015Y-112811308D01*
X144412188Y-112866883D01*
X144237752Y-112958076D01*
X144084350Y-113081414D01*
X143957827Y-113232199D01*
X143863001Y-113404688D01*
X143803483Y-113592309D01*
X143781542Y-113787918D01*
X122453500Y-113787918D01*
X122453500Y-111247918D01*
X143781542Y-111247918D01*
X143798013Y-111444064D01*
X143799712Y-111449989D01*
X143811557Y-111491296D01*
X143852268Y-111633274D01*
X143855087Y-111638759D01*
X143939424Y-111802861D01*
X143939427Y-111802866D01*
X143942242Y-111808343D01*
X144064506Y-111962602D01*
X144214403Y-112090175D01*
X144386226Y-112186203D01*
X144392085Y-112188107D01*
X144392088Y-112188108D01*
X144452201Y-112207640D01*
X144573427Y-112247029D01*
X144579537Y-112247758D01*
X144579539Y-112247758D01*
X144646203Y-112255707D01*
X144768878Y-112270335D01*
X144775013Y-112269863D01*
X144775015Y-112269863D01*
X144958992Y-112255707D01*
X144958996Y-112255706D01*
X144965134Y-112255234D01*
X145154719Y-112202301D01*
X145330411Y-112113552D01*
X145360333Y-112090175D01*
X145480659Y-111996166D01*
X145480660Y-111996165D01*
X145485520Y-111992368D01*
X145614136Y-111843364D01*
X145617180Y-111838006D01*
X145708316Y-111677580D01*
X145708318Y-111677575D01*
X145711362Y-111672217D01*
X145773493Y-111485444D01*
X145779496Y-111437922D01*
X145797721Y-111293664D01*
X145797722Y-111293655D01*
X145798163Y-111290161D01*
X145798556Y-111262000D01*
X145797175Y-111247918D01*
X151401542Y-111247918D01*
X151418013Y-111444064D01*
X151419712Y-111449989D01*
X151431557Y-111491296D01*
X151472268Y-111633274D01*
X151475087Y-111638759D01*
X151559424Y-111802861D01*
X151559427Y-111802866D01*
X151562242Y-111808343D01*
X151684506Y-111962602D01*
X151834403Y-112090175D01*
X152006226Y-112186203D01*
X152012085Y-112188107D01*
X152012088Y-112188108D01*
X152072201Y-112207640D01*
X152193427Y-112247029D01*
X152199537Y-112247758D01*
X152199539Y-112247758D01*
X152266203Y-112255707D01*
X152388878Y-112270335D01*
X152395013Y-112269863D01*
X152395015Y-112269863D01*
X152578992Y-112255707D01*
X152578996Y-112255706D01*
X152585134Y-112255234D01*
X152774719Y-112202301D01*
X152950411Y-112113552D01*
X152980333Y-112090175D01*
X153100659Y-111996166D01*
X153100660Y-111996165D01*
X153105520Y-111992368D01*
X153234136Y-111843364D01*
X153237180Y-111838006D01*
X153328316Y-111677580D01*
X153328318Y-111677575D01*
X153331362Y-111672217D01*
X153393493Y-111485444D01*
X153399496Y-111437922D01*
X153417721Y-111293664D01*
X153417722Y-111293655D01*
X153418163Y-111290161D01*
X153418556Y-111262000D01*
X153399348Y-111066104D01*
X153397031Y-111058428D01*
X153375527Y-110987206D01*
X153342456Y-110877669D01*
X153250048Y-110703874D01*
X153166429Y-110601347D01*
X153129537Y-110556112D01*
X153129534Y-110556109D01*
X153125642Y-110551337D01*
X153120893Y-110547408D01*
X152978727Y-110429798D01*
X152978723Y-110429796D01*
X152973977Y-110425869D01*
X152800831Y-110332249D01*
X152706815Y-110303147D01*
X152618685Y-110275866D01*
X152618682Y-110275865D01*
X152612798Y-110274044D01*
X152606673Y-110273400D01*
X152606672Y-110273400D01*
X152423169Y-110254113D01*
X152423168Y-110254113D01*
X152417041Y-110253469D01*
X152344275Y-110260091D01*
X152227153Y-110270749D01*
X152227149Y-110270750D01*
X152221015Y-110271308D01*
X152032188Y-110326883D01*
X151857752Y-110418076D01*
X151704350Y-110541414D01*
X151577827Y-110692199D01*
X151483001Y-110864688D01*
X151481140Y-110870555D01*
X151481139Y-110870557D01*
X151472877Y-110896602D01*
X151423483Y-111052309D01*
X151401542Y-111247918D01*
X145797175Y-111247918D01*
X145779348Y-111066104D01*
X145777031Y-111058428D01*
X145755527Y-110987206D01*
X145722456Y-110877669D01*
X145630048Y-110703874D01*
X145546429Y-110601347D01*
X145509537Y-110556112D01*
X145509534Y-110556109D01*
X145505642Y-110551337D01*
X145500893Y-110547408D01*
X145358727Y-110429798D01*
X145358723Y-110429796D01*
X145353977Y-110425869D01*
X145180831Y-110332249D01*
X145086815Y-110303147D01*
X144998685Y-110275866D01*
X144998682Y-110275865D01*
X144992798Y-110274044D01*
X144986673Y-110273400D01*
X144986672Y-110273400D01*
X144803169Y-110254113D01*
X144803168Y-110254113D01*
X144797041Y-110253469D01*
X144724275Y-110260091D01*
X144607153Y-110270749D01*
X144607149Y-110270750D01*
X144601015Y-110271308D01*
X144412188Y-110326883D01*
X144237752Y-110418076D01*
X144084350Y-110541414D01*
X143957827Y-110692199D01*
X143863001Y-110864688D01*
X143861140Y-110870555D01*
X143861139Y-110870557D01*
X143852877Y-110896602D01*
X143803483Y-111052309D01*
X143781542Y-111247918D01*
X122453500Y-111247918D01*
X122453500Y-110221918D01*
X130055542Y-110221918D01*
X130056058Y-110228062D01*
X130069152Y-110383989D01*
X130072013Y-110418064D01*
X130073712Y-110423989D01*
X130124287Y-110600364D01*
X130126268Y-110607274D01*
X130129087Y-110612759D01*
X130213424Y-110776861D01*
X130213427Y-110776866D01*
X130216242Y-110782343D01*
X130338506Y-110936602D01*
X130343200Y-110940597D01*
X130474461Y-111052309D01*
X130488403Y-111064175D01*
X130660226Y-111160203D01*
X130666085Y-111162107D01*
X130666088Y-111162108D01*
X130718464Y-111179126D01*
X130847427Y-111221029D01*
X130853537Y-111221758D01*
X130853539Y-111221758D01*
X130920203Y-111229707D01*
X131042878Y-111244335D01*
X131049013Y-111243863D01*
X131049015Y-111243863D01*
X131232992Y-111229707D01*
X131232996Y-111229706D01*
X131239134Y-111229234D01*
X131428719Y-111176301D01*
X131604411Y-111087552D01*
X131631864Y-111066104D01*
X131754659Y-110970166D01*
X131754660Y-110970165D01*
X131759520Y-110966368D01*
X131888136Y-110817364D01*
X131891180Y-110812006D01*
X131982316Y-110651580D01*
X131982318Y-110651575D01*
X131985362Y-110646217D01*
X132047493Y-110459444D01*
X132058550Y-110371922D01*
X132071721Y-110267664D01*
X132071722Y-110267655D01*
X132072163Y-110264161D01*
X132072556Y-110236000D01*
X132067253Y-110181918D01*
X133357542Y-110181918D01*
X133374013Y-110378064D01*
X133375712Y-110383989D01*
X133422572Y-110547408D01*
X133428268Y-110567274D01*
X133431087Y-110572759D01*
X133515424Y-110736861D01*
X133515427Y-110736866D01*
X133518242Y-110742343D01*
X133640506Y-110896602D01*
X133645200Y-110900597D01*
X133687506Y-110936602D01*
X133790403Y-111024175D01*
X133795781Y-111027181D01*
X133795783Y-111027182D01*
X133867355Y-111067182D01*
X133962226Y-111120203D01*
X133968085Y-111122107D01*
X133968088Y-111122108D01*
X134028201Y-111141640D01*
X134149427Y-111181029D01*
X134155537Y-111181758D01*
X134155539Y-111181758D01*
X134222203Y-111189707D01*
X134344878Y-111204335D01*
X134351013Y-111203863D01*
X134351015Y-111203863D01*
X134534992Y-111189707D01*
X134534996Y-111189706D01*
X134541134Y-111189234D01*
X134730719Y-111136301D01*
X134906411Y-111047552D01*
X134936333Y-111024175D01*
X135056659Y-110930166D01*
X135056660Y-110930165D01*
X135061520Y-110926368D01*
X135190136Y-110777364D01*
X135193180Y-110772006D01*
X135284316Y-110611580D01*
X135284318Y-110611575D01*
X135287362Y-110606217D01*
X135349493Y-110419444D01*
X135360508Y-110332249D01*
X135373721Y-110227664D01*
X135373722Y-110227655D01*
X135374163Y-110224161D01*
X135374556Y-110196000D01*
X135355348Y-110000104D01*
X135353031Y-109992428D01*
X135310533Y-109851669D01*
X135298456Y-109811669D01*
X135206048Y-109637874D01*
X135110021Y-109520133D01*
X135085537Y-109490112D01*
X135085534Y-109490109D01*
X135081642Y-109485337D01*
X135076893Y-109481408D01*
X134934727Y-109363798D01*
X134934723Y-109363796D01*
X134929977Y-109359869D01*
X134756831Y-109266249D01*
X134631551Y-109227469D01*
X134574685Y-109209866D01*
X134574682Y-109209865D01*
X134568798Y-109208044D01*
X134562673Y-109207400D01*
X134562672Y-109207400D01*
X134379169Y-109188113D01*
X134379168Y-109188113D01*
X134373041Y-109187469D01*
X134300275Y-109194091D01*
X134183153Y-109204749D01*
X134183149Y-109204750D01*
X134177015Y-109205308D01*
X133988188Y-109260883D01*
X133813752Y-109352076D01*
X133660350Y-109475414D01*
X133533827Y-109626199D01*
X133439001Y-109798688D01*
X133437140Y-109804555D01*
X133437139Y-109804557D01*
X133422194Y-109851669D01*
X133379483Y-109986309D01*
X133357542Y-110181918D01*
X132067253Y-110181918D01*
X132053348Y-110040104D01*
X132051031Y-110032428D01*
X131998237Y-109857569D01*
X131996456Y-109851669D01*
X131904048Y-109677874D01*
X131802352Y-109553182D01*
X131783537Y-109530112D01*
X131783534Y-109530109D01*
X131779642Y-109525337D01*
X131774893Y-109521408D01*
X131632727Y-109403798D01*
X131632723Y-109403796D01*
X131627977Y-109399869D01*
X131454831Y-109306249D01*
X131347981Y-109273174D01*
X131272685Y-109249866D01*
X131272682Y-109249865D01*
X131266798Y-109248044D01*
X131260673Y-109247400D01*
X131260672Y-109247400D01*
X131077169Y-109228113D01*
X131077168Y-109228113D01*
X131071041Y-109227469D01*
X130998275Y-109234091D01*
X130881153Y-109244749D01*
X130881149Y-109244750D01*
X130875015Y-109245308D01*
X130686188Y-109300883D01*
X130511752Y-109392076D01*
X130358350Y-109515414D01*
X130231827Y-109666199D01*
X130137001Y-109838688D01*
X130077483Y-110026309D01*
X130055542Y-110221918D01*
X122453500Y-110221918D01*
X122453500Y-106282062D01*
X133644493Y-106282062D01*
X133653789Y-106294077D01*
X133704994Y-106329931D01*
X133714489Y-106335414D01*
X133911947Y-106427490D01*
X133922239Y-106431236D01*
X134132688Y-106487625D01*
X134143481Y-106489528D01*
X134360525Y-106508517D01*
X134371475Y-106508517D01*
X134588519Y-106489528D01*
X134599312Y-106487625D01*
X134809761Y-106431236D01*
X134820053Y-106427490D01*
X135017511Y-106335414D01*
X135027006Y-106329931D01*
X135079048Y-106293491D01*
X135087424Y-106283012D01*
X135080356Y-106269566D01*
X134378812Y-105568022D01*
X134364868Y-105560408D01*
X134363035Y-105560539D01*
X134356420Y-105564790D01*
X133650923Y-106270287D01*
X133644493Y-106282062D01*
X122453500Y-106282062D01*
X122453500Y-105201475D01*
X133053483Y-105201475D01*
X133072472Y-105418519D01*
X133074375Y-105429312D01*
X133130764Y-105639761D01*
X133134510Y-105650053D01*
X133226586Y-105847511D01*
X133232069Y-105857006D01*
X133268509Y-105909048D01*
X133278988Y-105917424D01*
X133292434Y-105910356D01*
X133993978Y-105208812D01*
X134000356Y-105197132D01*
X134730408Y-105197132D01*
X134730539Y-105198965D01*
X134734790Y-105205580D01*
X135440287Y-105911077D01*
X135452062Y-105917507D01*
X135464077Y-105908211D01*
X135499931Y-105857006D01*
X135505414Y-105847511D01*
X135597490Y-105650053D01*
X135601236Y-105639761D01*
X135657625Y-105429312D01*
X135659528Y-105418519D01*
X135678517Y-105201475D01*
X135678517Y-105190525D01*
X135659528Y-104973481D01*
X135657625Y-104962688D01*
X135601236Y-104752239D01*
X135597490Y-104741947D01*
X135505414Y-104544489D01*
X135499931Y-104534994D01*
X135463491Y-104482952D01*
X135453012Y-104474576D01*
X135439566Y-104481644D01*
X134738022Y-105183188D01*
X134730408Y-105197132D01*
X134000356Y-105197132D01*
X134001592Y-105194868D01*
X134001461Y-105193035D01*
X133997210Y-105186420D01*
X133291713Y-104480923D01*
X133279938Y-104474493D01*
X133267923Y-104483789D01*
X133232069Y-104534994D01*
X133226586Y-104544489D01*
X133134510Y-104741947D01*
X133130764Y-104752239D01*
X133074375Y-104962688D01*
X133072472Y-104973481D01*
X133053483Y-105190525D01*
X133053483Y-105201475D01*
X122453500Y-105201475D01*
X122453500Y-104108988D01*
X133644576Y-104108988D01*
X133651644Y-104122434D01*
X134353188Y-104823978D01*
X134367132Y-104831592D01*
X134368965Y-104831461D01*
X134375580Y-104827210D01*
X135081077Y-104121713D01*
X135087507Y-104109938D01*
X135078211Y-104097923D01*
X135027006Y-104062069D01*
X135017511Y-104056586D01*
X134820053Y-103964510D01*
X134809761Y-103960764D01*
X134599312Y-103904375D01*
X134588519Y-103902472D01*
X134371475Y-103883483D01*
X134360525Y-103883483D01*
X134143481Y-103902472D01*
X134132688Y-103904375D01*
X133922239Y-103960764D01*
X133911947Y-103964510D01*
X133714489Y-104056586D01*
X133704994Y-104062069D01*
X133652952Y-104098509D01*
X133644576Y-104108988D01*
X122453500Y-104108988D01*
X122453500Y-102601918D01*
X130055542Y-102601918D01*
X130058191Y-102633469D01*
X130066990Y-102738243D01*
X130072013Y-102798064D01*
X130073712Y-102803989D01*
X130119983Y-102965354D01*
X130126268Y-102987274D01*
X130129087Y-102992759D01*
X130213424Y-103156861D01*
X130213427Y-103156866D01*
X130216242Y-103162343D01*
X130338506Y-103316602D01*
X130343200Y-103320597D01*
X130474461Y-103432309D01*
X130488403Y-103444175D01*
X130660226Y-103540203D01*
X130666085Y-103542107D01*
X130666088Y-103542108D01*
X130726201Y-103561640D01*
X130847427Y-103601029D01*
X130853537Y-103601758D01*
X130853539Y-103601758D01*
X130920203Y-103609707D01*
X131042878Y-103624335D01*
X131049013Y-103623863D01*
X131049015Y-103623863D01*
X131232992Y-103609707D01*
X131232996Y-103609706D01*
X131239134Y-103609234D01*
X131428719Y-103556301D01*
X131604411Y-103467552D01*
X131631864Y-103446104D01*
X131754659Y-103350166D01*
X131754660Y-103350165D01*
X131759520Y-103346368D01*
X131888136Y-103197364D01*
X131891180Y-103192006D01*
X131982317Y-103031578D01*
X131982319Y-103031574D01*
X131985362Y-103026217D01*
X131987307Y-103020369D01*
X131987717Y-103019449D01*
X132033698Y-102965354D01*
X132102823Y-102944700D01*
X139077338Y-102944700D01*
X139088320Y-102945179D01*
X139126290Y-102948501D01*
X139136940Y-102945647D01*
X139136944Y-102945647D01*
X139163102Y-102938638D01*
X139173835Y-102936258D01*
X139200501Y-102931556D01*
X139211356Y-102929642D01*
X139220902Y-102924131D01*
X139224314Y-102922889D01*
X139227608Y-102921353D01*
X139229661Y-102920803D01*
X139230329Y-102920700D01*
X139231122Y-102920411D01*
X139231295Y-102920365D01*
X139231359Y-102920541D01*
X139231649Y-102920496D01*
X139236433Y-102918988D01*
X139238258Y-102918499D01*
X139238259Y-102918498D01*
X139238267Y-102918496D01*
X139238520Y-102919439D01*
X139298060Y-102910273D01*
X139398600Y-102923509D01*
X139406788Y-102922431D01*
X139419937Y-102920700D01*
X139556197Y-102902761D01*
X139563824Y-102899602D01*
X139563827Y-102899601D01*
X139629626Y-102872346D01*
X139703055Y-102841931D01*
X139829164Y-102745164D01*
X139842071Y-102728344D01*
X139891529Y-102663888D01*
X139925931Y-102619054D01*
X139956346Y-102545625D01*
X139983601Y-102479827D01*
X139983602Y-102479824D01*
X139986761Y-102472197D01*
X140007509Y-102314600D01*
X139986761Y-102157003D01*
X139961372Y-102095707D01*
X139947954Y-102063315D01*
X139925931Y-102010146D01*
X139866875Y-101933182D01*
X139834191Y-101890587D01*
X139834190Y-101890586D01*
X139829164Y-101884036D01*
X139703055Y-101787269D01*
X139629626Y-101756854D01*
X139563827Y-101729599D01*
X139563824Y-101729598D01*
X139556197Y-101726439D01*
X139398600Y-101705691D01*
X139241003Y-101726439D01*
X139233376Y-101729598D01*
X139233373Y-101729599D01*
X139167575Y-101756854D01*
X139094146Y-101787269D01*
X138968036Y-101884036D01*
X138963013Y-101890582D01*
X138959305Y-101895414D01*
X138871269Y-102010146D01*
X138849246Y-102063315D01*
X138835829Y-102095707D01*
X138810439Y-102157003D01*
X138809361Y-102165191D01*
X138807708Y-102177747D01*
X138778985Y-102242674D01*
X138719720Y-102281765D01*
X138682786Y-102287300D01*
X132101744Y-102287300D01*
X132033623Y-102267298D01*
X131990492Y-102220453D01*
X131956756Y-102157003D01*
X131904048Y-102057874D01*
X131802352Y-101933182D01*
X131783537Y-101910112D01*
X131783534Y-101910109D01*
X131779642Y-101905337D01*
X131774893Y-101901408D01*
X131632727Y-101783798D01*
X131632723Y-101783796D01*
X131627977Y-101779869D01*
X131454831Y-101686249D01*
X131314665Y-101642861D01*
X131272685Y-101629866D01*
X131272682Y-101629865D01*
X131266798Y-101628044D01*
X131260673Y-101627400D01*
X131260672Y-101627400D01*
X131077169Y-101608113D01*
X131077168Y-101608113D01*
X131071041Y-101607469D01*
X130998275Y-101614091D01*
X130881153Y-101624749D01*
X130881149Y-101624750D01*
X130875015Y-101625308D01*
X130686188Y-101680883D01*
X130511752Y-101772076D01*
X130358350Y-101895414D01*
X130231827Y-102046199D01*
X130137001Y-102218688D01*
X130077483Y-102406309D01*
X130055542Y-102601918D01*
X122453500Y-102601918D01*
X122453500Y-97593593D01*
X122473502Y-97525472D01*
X122485318Y-97509892D01*
X124141728Y-95646064D01*
X130920300Y-95646064D01*
X130932119Y-95705480D01*
X130977140Y-95772860D01*
X131044520Y-95817881D01*
X131103936Y-95829700D01*
X132644064Y-95829700D01*
X132703480Y-95817881D01*
X132770860Y-95772860D01*
X132815881Y-95705480D01*
X132827700Y-95646064D01*
X132827700Y-94341675D01*
X132847702Y-94273554D01*
X132901358Y-94227061D01*
X132971632Y-94216957D01*
X133030401Y-94241711D01*
X133045545Y-94253331D01*
X133094368Y-94273554D01*
X133184773Y-94311001D01*
X133184776Y-94311002D01*
X133192403Y-94314161D01*
X133350000Y-94334909D01*
X133358188Y-94333831D01*
X133499409Y-94315239D01*
X133507597Y-94314161D01*
X133515224Y-94311002D01*
X133515227Y-94311001D01*
X133605632Y-94273554D01*
X133654455Y-94253331D01*
X133717596Y-94204881D01*
X133783816Y-94179280D01*
X133853365Y-94193545D01*
X133904161Y-94243146D01*
X133920300Y-94304843D01*
X133920300Y-95646064D01*
X133932119Y-95705480D01*
X133977140Y-95772860D01*
X134044520Y-95817881D01*
X134103936Y-95829700D01*
X135644064Y-95829700D01*
X135703480Y-95817881D01*
X135770860Y-95772860D01*
X135815881Y-95705480D01*
X135818302Y-95693309D01*
X135819876Y-95689509D01*
X135864424Y-95634228D01*
X135931787Y-95611807D01*
X136000578Y-95629365D01*
X136025380Y-95648632D01*
X136549329Y-96172581D01*
X136556756Y-96180685D01*
X136581256Y-96209883D01*
X136596999Y-96218972D01*
X136614257Y-96228936D01*
X136623514Y-96234833D01*
X136654742Y-96256699D01*
X136665392Y-96259553D01*
X136668682Y-96261087D01*
X136672095Y-96262329D01*
X136681644Y-96267842D01*
X136710228Y-96272882D01*
X136719167Y-96274459D01*
X136729894Y-96276837D01*
X136756065Y-96283849D01*
X136756067Y-96283849D01*
X136766711Y-96286701D01*
X136777686Y-96285741D01*
X136777688Y-96285741D01*
X136804685Y-96283379D01*
X136815666Y-96282900D01*
X139815759Y-96282900D01*
X139832838Y-96276684D01*
X139854053Y-96270999D01*
X139871956Y-96267842D01*
X139884672Y-96260500D01*
X139887697Y-96258754D01*
X139907599Y-96249473D01*
X139911886Y-96247912D01*
X139924685Y-96243254D01*
X139933127Y-96236170D01*
X139933129Y-96236169D01*
X139938608Y-96231571D01*
X139956601Y-96218972D01*
X139962797Y-96215395D01*
X139972344Y-96209883D01*
X139979429Y-96201439D01*
X139979432Y-96201437D01*
X139984030Y-96195957D01*
X139999557Y-96180430D01*
X140005037Y-96175831D01*
X140013483Y-96168744D01*
X140022571Y-96153003D01*
X140035168Y-96135013D01*
X140039769Y-96129530D01*
X140039769Y-96129529D01*
X140046854Y-96121086D01*
X140053073Y-96104000D01*
X140062352Y-96084101D01*
X140071442Y-96068356D01*
X140074599Y-96050453D01*
X140080284Y-96029238D01*
X140082730Y-96022517D01*
X140086500Y-96012159D01*
X140086500Y-95955700D01*
X140106502Y-95887579D01*
X140160158Y-95841086D01*
X140212500Y-95829700D01*
X140419300Y-95829700D01*
X140487421Y-95849702D01*
X140533914Y-95903358D01*
X140545300Y-95955700D01*
X140545300Y-104786138D01*
X140544821Y-104797120D01*
X140541499Y-104835090D01*
X140544353Y-104845740D01*
X140544353Y-104845744D01*
X140551362Y-104871902D01*
X140553742Y-104882635D01*
X140560358Y-104920156D01*
X140565869Y-104929702D01*
X140567109Y-104933108D01*
X140568646Y-104936405D01*
X140571501Y-104947058D01*
X140593367Y-104978286D01*
X140599262Y-104987539D01*
X140618317Y-105020544D01*
X140626756Y-105027626D01*
X140626761Y-105027631D01*
X140647515Y-105045045D01*
X140655619Y-105052471D01*
X143824444Y-108221296D01*
X143858470Y-108283608D01*
X143855451Y-108348488D01*
X143803483Y-108512309D01*
X143781542Y-108707918D01*
X143798013Y-108904064D01*
X143799712Y-108909989D01*
X143811557Y-108951296D01*
X143852268Y-109093274D01*
X143855087Y-109098759D01*
X143939424Y-109262861D01*
X143939427Y-109262866D01*
X143942242Y-109268343D01*
X144064506Y-109422602D01*
X144069200Y-109426597D01*
X144185219Y-109525337D01*
X144214403Y-109550175D01*
X144386226Y-109646203D01*
X144392085Y-109648107D01*
X144392088Y-109648108D01*
X144447767Y-109666199D01*
X144573427Y-109707029D01*
X144579537Y-109707758D01*
X144579539Y-109707758D01*
X144646203Y-109715707D01*
X144768878Y-109730335D01*
X144775013Y-109729863D01*
X144775015Y-109729863D01*
X144958992Y-109715707D01*
X144958996Y-109715706D01*
X144965134Y-109715234D01*
X145154719Y-109662301D01*
X145330411Y-109573552D01*
X145360333Y-109550175D01*
X145480659Y-109456166D01*
X145480660Y-109456165D01*
X145485520Y-109452368D01*
X145614136Y-109303364D01*
X145617180Y-109298006D01*
X145708316Y-109137580D01*
X145708318Y-109137575D01*
X145711362Y-109132217D01*
X145773493Y-108945444D01*
X145779496Y-108897922D01*
X145797721Y-108753664D01*
X145797722Y-108753655D01*
X145798163Y-108750161D01*
X145798556Y-108722000D01*
X145797175Y-108707918D01*
X151401542Y-108707918D01*
X151418013Y-108904064D01*
X151419712Y-108909989D01*
X151431557Y-108951296D01*
X151472268Y-109093274D01*
X151475087Y-109098759D01*
X151559424Y-109262861D01*
X151559427Y-109262866D01*
X151562242Y-109268343D01*
X151684506Y-109422602D01*
X151689200Y-109426597D01*
X151805219Y-109525337D01*
X151834403Y-109550175D01*
X152006226Y-109646203D01*
X152012085Y-109648107D01*
X152012088Y-109648108D01*
X152067767Y-109666199D01*
X152193427Y-109707029D01*
X152199537Y-109707758D01*
X152199539Y-109707758D01*
X152266203Y-109715707D01*
X152388878Y-109730335D01*
X152395013Y-109729863D01*
X152395015Y-109729863D01*
X152578992Y-109715707D01*
X152578996Y-109715706D01*
X152585134Y-109715234D01*
X152774719Y-109662301D01*
X152950411Y-109573552D01*
X152980333Y-109550175D01*
X153100659Y-109456166D01*
X153100660Y-109456165D01*
X153105520Y-109452368D01*
X153234136Y-109303364D01*
X153237180Y-109298006D01*
X153328316Y-109137580D01*
X153328318Y-109137575D01*
X153331362Y-109132217D01*
X153393493Y-108945444D01*
X153399496Y-108897922D01*
X153417721Y-108753664D01*
X153417722Y-108753655D01*
X153418163Y-108750161D01*
X153418556Y-108722000D01*
X153399348Y-108526104D01*
X153397031Y-108518428D01*
X153344237Y-108343569D01*
X153342456Y-108337669D01*
X153250048Y-108163874D01*
X153180182Y-108078210D01*
X153129537Y-108016112D01*
X153129534Y-108016109D01*
X153125642Y-108011337D01*
X153120893Y-108007408D01*
X152978727Y-107889798D01*
X152978723Y-107889796D01*
X152973977Y-107885869D01*
X152800831Y-107792249D01*
X152680510Y-107755004D01*
X152618685Y-107735866D01*
X152618682Y-107735865D01*
X152612798Y-107734044D01*
X152606673Y-107733400D01*
X152606672Y-107733400D01*
X152423169Y-107714113D01*
X152423168Y-107714113D01*
X152417041Y-107713469D01*
X152344275Y-107720091D01*
X152227153Y-107730749D01*
X152227149Y-107730750D01*
X152221015Y-107731308D01*
X152032188Y-107786883D01*
X151857752Y-107878076D01*
X151704350Y-108001414D01*
X151577827Y-108152199D01*
X151483001Y-108324688D01*
X151423483Y-108512309D01*
X151401542Y-108707918D01*
X145797175Y-108707918D01*
X145779348Y-108526104D01*
X145777031Y-108518428D01*
X145724237Y-108343569D01*
X145722456Y-108337669D01*
X145630048Y-108163874D01*
X145560182Y-108078210D01*
X145509537Y-108016112D01*
X145509534Y-108016109D01*
X145505642Y-108011337D01*
X145500893Y-108007408D01*
X145358727Y-107889798D01*
X145358723Y-107889796D01*
X145353977Y-107885869D01*
X145180831Y-107792249D01*
X145060510Y-107755004D01*
X144998685Y-107735866D01*
X144998682Y-107735865D01*
X144992798Y-107734044D01*
X144986673Y-107733400D01*
X144986672Y-107733400D01*
X144803169Y-107714113D01*
X144803168Y-107714113D01*
X144797041Y-107713469D01*
X144724275Y-107720091D01*
X144607153Y-107730749D01*
X144607149Y-107730750D01*
X144601015Y-107731308D01*
X144595107Y-107733047D01*
X144595106Y-107733047D01*
X144412526Y-107786783D01*
X144341529Y-107786828D01*
X144287856Y-107755004D01*
X142700770Y-106167918D01*
X143781542Y-106167918D01*
X143798013Y-106364064D01*
X143799712Y-106369989D01*
X143811557Y-106411296D01*
X143852268Y-106553274D01*
X143855087Y-106558759D01*
X143939424Y-106722861D01*
X143939427Y-106722866D01*
X143942242Y-106728343D01*
X144064506Y-106882602D01*
X144214403Y-107010175D01*
X144386226Y-107106203D01*
X144392085Y-107108107D01*
X144392088Y-107108108D01*
X144452201Y-107127640D01*
X144573427Y-107167029D01*
X144579537Y-107167758D01*
X144579539Y-107167758D01*
X144646203Y-107175707D01*
X144768878Y-107190335D01*
X144775013Y-107189863D01*
X144775015Y-107189863D01*
X144958992Y-107175707D01*
X144958996Y-107175706D01*
X144965134Y-107175234D01*
X145154719Y-107122301D01*
X145330411Y-107033552D01*
X145360333Y-107010175D01*
X145480659Y-106916166D01*
X145480660Y-106916165D01*
X145485520Y-106912368D01*
X145614136Y-106763364D01*
X145617180Y-106758006D01*
X145708316Y-106597580D01*
X145708318Y-106597575D01*
X145711362Y-106592217D01*
X145773493Y-106405444D01*
X145789080Y-106282062D01*
X145797721Y-106213664D01*
X145797722Y-106213655D01*
X145798163Y-106210161D01*
X145798556Y-106182000D01*
X145797175Y-106167918D01*
X151401542Y-106167918D01*
X151418013Y-106364064D01*
X151419712Y-106369989D01*
X151431557Y-106411296D01*
X151472268Y-106553274D01*
X151475087Y-106558759D01*
X151559424Y-106722861D01*
X151559427Y-106722866D01*
X151562242Y-106728343D01*
X151684506Y-106882602D01*
X151834403Y-107010175D01*
X152006226Y-107106203D01*
X152012085Y-107108107D01*
X152012088Y-107108108D01*
X152072201Y-107127640D01*
X152193427Y-107167029D01*
X152199537Y-107167758D01*
X152199539Y-107167758D01*
X152266203Y-107175707D01*
X152388878Y-107190335D01*
X152395013Y-107189863D01*
X152395015Y-107189863D01*
X152578992Y-107175707D01*
X152578996Y-107175706D01*
X152585134Y-107175234D01*
X152774719Y-107122301D01*
X152950411Y-107033552D01*
X152980333Y-107010175D01*
X153100659Y-106916166D01*
X153100660Y-106916165D01*
X153105520Y-106912368D01*
X153234136Y-106763364D01*
X153237180Y-106758006D01*
X153328316Y-106597580D01*
X153328318Y-106597575D01*
X153331362Y-106592217D01*
X153393493Y-106405444D01*
X153409080Y-106282062D01*
X153417721Y-106213664D01*
X153417722Y-106213655D01*
X153418163Y-106210161D01*
X153418556Y-106182000D01*
X153399348Y-105986104D01*
X153397031Y-105978428D01*
X153344237Y-105803569D01*
X153342456Y-105797669D01*
X153250048Y-105623874D01*
X153180182Y-105538210D01*
X153129537Y-105476112D01*
X153129534Y-105476109D01*
X153125642Y-105471337D01*
X153120893Y-105467408D01*
X152978727Y-105349798D01*
X152978723Y-105349796D01*
X152973977Y-105345869D01*
X152800831Y-105252249D01*
X152706814Y-105223146D01*
X152618685Y-105195866D01*
X152618682Y-105195865D01*
X152612798Y-105194044D01*
X152606673Y-105193400D01*
X152606672Y-105193400D01*
X152423169Y-105174113D01*
X152423168Y-105174113D01*
X152417041Y-105173469D01*
X152344275Y-105180091D01*
X152227153Y-105190749D01*
X152227149Y-105190750D01*
X152221015Y-105191308D01*
X152032188Y-105246883D01*
X151857752Y-105338076D01*
X151704350Y-105461414D01*
X151577827Y-105612199D01*
X151483001Y-105784688D01*
X151423483Y-105972309D01*
X151401542Y-106167918D01*
X145797175Y-106167918D01*
X145779348Y-105986104D01*
X145777031Y-105978428D01*
X145724237Y-105803569D01*
X145722456Y-105797669D01*
X145630048Y-105623874D01*
X145560182Y-105538210D01*
X145509537Y-105476112D01*
X145509534Y-105476109D01*
X145505642Y-105471337D01*
X145500893Y-105467408D01*
X145358727Y-105349798D01*
X145358723Y-105349796D01*
X145353977Y-105345869D01*
X145180831Y-105252249D01*
X145086814Y-105223146D01*
X144998685Y-105195866D01*
X144998682Y-105195865D01*
X144992798Y-105194044D01*
X144986673Y-105193400D01*
X144986672Y-105193400D01*
X144803169Y-105174113D01*
X144803168Y-105174113D01*
X144797041Y-105173469D01*
X144724275Y-105180091D01*
X144607153Y-105190749D01*
X144607149Y-105190750D01*
X144601015Y-105191308D01*
X144412188Y-105246883D01*
X144237752Y-105338076D01*
X144084350Y-105461414D01*
X143957827Y-105612199D01*
X143863001Y-105784688D01*
X143803483Y-105972309D01*
X143781542Y-106167918D01*
X142700770Y-106167918D01*
X141239605Y-104706753D01*
X141205579Y-104644441D01*
X141202700Y-104617658D01*
X141202700Y-103627918D01*
X143781542Y-103627918D01*
X143798013Y-103824064D01*
X143799712Y-103829989D01*
X143811557Y-103871296D01*
X143852268Y-104013274D01*
X143855087Y-104018759D01*
X143939424Y-104182861D01*
X143939427Y-104182866D01*
X143942242Y-104188343D01*
X144064506Y-104342602D01*
X144214403Y-104470175D01*
X144219781Y-104473181D01*
X144219783Y-104473182D01*
X144249439Y-104489756D01*
X144386226Y-104566203D01*
X144392085Y-104568107D01*
X144392088Y-104568108D01*
X144452201Y-104587640D01*
X144573427Y-104627029D01*
X144579537Y-104627758D01*
X144579539Y-104627758D01*
X144646203Y-104635707D01*
X144768878Y-104650335D01*
X144775013Y-104649863D01*
X144775015Y-104649863D01*
X144958992Y-104635707D01*
X144958996Y-104635706D01*
X144965134Y-104635234D01*
X145154719Y-104582301D01*
X145330411Y-104493552D01*
X145343979Y-104482952D01*
X145480659Y-104376166D01*
X145480660Y-104376165D01*
X145485520Y-104372368D01*
X145614136Y-104223364D01*
X145617180Y-104218006D01*
X145708316Y-104057580D01*
X145708318Y-104057575D01*
X145711362Y-104052217D01*
X145773493Y-103865444D01*
X145779496Y-103817922D01*
X145797721Y-103673664D01*
X145797722Y-103673655D01*
X145798163Y-103670161D01*
X145798556Y-103642000D01*
X145779348Y-103446104D01*
X145777031Y-103438428D01*
X145755527Y-103367206D01*
X145722456Y-103257669D01*
X145630048Y-103083874D01*
X145517313Y-102945647D01*
X145509537Y-102936112D01*
X145509534Y-102936109D01*
X145505642Y-102931337D01*
X145500893Y-102927408D01*
X145358727Y-102809798D01*
X145358723Y-102809796D01*
X145353977Y-102805869D01*
X145180831Y-102712249D01*
X145063763Y-102676011D01*
X144998685Y-102655866D01*
X144998682Y-102655865D01*
X144992798Y-102654044D01*
X144986673Y-102653400D01*
X144986672Y-102653400D01*
X144803169Y-102634113D01*
X144803168Y-102634113D01*
X144797041Y-102633469D01*
X144724275Y-102640091D01*
X144607153Y-102650749D01*
X144607149Y-102650750D01*
X144601015Y-102651308D01*
X144412188Y-102706883D01*
X144237752Y-102798076D01*
X144084350Y-102921414D01*
X143957827Y-103072199D01*
X143863001Y-103244688D01*
X143861140Y-103250555D01*
X143861139Y-103250557D01*
X143841721Y-103311771D01*
X143803483Y-103432309D01*
X143781542Y-103627918D01*
X141202700Y-103627918D01*
X141202700Y-101922064D01*
X143786300Y-101922064D01*
X143798119Y-101981480D01*
X143843140Y-102048860D01*
X143910520Y-102093881D01*
X143969936Y-102105700D01*
X145610064Y-102105700D01*
X145669480Y-102093881D01*
X145736860Y-102048860D01*
X145781881Y-101981480D01*
X145793700Y-101922064D01*
X145793700Y-100281936D01*
X145781881Y-100222520D01*
X145736860Y-100155140D01*
X145669480Y-100110119D01*
X145610064Y-100098300D01*
X143969936Y-100098300D01*
X143910520Y-100110119D01*
X143843140Y-100155140D01*
X143798119Y-100222520D01*
X143786300Y-100281936D01*
X143786300Y-101922064D01*
X141202700Y-101922064D01*
X141202700Y-95955700D01*
X141222702Y-95887579D01*
X141276358Y-95841086D01*
X141328700Y-95829700D01*
X141644064Y-95829700D01*
X141703480Y-95817881D01*
X141770860Y-95772860D01*
X141815881Y-95705480D01*
X141818302Y-95693309D01*
X141823051Y-95681844D01*
X141826455Y-95683254D01*
X141849438Y-95639320D01*
X141911134Y-95604191D01*
X141982029Y-95607994D01*
X142040069Y-95650112D01*
X142058406Y-95674010D01*
X142058410Y-95674014D01*
X142063436Y-95680564D01*
X142189545Y-95777331D01*
X142262974Y-95807746D01*
X142328773Y-95835001D01*
X142328776Y-95835002D01*
X142336403Y-95838161D01*
X142344591Y-95839239D01*
X142415202Y-95848535D01*
X142494000Y-95858909D01*
X142502188Y-95857831D01*
X142643409Y-95839239D01*
X142651597Y-95838161D01*
X142659224Y-95835002D01*
X142659227Y-95835001D01*
X142725026Y-95807746D01*
X142798455Y-95777331D01*
X142917595Y-95685912D01*
X142983815Y-95660312D01*
X143053363Y-95674577D01*
X143099064Y-95715874D01*
X143137140Y-95772860D01*
X143204520Y-95817881D01*
X143263936Y-95829700D01*
X144804064Y-95829700D01*
X144863480Y-95817881D01*
X144930860Y-95772860D01*
X144975881Y-95705480D01*
X144982806Y-95670669D01*
X145776001Y-95670669D01*
X145776371Y-95677490D01*
X145781895Y-95728352D01*
X145785521Y-95743604D01*
X145830676Y-95864054D01*
X145839214Y-95879649D01*
X145915715Y-95981724D01*
X145928276Y-95994285D01*
X146030351Y-96070786D01*
X146045946Y-96079324D01*
X146166394Y-96124478D01*
X146181649Y-96128105D01*
X146232514Y-96133631D01*
X146239328Y-96134000D01*
X146761885Y-96134000D01*
X146777124Y-96129525D01*
X146778329Y-96128135D01*
X146780000Y-96120452D01*
X146780000Y-96115884D01*
X147288000Y-96115884D01*
X147292475Y-96131123D01*
X147293865Y-96132328D01*
X147301548Y-96133999D01*
X147828669Y-96133999D01*
X147835490Y-96133629D01*
X147886352Y-96128105D01*
X147901604Y-96124479D01*
X148022054Y-96079324D01*
X148037649Y-96070786D01*
X148139724Y-95994285D01*
X148152285Y-95981724D01*
X148228786Y-95879649D01*
X148237324Y-95864054D01*
X148282478Y-95743606D01*
X148286105Y-95728351D01*
X148291631Y-95677486D01*
X148292000Y-95670672D01*
X148292000Y-93998115D01*
X148287525Y-93982876D01*
X148286135Y-93981671D01*
X148278452Y-93980000D01*
X147306115Y-93980000D01*
X147290876Y-93984475D01*
X147289671Y-93985865D01*
X147288000Y-93993548D01*
X147288000Y-96115884D01*
X146780000Y-96115884D01*
X146780000Y-93998115D01*
X146775525Y-93982876D01*
X146774135Y-93981671D01*
X146766452Y-93980000D01*
X145794116Y-93980000D01*
X145778877Y-93984475D01*
X145777672Y-93985865D01*
X145776001Y-93993548D01*
X145776001Y-95670669D01*
X144982806Y-95670669D01*
X144987700Y-95646064D01*
X144987700Y-91952500D01*
X145007702Y-91884379D01*
X145061358Y-91837886D01*
X145113700Y-91826500D01*
X145650000Y-91826500D01*
X145718121Y-91846502D01*
X145764614Y-91900158D01*
X145776000Y-91952500D01*
X145776000Y-93453885D01*
X145780475Y-93469124D01*
X145781865Y-93470329D01*
X145789548Y-93472000D01*
X148273884Y-93472000D01*
X148289123Y-93467525D01*
X148290328Y-93466135D01*
X148291999Y-93458452D01*
X148291999Y-92446641D01*
X148312001Y-92378520D01*
X148365657Y-92332027D01*
X148435931Y-92321923D01*
X148500511Y-92351417D01*
X148507094Y-92357546D01*
X153172595Y-97023047D01*
X153206621Y-97085359D01*
X153209500Y-97112142D01*
X153209500Y-100192947D01*
X153189498Y-100261068D01*
X153135842Y-100307561D01*
X153065568Y-100317665D01*
X153003186Y-100290033D01*
X152973977Y-100265869D01*
X152800831Y-100172249D01*
X152706815Y-100143147D01*
X152618685Y-100115866D01*
X152618682Y-100115865D01*
X152612798Y-100114044D01*
X152606673Y-100113400D01*
X152606672Y-100113400D01*
X152423169Y-100094113D01*
X152423168Y-100094113D01*
X152417041Y-100093469D01*
X152350692Y-100099507D01*
X152227153Y-100110749D01*
X152227149Y-100110750D01*
X152221015Y-100111308D01*
X152032188Y-100166883D01*
X151857752Y-100258076D01*
X151704350Y-100381414D01*
X151577827Y-100532199D01*
X151483001Y-100704688D01*
X151423483Y-100892309D01*
X151401542Y-101087918D01*
X151418013Y-101284064D01*
X151472268Y-101473274D01*
X151475087Y-101478759D01*
X151559424Y-101642861D01*
X151559427Y-101642866D01*
X151562242Y-101648343D01*
X151684506Y-101802602D01*
X151689200Y-101806597D01*
X151824873Y-101922064D01*
X151834403Y-101930175D01*
X151839781Y-101933181D01*
X151839783Y-101933182D01*
X151926203Y-101981480D01*
X152006226Y-102026203D01*
X152012085Y-102028107D01*
X152012088Y-102028108D01*
X152067767Y-102046199D01*
X152193427Y-102087029D01*
X152199537Y-102087758D01*
X152199539Y-102087758D01*
X152266203Y-102095707D01*
X152388878Y-102110335D01*
X152395013Y-102109863D01*
X152395015Y-102109863D01*
X152578992Y-102095707D01*
X152578996Y-102095706D01*
X152585134Y-102095234D01*
X152774719Y-102042301D01*
X152950411Y-101953552D01*
X153005929Y-101910177D01*
X153071921Y-101884000D01*
X153141591Y-101897657D01*
X153192818Y-101946813D01*
X153209500Y-102009467D01*
X153209500Y-102325458D01*
X153189498Y-102393579D01*
X153172595Y-102414553D01*
X152911137Y-102676011D01*
X152848825Y-102710037D01*
X152784784Y-102707281D01*
X152618688Y-102655867D01*
X152618686Y-102655867D01*
X152612798Y-102654044D01*
X152606673Y-102653400D01*
X152606672Y-102653400D01*
X152423169Y-102634113D01*
X152423168Y-102634113D01*
X152417041Y-102633469D01*
X152344275Y-102640091D01*
X152227153Y-102650749D01*
X152227149Y-102650750D01*
X152221015Y-102651308D01*
X152032188Y-102706883D01*
X151857752Y-102798076D01*
X151704350Y-102921414D01*
X151577827Y-103072199D01*
X151483001Y-103244688D01*
X151481140Y-103250555D01*
X151481139Y-103250557D01*
X151461721Y-103311771D01*
X151423483Y-103432309D01*
X151401542Y-103627918D01*
X151418013Y-103824064D01*
X151419712Y-103829989D01*
X151431557Y-103871296D01*
X151472268Y-104013274D01*
X151475087Y-104018759D01*
X151559424Y-104182861D01*
X151559427Y-104182866D01*
X151562242Y-104188343D01*
X151684506Y-104342602D01*
X151834403Y-104470175D01*
X151839781Y-104473181D01*
X151839783Y-104473182D01*
X151869439Y-104489756D01*
X152006226Y-104566203D01*
X152012085Y-104568107D01*
X152012088Y-104568108D01*
X152072201Y-104587640D01*
X152193427Y-104627029D01*
X152199537Y-104627758D01*
X152199539Y-104627758D01*
X152266203Y-104635707D01*
X152388878Y-104650335D01*
X152395013Y-104649863D01*
X152395015Y-104649863D01*
X152578992Y-104635707D01*
X152578996Y-104635706D01*
X152585134Y-104635234D01*
X152774719Y-104582301D01*
X152950411Y-104493552D01*
X152963979Y-104482952D01*
X153100659Y-104376166D01*
X153100660Y-104376165D01*
X153105520Y-104372368D01*
X153234136Y-104223364D01*
X153237180Y-104218006D01*
X153328316Y-104057580D01*
X153328318Y-104057575D01*
X153331362Y-104052217D01*
X153393493Y-103865444D01*
X153399496Y-103817922D01*
X153417721Y-103673664D01*
X153417722Y-103673655D01*
X153418163Y-103670161D01*
X153418556Y-103642000D01*
X153399348Y-103446104D01*
X153397031Y-103438428D01*
X153380955Y-103385185D01*
X153344940Y-103265896D01*
X153344399Y-103194904D01*
X153376467Y-103140385D01*
X153756581Y-102760271D01*
X153764685Y-102752844D01*
X153785438Y-102735430D01*
X153793883Y-102728344D01*
X153812938Y-102695339D01*
X153818833Y-102686086D01*
X153840699Y-102654858D01*
X153843553Y-102644208D01*
X153845087Y-102640918D01*
X153846329Y-102637505D01*
X153851842Y-102627956D01*
X153858459Y-102590433D01*
X153860837Y-102579706D01*
X153867849Y-102553535D01*
X153867849Y-102553533D01*
X153870701Y-102542889D01*
X153867379Y-102504919D01*
X153866900Y-102493937D01*
X153866900Y-96943662D01*
X153867379Y-96932680D01*
X153869740Y-96905692D01*
X153870701Y-96894710D01*
X153867847Y-96884060D01*
X153867847Y-96884056D01*
X153860838Y-96857898D01*
X153858458Y-96847165D01*
X153853756Y-96820499D01*
X153851842Y-96809644D01*
X153846331Y-96800098D01*
X153845091Y-96796692D01*
X153843554Y-96793395D01*
X153840699Y-96782742D01*
X153818833Y-96751514D01*
X153812936Y-96742257D01*
X153799393Y-96718800D01*
X153793883Y-96709256D01*
X153785444Y-96702174D01*
X153785439Y-96702169D01*
X153764685Y-96684755D01*
X153756581Y-96677329D01*
X148358671Y-91279419D01*
X148351244Y-91271315D01*
X148333830Y-91250562D01*
X148333829Y-91250561D01*
X148326744Y-91242117D01*
X148293739Y-91223062D01*
X148284486Y-91217167D01*
X148253258Y-91195301D01*
X148242605Y-91192446D01*
X148239308Y-91190909D01*
X148235902Y-91189669D01*
X148226356Y-91184158D01*
X148188836Y-91177542D01*
X148178102Y-91175162D01*
X148151944Y-91168153D01*
X148151940Y-91168153D01*
X148141290Y-91165299D01*
X148103331Y-91168620D01*
X148103320Y-91168621D01*
X148092338Y-91169100D01*
X139815648Y-91169100D01*
X139804665Y-91168620D01*
X139777695Y-91166260D01*
X139777694Y-91166260D01*
X139766710Y-91165299D01*
X139756060Y-91168153D01*
X139756056Y-91168153D01*
X139729898Y-91175162D01*
X139719164Y-91177542D01*
X139681644Y-91184158D01*
X139672098Y-91189669D01*
X139668692Y-91190909D01*
X139665395Y-91192446D01*
X139654742Y-91195301D01*
X139623514Y-91217167D01*
X139614261Y-91223062D01*
X139581256Y-91242117D01*
X139574174Y-91250556D01*
X139574169Y-91250561D01*
X139556755Y-91271315D01*
X139549329Y-91279419D01*
X139539419Y-91289329D01*
X139531315Y-91296756D01*
X139502117Y-91321256D01*
X139496175Y-91331548D01*
X139483064Y-91354257D01*
X139477167Y-91363514D01*
X139455301Y-91394742D01*
X139452446Y-91405395D01*
X139450909Y-91408692D01*
X139449669Y-91412098D01*
X139444158Y-91421644D01*
X139442244Y-91432499D01*
X139437542Y-91459165D01*
X139435162Y-91469898D01*
X139428153Y-91496056D01*
X139428153Y-91496060D01*
X139425299Y-91506710D01*
X139426260Y-91517692D01*
X139428621Y-91544680D01*
X139429100Y-91555662D01*
X139429100Y-95499500D01*
X139409098Y-95567621D01*
X139355442Y-95614114D01*
X139303100Y-95625500D01*
X139258000Y-95625500D01*
X139189879Y-95605498D01*
X139143386Y-95551842D01*
X139132000Y-95499500D01*
X139132000Y-93998115D01*
X139127525Y-93982876D01*
X139126135Y-93981671D01*
X139118452Y-93980000D01*
X136634116Y-93980000D01*
X136618877Y-93984475D01*
X136617672Y-93985865D01*
X136616001Y-93993548D01*
X136616001Y-95005359D01*
X136595999Y-95073480D01*
X136542343Y-95119973D01*
X136472069Y-95130077D01*
X136407489Y-95100583D01*
X136400906Y-95094454D01*
X135864605Y-94558153D01*
X135830579Y-94495841D01*
X135827700Y-94469058D01*
X135827700Y-93453885D01*
X136616000Y-93453885D01*
X136620475Y-93469124D01*
X136621865Y-93470329D01*
X136629548Y-93472000D01*
X137601885Y-93472000D01*
X137617124Y-93467525D01*
X137618329Y-93466135D01*
X137620000Y-93458452D01*
X137620000Y-93453885D01*
X138128000Y-93453885D01*
X138132475Y-93469124D01*
X138133865Y-93470329D01*
X138141548Y-93472000D01*
X139113884Y-93472000D01*
X139129123Y-93467525D01*
X139130328Y-93466135D01*
X139131999Y-93458452D01*
X139131999Y-91781331D01*
X139131629Y-91774510D01*
X139126105Y-91723648D01*
X139122479Y-91708396D01*
X139077324Y-91587946D01*
X139068786Y-91572351D01*
X138992285Y-91470276D01*
X138979724Y-91457715D01*
X138877649Y-91381214D01*
X138862054Y-91372676D01*
X138741606Y-91327522D01*
X138726351Y-91323895D01*
X138675486Y-91318369D01*
X138668672Y-91318000D01*
X138146115Y-91318000D01*
X138130876Y-91322475D01*
X138129671Y-91323865D01*
X138128000Y-91331548D01*
X138128000Y-93453885D01*
X137620000Y-93453885D01*
X137620000Y-91336116D01*
X137615525Y-91320877D01*
X137614135Y-91319672D01*
X137606452Y-91318001D01*
X137079331Y-91318001D01*
X137072510Y-91318371D01*
X137021648Y-91323895D01*
X137006396Y-91327521D01*
X136885946Y-91372676D01*
X136870351Y-91381214D01*
X136768276Y-91457715D01*
X136755715Y-91470276D01*
X136679214Y-91572351D01*
X136670676Y-91587946D01*
X136625522Y-91708394D01*
X136621895Y-91723649D01*
X136616369Y-91774514D01*
X136616000Y-91781328D01*
X136616000Y-93453885D01*
X135827700Y-93453885D01*
X135827700Y-91805936D01*
X135815881Y-91746520D01*
X135770860Y-91679140D01*
X135703480Y-91634119D01*
X135644064Y-91622300D01*
X134103936Y-91622300D01*
X134044520Y-91634119D01*
X133977140Y-91679140D01*
X133932119Y-91746520D01*
X133920300Y-91805936D01*
X133920300Y-93147157D01*
X133900298Y-93215278D01*
X133846642Y-93261771D01*
X133776368Y-93271875D01*
X133717596Y-93247119D01*
X133654455Y-93198669D01*
X133581026Y-93168254D01*
X133515227Y-93140999D01*
X133515224Y-93140998D01*
X133507597Y-93137839D01*
X133350000Y-93117091D01*
X133192403Y-93137839D01*
X133184776Y-93140998D01*
X133184773Y-93140999D01*
X133118975Y-93168254D01*
X133045546Y-93198669D01*
X133038993Y-93203697D01*
X133038990Y-93203699D01*
X133030404Y-93210287D01*
X132964184Y-93235888D01*
X132894635Y-93221624D01*
X132843839Y-93172023D01*
X132827700Y-93110325D01*
X132827700Y-91805936D01*
X132815881Y-91746520D01*
X132770860Y-91679140D01*
X132703480Y-91634119D01*
X132644064Y-91622300D01*
X131103936Y-91622300D01*
X131044520Y-91634119D01*
X130977140Y-91679140D01*
X130932119Y-91746520D01*
X130920300Y-91805936D01*
X130920300Y-95646064D01*
X124141728Y-95646064D01*
X126026495Y-93525283D01*
X129173862Y-89983799D01*
X129234064Y-89946168D01*
X129268043Y-89941500D01*
X139739764Y-89941501D01*
G37*
%TD.AperFunction*%
%TD*%
M02*
