M48
; DRILL file {KiCad (6.0.7-1)-1} date Friday, August 05, 2022 at 12:38:42 PM
; FORMAT={-:-/ absolute / inch / decimal}
; #@! TF.CreationDate,2022-08-05T12:38:42-05:00
; #@! TF.GenerationSoftware,Kicad,Pcbnew,(6.0.7-1)-1
; #@! TF.FileFunction,Plated,1,2,PTH
FMAT,2
INCH
; #@! TA.AperFunction,Plated,PTH,ViaDrill
T1C0.0157
; #@! TA.AperFunction,Plated,PTH,ComponentDrill
T2C0.0315
; #@! TA.AperFunction,Plated,PTH,ComponentDrill
T3C0.0354
%
G90
G05
T1
X5.19Y-3.69
X5.4881Y-4.0281
X5.67Y-3.69
T2
X4.9116Y-4.6
X4.9116Y-4.81
X5.1084Y-4.6
X5.1084Y-4.81
X5.16Y-4.04
X5.16Y-4.34
X5.188Y-5.1095
X5.29Y-4.1416
X5.29Y-4.3384
X5.33Y-4.6043
X5.33Y-4.7965
X5.488Y-5.1095
X5.7004Y-3.9804
X5.7004Y-4.0804
X5.7004Y-4.1804
X5.7004Y-4.2804
X5.7004Y-4.3804
X5.7004Y-4.4804
X5.7004Y-4.5804
X5.7004Y-4.6804
X5.7004Y-4.7804
X5.7004Y-4.8804
X5.7004Y-4.9804
X5.7004Y-5.0804
X5.7004Y-5.1804
X5.7004Y-5.2804
X6.0004Y-3.9804
X6.0004Y-4.0804
X6.0004Y-4.1804
X6.0004Y-4.2804
X6.0004Y-4.3804
X6.0004Y-4.4804
X6.0004Y-4.5804
X6.0004Y-4.6804
X6.0004Y-4.7804
X6.0004Y-4.8804
X6.0004Y-4.9804
X6.0004Y-5.0804
X6.0004Y-5.1804
X6.0004Y-5.2804
T3
X4.95Y-5.08
X5.05Y-5.08
T0
M30
