M48
; DRILL file {KiCad (6.0.7-1)-1} date Monday, August 08, 2022 at 08:03:10 AM
; FORMAT={-:-/ absolute / inch / decimal}
; #@! TF.CreationDate,2022-08-08T08:03:10-05:00
; #@! TF.GenerationSoftware,Kicad,Pcbnew,(6.0.7-1)-1
; #@! TF.FileFunction,Plated,1,2,PTH
FMAT,2
INCH
; #@! TA.AperFunction,Plated,PTH,ViaDrill
T1C0.0157
; #@! TA.AperFunction,Plated,PTH,ComponentDrill
T2C0.0315
; #@! TA.AperFunction,Plated,PTH,ComponentDrill
T3C0.0402
; #@! TA.AperFunction,Plated,PTH,ComponentDrill
T4C0.1000
%
G90
G05
T1
X5.26Y-3.8
X5.265Y-3.975
X5.665Y-5.22
X5.68Y-3.8
T2
X5.35Y-4.13
X5.65Y-4.13
T3
X5.12Y-4.52
X5.12Y-4.62
X5.12Y-4.72
X5.12Y-4.82
X5.12Y-4.92
X5.12Y-5.02
X5.12Y-5.12
X5.12Y-5.22
X5.12Y-5.32
X5.12Y-5.42
X5.12Y-5.52
X5.12Y-5.62
X5.12Y-5.72
X5.12Y-5.82
X5.12Y-5.92
X5.12Y-6.02
X5.92Y-4.92
X5.92Y-5.02
X5.92Y-5.12
X5.92Y-5.22
X5.92Y-5.32
X5.92Y-5.42
X5.92Y-5.52
X5.92Y-5.62
X5.92Y-5.72
X5.92Y-5.82
X5.92Y-5.92
X5.92Y-6.02
T4
X5.17Y-4.37
X5.87Y-4.37
T0
M30
