%TF.GenerationSoftware,KiCad,Pcbnew,(6.0.7-1)-1*%
%TF.CreationDate,2022-08-05T12:56:01-05:00*%
%TF.ProjectId,Adafruit NeoPixel 8 Stick,41646166-7275-4697-9420-4e656f506978,rev?*%
%TF.SameCoordinates,Original*%
%TF.FileFunction,Copper,L2,Bot*%
%TF.FilePolarity,Positive*%
%FSLAX46Y46*%
G04 Gerber Fmt 4.6, Leading zero omitted, Abs format (unit mm)*
G04 Created by KiCad (PCBNEW (6.0.7-1)-1) date 2022-08-05 12:56:01*
%MOMM*%
%LPD*%
G01*
G04 APERTURE LIST*
%TA.AperFunction,ComponentPad*%
%ADD10R,1.570000X1.570000*%
%TD*%
%TA.AperFunction,ComponentPad*%
%ADD11C,1.570000*%
%TD*%
%TA.AperFunction,ComponentPad*%
%ADD12C,3.840000*%
%TD*%
%TA.AperFunction,ComponentPad*%
%ADD13C,1.600000*%
%TD*%
%TA.AperFunction,ComponentPad*%
%ADD14O,1.600000X1.600000*%
%TD*%
%TA.AperFunction,SMDPad,CuDef*%
%ADD15R,1.500000X3.800000*%
%TD*%
%TA.AperFunction,ViaPad*%
%ADD16C,0.800000*%
%TD*%
%TA.AperFunction,Conductor*%
%ADD17C,0.250000*%
%TD*%
G04 APERTURE END LIST*
D10*
%TO.P,MD1,0,P0.26/SDA*%
%TO.N,/SDA*%
X150368000Y-152908000D03*
D11*
%TO.P,MD1,1,P0.27/SCL*%
%TO.N,/SCL*%
X150368000Y-150368000D03*
%TO.P,MD1,2,P1.01/SDA1/UART1_RTS/SPI1_SCK/PWM3*%
%TO.N,unconnected-(MD1-Pad2)*%
X150368000Y-147828000D03*
%TO.P,MD1,3,P1.02/SCL1/UART1_CTS/SPI1_MOSI/PWM3*%
%TO.N,unconnected-(MD1-Pad3)*%
X150368000Y-145288000D03*
%TO.P,MD1,3.3V,3.3V*%
%TO.N,unconnected-(MD1-Pad3.3V)*%
X130048000Y-117348000D03*
%TO.P,MD1,4,P1.08/SPI1_MISO/PWM1*%
%TO.N,unconnected-(MD1-Pad4)*%
X150368000Y-142748000D03*
%TO.P,MD1,5,P1.10/PWM1*%
%TO.N,unconnected-(MD1-Pad5)*%
X150368000Y-140208000D03*
%TO.P,MD1,6,P1.11/PWM1*%
%TO.N,unconnected-(MD1-Pad6)*%
X150368000Y-137668000D03*
%TO.P,MD1,7,P1.12/PWM0*%
%TO.N,unconnected-(MD1-Pad7)*%
X150368000Y-135128000D03*
%TO.P,MD1,8,P1.03/PWM1*%
%TO.N,unconnected-(MD1-Pad8)*%
X150368000Y-132588000D03*
%TO.P,MD1,9,P0.06/UART1_TX*%
%TO.N,unconnected-(MD1-Pad9)*%
X130048000Y-150368000D03*
%TO.P,MD1,10,P0.08/UART1_RX*%
%TO.N,unconnected-(MD1-Pad10)*%
X130048000Y-147828000D03*
%TO.P,MD1,11,P1.14/SPI_MISO*%
%TO.N,unconnected-(MD1-Pad11)*%
X130048000Y-145288000D03*
%TO.P,MD1,12,P1.13/SPI_MOSI*%
%TO.N,unconnected-(MD1-Pad12)*%
X130048000Y-142748000D03*
%TO.P,MD1,13,P1.15/SPI_SCK*%
%TO.N,unconnected-(MD1-Pad13)*%
X130048000Y-140208000D03*
%TO.P,MD1,14,P0.31/PWM3/SPI_SS/ADC5*%
%TO.N,unconnected-(MD1-Pad14)*%
X130048000Y-137668000D03*
%TO.P,MD1,15,P0.30/PWM3/ADC4*%
%TO.N,unconnected-(MD1-Pad15)*%
X130048000Y-135128000D03*
%TO.P,MD1,16,P0.29/PWM2/ADC3*%
%TO.N,Net-(CN2-Pad3)*%
X130048000Y-132588000D03*
%TO.P,MD1,17,P0.28/PWM2/ADC2*%
%TO.N,unconnected-(MD1-Pad17)*%
X130048000Y-130048000D03*
%TO.P,MD1,18,P0.04/PWM2/ADC1*%
%TO.N,unconnected-(MD1-Pad18)*%
X130048000Y-127508000D03*
%TO.P,MD1,19,P0.03/PWM2/ADC0*%
%TO.N,unconnected-(MD1-Pad19)*%
X130048000Y-124968000D03*
%TO.P,MD1,20,P0.11/~{MODE}*%
%TO.N,unconnected-(MD1-Pad20)*%
X130048000Y-119888000D03*
D12*
%TO.P,MD1,21,MNT_1*%
%TO.N,unconnected-(MD1-Pad21)*%
X131318000Y-110998000D03*
%TO.P,MD1,22,MNT_2*%
%TO.N,unconnected-(MD1-Pad22)*%
X149098000Y-110998000D03*
D11*
%TO.P,MD1,ENABLE,ENABLE*%
%TO.N,unconnected-(MD1-PadENABLE)*%
X150368000Y-127508000D03*
%TO.P,MD1,GND,GND*%
%TO.N,GND*%
X130048000Y-122428000D03*
%TO.P,MD1,LiPo+,LiPo+*%
%TO.N,unconnected-(MD1-PadLiPo+)*%
X150368000Y-124968000D03*
%TO.P,MD1,NC,NC*%
%TO.N,unconnected-(MD1-PadNC)*%
X130048000Y-152908000D03*
%TO.P,MD1,RESET,P0.18/~{RESET}*%
%TO.N,unconnected-(MD1-PadRESET)*%
X130048000Y-114808000D03*
%TO.P,MD1,VBUS,VBUS*%
%TO.N,+5V*%
X150368000Y-130048000D03*
%TD*%
D13*
%TO.P,R1,1*%
%TO.N,Net-(R1-Pad1)*%
X143510000Y-104902000D03*
D14*
%TO.P,R1,2*%
%TO.N,Net-(R1-Pad2)*%
X135890000Y-104902000D03*
%TD*%
D15*
%TO.P,CN2,1,1*%
%TO.N,GND*%
X147288000Y-93726000D03*
%TO.P,CN2,2,2*%
%TO.N,+5V*%
X144288000Y-93726000D03*
%TO.P,CN2,3,3*%
%TO.N,Net-(CN2-Pad3)*%
X141128000Y-93726000D03*
%TO.P,CN2,4,4*%
%TO.N,GND*%
X138128000Y-93726000D03*
%TO.P,CN2,5,5*%
%TO.N,/SDA*%
X135128000Y-93726000D03*
%TO.P,CN2,6,6*%
%TO.N,/SCL*%
X132128000Y-93726000D03*
%TD*%
D16*
%TO.N,/SCL*%
X133731000Y-100965000D03*
%TO.N,+5V*%
X144272000Y-93980000D03*
%TO.N,Net-(CN2-Pad3)*%
X143891000Y-132588000D03*
%TO.N,/SDA*%
X135128000Y-93853000D03*
%TD*%
D17*
%TO.N,/SCL*%
X150368000Y-150368000D02*
X148336000Y-150368000D01*
X148336000Y-150368000D02*
X142367000Y-144399000D01*
X142367000Y-144399000D02*
X142367000Y-109601000D01*
X142367000Y-109601000D02*
X133731000Y-100965000D01*
X132128000Y-99362000D02*
X133731000Y-100965000D01*
%TO.N,Net-(CN2-Pad3)*%
X141128000Y-106711000D02*
X143891000Y-109474000D01*
X143891000Y-109474000D02*
X143891000Y-132588000D01*
X141128000Y-93726000D02*
X141128000Y-106711000D01*
%TO.N,/SDA*%
X135509000Y-107823000D02*
X129032000Y-101346000D01*
X150368000Y-152908000D02*
X148255235Y-152908000D01*
X129032000Y-101346000D02*
X129032000Y-92329000D01*
X130556000Y-90805000D02*
X132842000Y-90805000D01*
X148255235Y-152908000D02*
X135509000Y-140161765D01*
X135509000Y-140161765D02*
X135509000Y-107823000D01*
X129032000Y-92329000D02*
X130556000Y-90805000D01*
X132842000Y-90805000D02*
X135128000Y-93091000D01*
%TO.N,/SCL*%
X132128000Y-93726000D02*
X132128000Y-99362000D01*
%TD*%
%TA.AperFunction,Conductor*%
%TO.N,GND*%
G36*
X139862223Y-89941499D02*
G01*
X150134028Y-89941499D01*
X150202149Y-89961501D01*
X150226272Y-89981667D01*
X155950964Y-96133999D01*
X156994744Y-97255751D01*
X157026504Y-97319247D01*
X157028500Y-97341583D01*
X157028500Y-160884500D01*
X157008498Y-160952621D01*
X156954842Y-160999114D01*
X156902500Y-161010500D01*
X122579500Y-161010500D01*
X122511379Y-160990498D01*
X122464886Y-160936842D01*
X122453500Y-160884500D01*
X122453500Y-156771237D01*
X129793482Y-156771237D01*
X129821605Y-157014294D01*
X129822984Y-157019168D01*
X129822985Y-157019172D01*
X129859637Y-157148697D01*
X129888226Y-157249728D01*
X129890360Y-157254303D01*
X129890362Y-157254310D01*
X129947632Y-157377124D01*
X129991632Y-157471482D01*
X130129161Y-157673851D01*
X130132638Y-157677528D01*
X130132643Y-157677534D01*
X130227333Y-157777665D01*
X130297277Y-157851628D01*
X130301303Y-157854706D01*
X130301304Y-157854707D01*
X130487633Y-157997167D01*
X130487637Y-157997170D01*
X130491653Y-158000240D01*
X130707289Y-158115863D01*
X130938637Y-158195522D01*
X130943620Y-158196383D01*
X130943625Y-158196384D01*
X131102486Y-158223824D01*
X131179745Y-158237169D01*
X131183702Y-158237349D01*
X131183705Y-158237349D01*
X131207637Y-158238436D01*
X131207656Y-158238436D01*
X131209056Y-158238500D01*
X131379485Y-158238500D01*
X131381993Y-158238298D01*
X131381998Y-158238298D01*
X131556848Y-158224230D01*
X131556852Y-158224229D01*
X131561890Y-158223824D01*
X131566798Y-158222618D01*
X131566801Y-158222618D01*
X131794592Y-158166667D01*
X131799506Y-158165460D01*
X131804158Y-158163485D01*
X131804162Y-158163484D01*
X132020076Y-158071834D01*
X132024734Y-158069857D01*
X132101806Y-158021322D01*
X132227500Y-157942168D01*
X132227503Y-157942166D01*
X132231779Y-157939473D01*
X132331420Y-157851628D01*
X132411518Y-157781013D01*
X132411521Y-157781010D01*
X132415315Y-157777665D01*
X132418526Y-157773756D01*
X132567412Y-157592499D01*
X132567414Y-157592496D01*
X132570620Y-157588593D01*
X132638780Y-157471482D01*
X132691156Y-157381492D01*
X132691157Y-157381490D01*
X132693698Y-157377124D01*
X132781383Y-157148697D01*
X132831418Y-156909189D01*
X132837683Y-156771237D01*
X147573482Y-156771237D01*
X147601605Y-157014294D01*
X147602984Y-157019168D01*
X147602985Y-157019172D01*
X147639637Y-157148697D01*
X147668226Y-157249728D01*
X147670360Y-157254303D01*
X147670362Y-157254310D01*
X147727632Y-157377124D01*
X147771632Y-157471482D01*
X147909161Y-157673851D01*
X147912638Y-157677528D01*
X147912643Y-157677534D01*
X148007333Y-157777665D01*
X148077277Y-157851628D01*
X148081303Y-157854706D01*
X148081304Y-157854707D01*
X148267633Y-157997167D01*
X148267637Y-157997170D01*
X148271653Y-158000240D01*
X148487289Y-158115863D01*
X148718637Y-158195522D01*
X148723620Y-158196383D01*
X148723625Y-158196384D01*
X148882486Y-158223824D01*
X148959745Y-158237169D01*
X148963702Y-158237349D01*
X148963705Y-158237349D01*
X148987637Y-158238436D01*
X148987656Y-158238436D01*
X148989056Y-158238500D01*
X149159485Y-158238500D01*
X149161993Y-158238298D01*
X149161998Y-158238298D01*
X149336848Y-158224230D01*
X149336852Y-158224229D01*
X149341890Y-158223824D01*
X149346798Y-158222618D01*
X149346801Y-158222618D01*
X149574592Y-158166667D01*
X149579506Y-158165460D01*
X149584158Y-158163485D01*
X149584162Y-158163484D01*
X149800076Y-158071834D01*
X149804734Y-158069857D01*
X149881806Y-158021322D01*
X150007500Y-157942168D01*
X150007503Y-157942166D01*
X150011779Y-157939473D01*
X150111420Y-157851628D01*
X150191518Y-157781013D01*
X150191521Y-157781010D01*
X150195315Y-157777665D01*
X150198526Y-157773756D01*
X150347412Y-157592499D01*
X150347414Y-157592496D01*
X150350620Y-157588593D01*
X150418780Y-157471482D01*
X150471156Y-157381492D01*
X150471157Y-157381490D01*
X150473698Y-157377124D01*
X150561383Y-157148697D01*
X150611418Y-156909189D01*
X150622518Y-156664763D01*
X150594395Y-156421706D01*
X150557767Y-156292263D01*
X150529152Y-156191141D01*
X150529151Y-156191139D01*
X150527774Y-156186272D01*
X150525640Y-156181697D01*
X150525638Y-156181690D01*
X150426504Y-155969099D01*
X150424368Y-155964518D01*
X150286839Y-155762149D01*
X150283362Y-155758472D01*
X150283357Y-155758466D01*
X150122205Y-155588054D01*
X150122204Y-155588053D01*
X150118723Y-155584372D01*
X150000302Y-155493832D01*
X149928367Y-155438833D01*
X149928363Y-155438830D01*
X149924347Y-155435760D01*
X149708711Y-155320137D01*
X149477363Y-155240478D01*
X149472380Y-155239617D01*
X149472375Y-155239616D01*
X149297933Y-155209485D01*
X149236255Y-155198831D01*
X149232298Y-155198651D01*
X149232295Y-155198651D01*
X149208363Y-155197564D01*
X149208344Y-155197564D01*
X149206944Y-155197500D01*
X149036515Y-155197500D01*
X149034007Y-155197702D01*
X149034002Y-155197702D01*
X148859152Y-155211770D01*
X148859148Y-155211771D01*
X148854110Y-155212176D01*
X148849202Y-155213382D01*
X148849199Y-155213382D01*
X148732171Y-155242127D01*
X148616494Y-155270540D01*
X148611842Y-155272515D01*
X148611838Y-155272516D01*
X148503535Y-155318488D01*
X148391266Y-155366143D01*
X148386982Y-155368841D01*
X148188500Y-155493832D01*
X148188497Y-155493834D01*
X148184221Y-155496527D01*
X148180427Y-155499872D01*
X148004482Y-155654987D01*
X148004479Y-155654990D01*
X148000685Y-155658335D01*
X147997475Y-155662243D01*
X147997474Y-155662244D01*
X147918437Y-155758466D01*
X147845380Y-155847407D01*
X147842838Y-155851775D01*
X147774554Y-155969099D01*
X147722302Y-156058876D01*
X147634617Y-156287303D01*
X147584582Y-156526811D01*
X147573482Y-156771237D01*
X132837683Y-156771237D01*
X132842518Y-156664763D01*
X132814395Y-156421706D01*
X132777767Y-156292263D01*
X132749152Y-156191141D01*
X132749151Y-156191139D01*
X132747774Y-156186272D01*
X132745640Y-156181697D01*
X132745638Y-156181690D01*
X132646504Y-155969099D01*
X132644368Y-155964518D01*
X132506839Y-155762149D01*
X132503362Y-155758472D01*
X132503357Y-155758466D01*
X132342205Y-155588054D01*
X132342204Y-155588053D01*
X132338723Y-155584372D01*
X132220302Y-155493832D01*
X132148367Y-155438833D01*
X132148363Y-155438830D01*
X132144347Y-155435760D01*
X131928711Y-155320137D01*
X131697363Y-155240478D01*
X131692380Y-155239617D01*
X131692375Y-155239616D01*
X131517933Y-155209485D01*
X131456255Y-155198831D01*
X131452298Y-155198651D01*
X131452295Y-155198651D01*
X131428363Y-155197564D01*
X131428344Y-155197564D01*
X131426944Y-155197500D01*
X131256515Y-155197500D01*
X131254007Y-155197702D01*
X131254002Y-155197702D01*
X131079152Y-155211770D01*
X131079148Y-155211771D01*
X131074110Y-155212176D01*
X131069202Y-155213382D01*
X131069199Y-155213382D01*
X130952171Y-155242127D01*
X130836494Y-155270540D01*
X130831842Y-155272515D01*
X130831838Y-155272516D01*
X130723535Y-155318488D01*
X130611266Y-155366143D01*
X130606982Y-155368841D01*
X130408500Y-155493832D01*
X130408497Y-155493834D01*
X130404221Y-155496527D01*
X130400427Y-155499872D01*
X130224482Y-155654987D01*
X130224479Y-155654990D01*
X130220685Y-155658335D01*
X130217475Y-155662243D01*
X130217474Y-155662244D01*
X130138437Y-155758466D01*
X130065380Y-155847407D01*
X130062838Y-155851775D01*
X129994554Y-155969099D01*
X129942302Y-156058876D01*
X129854617Y-156287303D01*
X129804582Y-156526811D01*
X129793482Y-156771237D01*
X122453500Y-156771237D01*
X122453500Y-152894129D01*
X129054613Y-152894129D01*
X129070837Y-153087343D01*
X129124282Y-153273726D01*
X129127098Y-153279205D01*
X129127099Y-153279208D01*
X129170009Y-153362700D01*
X129212911Y-153446178D01*
X129333347Y-153598132D01*
X129338041Y-153602127D01*
X129372262Y-153631251D01*
X129481005Y-153723799D01*
X129650260Y-153818392D01*
X129834664Y-153878308D01*
X130027194Y-153901266D01*
X130033329Y-153900794D01*
X130033331Y-153900794D01*
X130214375Y-153886864D01*
X130214379Y-153886863D01*
X130220517Y-153886391D01*
X130226449Y-153884735D01*
X130226453Y-153884734D01*
X130362487Y-153846752D01*
X130407268Y-153834249D01*
X130580335Y-153746826D01*
X130609809Y-153723799D01*
X130728265Y-153631251D01*
X130728266Y-153631250D01*
X130733126Y-153627453D01*
X130859820Y-153480676D01*
X130955593Y-153312086D01*
X131016795Y-153128105D01*
X131041097Y-152935740D01*
X131041484Y-152908000D01*
X131022563Y-152715031D01*
X131020782Y-152709132D01*
X131020781Y-152709127D01*
X130968303Y-152535312D01*
X130966522Y-152529413D01*
X130875494Y-152358214D01*
X130871604Y-152353444D01*
X130871601Y-152353440D01*
X130756836Y-152212725D01*
X130756834Y-152212723D01*
X130752947Y-152207957D01*
X130603549Y-152084364D01*
X130598132Y-152081435D01*
X130598129Y-152081433D01*
X130438411Y-151995074D01*
X130438406Y-151995072D01*
X130432991Y-151992144D01*
X130410287Y-151985116D01*
X130253655Y-151936630D01*
X130253652Y-151936629D01*
X130247768Y-151934808D01*
X130241643Y-151934164D01*
X130241642Y-151934164D01*
X130061064Y-151915184D01*
X130061063Y-151915184D01*
X130054936Y-151914540D01*
X129934787Y-151925474D01*
X129867981Y-151931554D01*
X129867980Y-151931554D01*
X129861840Y-151932113D01*
X129855926Y-151933854D01*
X129855924Y-151933854D01*
X129735667Y-151969248D01*
X129675834Y-151986858D01*
X129504005Y-152076688D01*
X129352896Y-152198183D01*
X129348937Y-152202901D01*
X129348936Y-152202902D01*
X129232221Y-152341997D01*
X129228263Y-152346714D01*
X129225300Y-152352103D01*
X129225297Y-152352108D01*
X129218949Y-152363656D01*
X129134854Y-152516625D01*
X129132993Y-152522492D01*
X129132992Y-152522494D01*
X129130797Y-152529413D01*
X129076226Y-152701443D01*
X129054613Y-152894129D01*
X122453500Y-152894129D01*
X122453500Y-150354129D01*
X129054613Y-150354129D01*
X129070837Y-150547343D01*
X129124282Y-150733726D01*
X129127098Y-150739205D01*
X129127099Y-150739208D01*
X129210095Y-150900699D01*
X129212911Y-150906178D01*
X129333347Y-151058132D01*
X129338041Y-151062127D01*
X129372262Y-151091251D01*
X129481005Y-151183799D01*
X129650260Y-151278392D01*
X129834664Y-151338308D01*
X130027194Y-151361266D01*
X130033329Y-151360794D01*
X130033331Y-151360794D01*
X130214375Y-151346864D01*
X130214379Y-151346863D01*
X130220517Y-151346391D01*
X130226449Y-151344735D01*
X130226453Y-151344734D01*
X130313893Y-151320320D01*
X130407268Y-151294249D01*
X130580335Y-151206826D01*
X130609809Y-151183799D01*
X130728265Y-151091251D01*
X130728266Y-151091250D01*
X130733126Y-151087453D01*
X130859820Y-150940676D01*
X130955593Y-150772086D01*
X131016795Y-150588105D01*
X131041097Y-150395740D01*
X131041484Y-150368000D01*
X131022563Y-150175031D01*
X131020782Y-150169132D01*
X131020781Y-150169127D01*
X130968303Y-149995312D01*
X130966522Y-149989413D01*
X130875494Y-149818214D01*
X130871604Y-149813444D01*
X130871601Y-149813440D01*
X130756836Y-149672725D01*
X130756834Y-149672723D01*
X130752947Y-149667957D01*
X130603549Y-149544364D01*
X130598132Y-149541435D01*
X130598129Y-149541433D01*
X130438411Y-149455074D01*
X130438406Y-149455072D01*
X130432991Y-149452144D01*
X130410287Y-149445116D01*
X130253655Y-149396630D01*
X130253652Y-149396629D01*
X130247768Y-149394808D01*
X130241643Y-149394164D01*
X130241642Y-149394164D01*
X130061064Y-149375184D01*
X130061063Y-149375184D01*
X130054936Y-149374540D01*
X129934787Y-149385474D01*
X129867981Y-149391554D01*
X129867980Y-149391554D01*
X129861840Y-149392113D01*
X129855926Y-149393854D01*
X129855924Y-149393854D01*
X129729485Y-149431068D01*
X129675834Y-149446858D01*
X129504005Y-149536688D01*
X129352896Y-149658183D01*
X129348937Y-149662901D01*
X129348936Y-149662902D01*
X129232221Y-149801997D01*
X129228263Y-149806714D01*
X129225300Y-149812103D01*
X129225297Y-149812108D01*
X129218949Y-149823656D01*
X129134854Y-149976625D01*
X129132993Y-149982492D01*
X129132992Y-149982494D01*
X129130797Y-149989413D01*
X129076226Y-150161443D01*
X129054613Y-150354129D01*
X122453500Y-150354129D01*
X122453500Y-147814129D01*
X129054613Y-147814129D01*
X129070837Y-148007343D01*
X129124282Y-148193726D01*
X129127098Y-148199205D01*
X129127099Y-148199208D01*
X129210095Y-148360699D01*
X129212911Y-148366178D01*
X129333347Y-148518132D01*
X129338041Y-148522127D01*
X129372262Y-148551251D01*
X129481005Y-148643799D01*
X129650260Y-148738392D01*
X129834664Y-148798308D01*
X130027194Y-148821266D01*
X130033329Y-148820794D01*
X130033331Y-148820794D01*
X130214375Y-148806864D01*
X130214379Y-148806863D01*
X130220517Y-148806391D01*
X130226449Y-148804735D01*
X130226453Y-148804734D01*
X130313892Y-148780320D01*
X130407268Y-148754249D01*
X130580335Y-148666826D01*
X130609809Y-148643799D01*
X130728265Y-148551251D01*
X130728266Y-148551250D01*
X130733126Y-148547453D01*
X130859820Y-148400676D01*
X130955593Y-148232086D01*
X131016795Y-148048105D01*
X131041097Y-147855740D01*
X131041484Y-147828000D01*
X131022563Y-147635031D01*
X131020782Y-147629132D01*
X131020781Y-147629127D01*
X130968303Y-147455312D01*
X130966522Y-147449413D01*
X130875494Y-147278214D01*
X130871604Y-147273444D01*
X130871601Y-147273440D01*
X130756836Y-147132725D01*
X130756834Y-147132723D01*
X130752947Y-147127957D01*
X130603549Y-147004364D01*
X130598132Y-147001435D01*
X130598129Y-147001433D01*
X130438411Y-146915074D01*
X130438406Y-146915072D01*
X130432991Y-146912144D01*
X130410287Y-146905116D01*
X130253655Y-146856630D01*
X130253652Y-146856629D01*
X130247768Y-146854808D01*
X130241643Y-146854164D01*
X130241642Y-146854164D01*
X130061064Y-146835184D01*
X130061063Y-146835184D01*
X130054936Y-146834540D01*
X129934787Y-146845474D01*
X129867981Y-146851554D01*
X129867980Y-146851554D01*
X129861840Y-146852113D01*
X129855926Y-146853854D01*
X129855924Y-146853854D01*
X129729485Y-146891068D01*
X129675834Y-146906858D01*
X129504005Y-146996688D01*
X129352896Y-147118183D01*
X129348937Y-147122901D01*
X129348936Y-147122902D01*
X129232221Y-147261997D01*
X129228263Y-147266714D01*
X129225300Y-147272103D01*
X129225297Y-147272108D01*
X129218949Y-147283656D01*
X129134854Y-147436625D01*
X129132993Y-147442492D01*
X129132992Y-147442494D01*
X129130797Y-147449413D01*
X129076226Y-147621443D01*
X129054613Y-147814129D01*
X122453500Y-147814129D01*
X122453500Y-145274129D01*
X129054613Y-145274129D01*
X129070837Y-145467343D01*
X129124282Y-145653726D01*
X129127098Y-145659205D01*
X129127099Y-145659208D01*
X129210095Y-145820699D01*
X129212911Y-145826178D01*
X129333347Y-145978132D01*
X129338041Y-145982127D01*
X129372262Y-146011251D01*
X129481005Y-146103799D01*
X129650260Y-146198392D01*
X129834664Y-146258308D01*
X130027194Y-146281266D01*
X130033329Y-146280794D01*
X130033331Y-146280794D01*
X130214375Y-146266864D01*
X130214379Y-146266863D01*
X130220517Y-146266391D01*
X130226449Y-146264735D01*
X130226453Y-146264734D01*
X130313892Y-146240320D01*
X130407268Y-146214249D01*
X130580335Y-146126826D01*
X130609809Y-146103799D01*
X130728265Y-146011251D01*
X130728266Y-146011250D01*
X130733126Y-146007453D01*
X130859820Y-145860676D01*
X130955593Y-145692086D01*
X131016795Y-145508105D01*
X131041097Y-145315740D01*
X131041484Y-145288000D01*
X131022563Y-145095031D01*
X131020782Y-145089132D01*
X131020781Y-145089127D01*
X130968303Y-144915312D01*
X130966522Y-144909413D01*
X130875494Y-144738214D01*
X130871604Y-144733444D01*
X130871601Y-144733440D01*
X130756836Y-144592725D01*
X130756834Y-144592723D01*
X130752947Y-144587957D01*
X130603549Y-144464364D01*
X130598132Y-144461435D01*
X130598129Y-144461433D01*
X130438411Y-144375074D01*
X130438406Y-144375072D01*
X130432991Y-144372144D01*
X130410287Y-144365116D01*
X130253655Y-144316630D01*
X130253652Y-144316629D01*
X130247768Y-144314808D01*
X130241643Y-144314164D01*
X130241642Y-144314164D01*
X130061064Y-144295184D01*
X130061063Y-144295184D01*
X130054936Y-144294540D01*
X129934787Y-144305474D01*
X129867981Y-144311554D01*
X129867980Y-144311554D01*
X129861840Y-144312113D01*
X129855926Y-144313854D01*
X129855924Y-144313854D01*
X129729485Y-144351068D01*
X129675834Y-144366858D01*
X129504005Y-144456688D01*
X129352896Y-144578183D01*
X129348937Y-144582901D01*
X129348936Y-144582902D01*
X129296434Y-144645471D01*
X129228263Y-144726714D01*
X129225300Y-144732103D01*
X129225297Y-144732108D01*
X129218949Y-144743656D01*
X129134854Y-144896625D01*
X129132993Y-144902492D01*
X129132992Y-144902494D01*
X129130797Y-144909413D01*
X129076226Y-145081443D01*
X129054613Y-145274129D01*
X122453500Y-145274129D01*
X122453500Y-142734129D01*
X129054613Y-142734129D01*
X129070837Y-142927343D01*
X129124282Y-143113726D01*
X129127098Y-143119205D01*
X129127099Y-143119208D01*
X129210095Y-143280699D01*
X129212911Y-143286178D01*
X129333347Y-143438132D01*
X129338041Y-143442127D01*
X129372262Y-143471251D01*
X129481005Y-143563799D01*
X129650260Y-143658392D01*
X129834664Y-143718308D01*
X130027194Y-143741266D01*
X130033329Y-143740794D01*
X130033331Y-143740794D01*
X130214375Y-143726864D01*
X130214379Y-143726863D01*
X130220517Y-143726391D01*
X130226449Y-143724735D01*
X130226453Y-143724734D01*
X130313892Y-143700320D01*
X130407268Y-143674249D01*
X130580335Y-143586826D01*
X130609809Y-143563799D01*
X130728265Y-143471251D01*
X130728266Y-143471250D01*
X130733126Y-143467453D01*
X130859820Y-143320676D01*
X130955593Y-143152086D01*
X131016795Y-142968105D01*
X131041097Y-142775740D01*
X131041484Y-142748000D01*
X131022563Y-142555031D01*
X131020782Y-142549132D01*
X131020781Y-142549127D01*
X130968303Y-142375312D01*
X130966522Y-142369413D01*
X130875494Y-142198214D01*
X130871604Y-142193444D01*
X130871601Y-142193440D01*
X130756836Y-142052725D01*
X130756834Y-142052723D01*
X130752947Y-142047957D01*
X130603549Y-141924364D01*
X130598132Y-141921435D01*
X130598129Y-141921433D01*
X130438411Y-141835074D01*
X130438406Y-141835072D01*
X130432991Y-141832144D01*
X130410287Y-141825116D01*
X130253655Y-141776630D01*
X130253652Y-141776629D01*
X130247768Y-141774808D01*
X130241643Y-141774164D01*
X130241642Y-141774164D01*
X130061064Y-141755184D01*
X130061063Y-141755184D01*
X130054936Y-141754540D01*
X129934787Y-141765474D01*
X129867981Y-141771554D01*
X129867980Y-141771554D01*
X129861840Y-141772113D01*
X129855926Y-141773854D01*
X129855924Y-141773854D01*
X129729485Y-141811068D01*
X129675834Y-141826858D01*
X129504005Y-141916688D01*
X129352896Y-142038183D01*
X129348937Y-142042901D01*
X129348936Y-142042902D01*
X129232221Y-142181997D01*
X129228263Y-142186714D01*
X129225300Y-142192103D01*
X129225297Y-142192108D01*
X129218949Y-142203656D01*
X129134854Y-142356625D01*
X129132993Y-142362492D01*
X129132992Y-142362494D01*
X129130797Y-142369413D01*
X129076226Y-142541443D01*
X129054613Y-142734129D01*
X122453500Y-142734129D01*
X122453500Y-140194129D01*
X129054613Y-140194129D01*
X129070837Y-140387343D01*
X129124282Y-140573726D01*
X129127098Y-140579205D01*
X129127099Y-140579208D01*
X129210095Y-140740699D01*
X129212911Y-140746178D01*
X129333347Y-140898132D01*
X129338041Y-140902127D01*
X129372262Y-140931251D01*
X129481005Y-141023799D01*
X129650260Y-141118392D01*
X129834664Y-141178308D01*
X130027194Y-141201266D01*
X130033329Y-141200794D01*
X130033331Y-141200794D01*
X130214375Y-141186864D01*
X130214379Y-141186863D01*
X130220517Y-141186391D01*
X130226449Y-141184735D01*
X130226453Y-141184734D01*
X130313892Y-141160320D01*
X130407268Y-141134249D01*
X130580335Y-141046826D01*
X130609809Y-141023799D01*
X130728265Y-140931251D01*
X130728266Y-140931250D01*
X130733126Y-140927453D01*
X130859820Y-140780676D01*
X130955593Y-140612086D01*
X131016795Y-140428105D01*
X131028679Y-140334037D01*
X131040655Y-140239242D01*
X131040656Y-140239235D01*
X131041097Y-140235740D01*
X131041484Y-140208000D01*
X131022563Y-140015031D01*
X131020782Y-140009132D01*
X131020781Y-140009127D01*
X130968303Y-139835312D01*
X130966522Y-139829413D01*
X130875494Y-139658214D01*
X130871604Y-139653444D01*
X130871601Y-139653440D01*
X130756836Y-139512725D01*
X130756834Y-139512723D01*
X130752947Y-139507957D01*
X130603549Y-139384364D01*
X130598132Y-139381435D01*
X130598129Y-139381433D01*
X130438411Y-139295074D01*
X130438406Y-139295072D01*
X130432991Y-139292144D01*
X130410287Y-139285116D01*
X130253655Y-139236630D01*
X130253652Y-139236629D01*
X130247768Y-139234808D01*
X130241643Y-139234164D01*
X130241642Y-139234164D01*
X130061064Y-139215184D01*
X130061063Y-139215184D01*
X130054936Y-139214540D01*
X129934787Y-139225474D01*
X129867981Y-139231554D01*
X129867980Y-139231554D01*
X129861840Y-139232113D01*
X129855926Y-139233854D01*
X129855924Y-139233854D01*
X129729485Y-139271068D01*
X129675834Y-139286858D01*
X129504005Y-139376688D01*
X129352896Y-139498183D01*
X129348937Y-139502901D01*
X129348936Y-139502902D01*
X129232221Y-139641997D01*
X129228263Y-139646714D01*
X129225300Y-139652103D01*
X129225297Y-139652108D01*
X129218949Y-139663656D01*
X129134854Y-139816625D01*
X129132993Y-139822492D01*
X129132992Y-139822494D01*
X129130797Y-139829413D01*
X129076226Y-140001443D01*
X129054613Y-140194129D01*
X122453500Y-140194129D01*
X122453500Y-137654129D01*
X129054613Y-137654129D01*
X129070837Y-137847343D01*
X129124282Y-138033726D01*
X129127098Y-138039205D01*
X129127099Y-138039208D01*
X129210095Y-138200699D01*
X129212911Y-138206178D01*
X129333347Y-138358132D01*
X129338041Y-138362127D01*
X129372262Y-138391251D01*
X129481005Y-138483799D01*
X129650260Y-138578392D01*
X129834664Y-138638308D01*
X130027194Y-138661266D01*
X130033329Y-138660794D01*
X130033331Y-138660794D01*
X130214375Y-138646864D01*
X130214379Y-138646863D01*
X130220517Y-138646391D01*
X130226449Y-138644735D01*
X130226453Y-138644734D01*
X130313892Y-138620320D01*
X130407268Y-138594249D01*
X130580335Y-138506826D01*
X130609809Y-138483799D01*
X130728265Y-138391251D01*
X130728266Y-138391250D01*
X130733126Y-138387453D01*
X130859820Y-138240676D01*
X130955593Y-138072086D01*
X131016795Y-137888105D01*
X131041097Y-137695740D01*
X131041484Y-137668000D01*
X131022563Y-137475031D01*
X131020782Y-137469132D01*
X131020781Y-137469127D01*
X130968303Y-137295312D01*
X130966522Y-137289413D01*
X130875494Y-137118214D01*
X130871604Y-137113444D01*
X130871601Y-137113440D01*
X130756836Y-136972725D01*
X130756834Y-136972723D01*
X130752947Y-136967957D01*
X130603549Y-136844364D01*
X130598132Y-136841435D01*
X130598129Y-136841433D01*
X130438411Y-136755074D01*
X130438406Y-136755072D01*
X130432991Y-136752144D01*
X130410287Y-136745116D01*
X130253655Y-136696630D01*
X130253652Y-136696629D01*
X130247768Y-136694808D01*
X130241643Y-136694164D01*
X130241642Y-136694164D01*
X130061064Y-136675184D01*
X130061063Y-136675184D01*
X130054936Y-136674540D01*
X129934787Y-136685474D01*
X129867981Y-136691554D01*
X129867980Y-136691554D01*
X129861840Y-136692113D01*
X129855926Y-136693854D01*
X129855924Y-136693854D01*
X129729485Y-136731068D01*
X129675834Y-136746858D01*
X129504005Y-136836688D01*
X129352896Y-136958183D01*
X129348937Y-136962901D01*
X129348936Y-136962902D01*
X129232221Y-137101997D01*
X129228263Y-137106714D01*
X129225300Y-137112103D01*
X129225297Y-137112108D01*
X129218949Y-137123656D01*
X129134854Y-137276625D01*
X129132993Y-137282492D01*
X129132992Y-137282494D01*
X129130797Y-137289413D01*
X129076226Y-137461443D01*
X129054613Y-137654129D01*
X122453500Y-137654129D01*
X122453500Y-135114129D01*
X129054613Y-135114129D01*
X129070837Y-135307343D01*
X129124282Y-135493726D01*
X129127098Y-135499205D01*
X129127099Y-135499208D01*
X129210095Y-135660699D01*
X129212911Y-135666178D01*
X129333347Y-135818132D01*
X129338041Y-135822127D01*
X129372262Y-135851251D01*
X129481005Y-135943799D01*
X129650260Y-136038392D01*
X129834664Y-136098308D01*
X130027194Y-136121266D01*
X130033329Y-136120794D01*
X130033331Y-136120794D01*
X130214375Y-136106864D01*
X130214379Y-136106863D01*
X130220517Y-136106391D01*
X130226449Y-136104735D01*
X130226453Y-136104734D01*
X130313892Y-136080320D01*
X130407268Y-136054249D01*
X130580335Y-135966826D01*
X130609809Y-135943799D01*
X130728265Y-135851251D01*
X130728266Y-135851250D01*
X130733126Y-135847453D01*
X130859820Y-135700676D01*
X130955593Y-135532086D01*
X131016795Y-135348105D01*
X131041097Y-135155740D01*
X131041484Y-135128000D01*
X131022563Y-134935031D01*
X131020782Y-134929132D01*
X131020781Y-134929127D01*
X130968303Y-134755312D01*
X130966522Y-134749413D01*
X130875494Y-134578214D01*
X130871604Y-134573444D01*
X130871601Y-134573440D01*
X130756836Y-134432725D01*
X130756834Y-134432723D01*
X130752947Y-134427957D01*
X130603549Y-134304364D01*
X130598132Y-134301435D01*
X130598129Y-134301433D01*
X130438411Y-134215074D01*
X130438406Y-134215072D01*
X130432991Y-134212144D01*
X130410287Y-134205116D01*
X130253655Y-134156630D01*
X130253652Y-134156629D01*
X130247768Y-134154808D01*
X130241643Y-134154164D01*
X130241642Y-134154164D01*
X130061064Y-134135184D01*
X130061063Y-134135184D01*
X130054936Y-134134540D01*
X129934787Y-134145474D01*
X129867981Y-134151554D01*
X129867980Y-134151554D01*
X129861840Y-134152113D01*
X129855926Y-134153854D01*
X129855924Y-134153854D01*
X129729485Y-134191068D01*
X129675834Y-134206858D01*
X129504005Y-134296688D01*
X129352896Y-134418183D01*
X129348937Y-134422901D01*
X129348936Y-134422902D01*
X129232221Y-134561997D01*
X129228263Y-134566714D01*
X129225300Y-134572103D01*
X129225297Y-134572108D01*
X129218949Y-134583656D01*
X129134854Y-134736625D01*
X129132993Y-134742492D01*
X129132992Y-134742494D01*
X129130797Y-134749413D01*
X129076226Y-134921443D01*
X129054613Y-135114129D01*
X122453500Y-135114129D01*
X122453500Y-132574129D01*
X129054613Y-132574129D01*
X129070837Y-132767343D01*
X129124282Y-132953726D01*
X129127098Y-132959205D01*
X129127099Y-132959208D01*
X129204752Y-133110302D01*
X129212911Y-133126178D01*
X129333347Y-133278132D01*
X129338041Y-133282127D01*
X129372262Y-133311251D01*
X129481005Y-133403799D01*
X129650260Y-133498392D01*
X129834664Y-133558308D01*
X130027194Y-133581266D01*
X130033329Y-133580794D01*
X130033331Y-133580794D01*
X130214375Y-133566864D01*
X130214379Y-133566863D01*
X130220517Y-133566391D01*
X130226449Y-133564735D01*
X130226453Y-133564734D01*
X130313892Y-133540320D01*
X130407268Y-133514249D01*
X130580335Y-133426826D01*
X130609809Y-133403799D01*
X130728265Y-133311251D01*
X130728266Y-133311250D01*
X130733126Y-133307453D01*
X130859820Y-133160676D01*
X130955593Y-132992086D01*
X131016795Y-132808105D01*
X131041097Y-132615740D01*
X131041484Y-132588000D01*
X131022563Y-132395031D01*
X131020782Y-132389132D01*
X131020781Y-132389127D01*
X130968303Y-132215312D01*
X130966522Y-132209413D01*
X130900507Y-132085257D01*
X130878388Y-132043656D01*
X130878386Y-132043653D01*
X130875494Y-132038214D01*
X130871604Y-132033444D01*
X130871601Y-132033440D01*
X130756836Y-131892725D01*
X130756834Y-131892723D01*
X130752947Y-131887957D01*
X130603549Y-131764364D01*
X130598132Y-131761435D01*
X130598129Y-131761433D01*
X130438411Y-131675074D01*
X130438406Y-131675072D01*
X130432991Y-131672144D01*
X130410287Y-131665116D01*
X130253655Y-131616630D01*
X130253652Y-131616629D01*
X130247768Y-131614808D01*
X130241643Y-131614164D01*
X130241642Y-131614164D01*
X130061064Y-131595184D01*
X130061063Y-131595184D01*
X130054936Y-131594540D01*
X129934787Y-131605474D01*
X129867981Y-131611554D01*
X129867980Y-131611554D01*
X129861840Y-131612113D01*
X129855926Y-131613854D01*
X129855924Y-131613854D01*
X129729485Y-131651068D01*
X129675834Y-131666858D01*
X129504005Y-131756688D01*
X129352896Y-131878183D01*
X129348937Y-131882901D01*
X129348936Y-131882902D01*
X129236300Y-132017136D01*
X129228263Y-132026714D01*
X129225300Y-132032103D01*
X129225297Y-132032108D01*
X129178574Y-132117098D01*
X129134854Y-132196625D01*
X129132993Y-132202492D01*
X129132992Y-132202494D01*
X129130797Y-132209413D01*
X129076226Y-132381443D01*
X129054613Y-132574129D01*
X122453500Y-132574129D01*
X122453500Y-130034129D01*
X129054613Y-130034129D01*
X129070837Y-130227343D01*
X129124282Y-130413726D01*
X129127098Y-130419205D01*
X129127099Y-130419208D01*
X129210095Y-130580699D01*
X129212911Y-130586178D01*
X129333347Y-130738132D01*
X129338041Y-130742127D01*
X129372262Y-130771251D01*
X129481005Y-130863799D01*
X129650260Y-130958392D01*
X129834664Y-131018308D01*
X130027194Y-131041266D01*
X130033329Y-131040794D01*
X130033331Y-131040794D01*
X130214375Y-131026864D01*
X130214379Y-131026863D01*
X130220517Y-131026391D01*
X130226449Y-131024735D01*
X130226453Y-131024734D01*
X130313892Y-131000320D01*
X130407268Y-130974249D01*
X130580335Y-130886826D01*
X130609809Y-130863799D01*
X130728265Y-130771251D01*
X130728266Y-130771250D01*
X130733126Y-130767453D01*
X130859820Y-130620676D01*
X130955593Y-130452086D01*
X131016795Y-130268105D01*
X131041097Y-130075740D01*
X131041484Y-130048000D01*
X131022563Y-129855031D01*
X131020782Y-129849132D01*
X131020781Y-129849127D01*
X130968303Y-129675312D01*
X130966522Y-129669413D01*
X130875494Y-129498214D01*
X130871604Y-129493444D01*
X130871601Y-129493440D01*
X130756836Y-129352725D01*
X130756834Y-129352723D01*
X130752947Y-129347957D01*
X130603549Y-129224364D01*
X130598132Y-129221435D01*
X130598129Y-129221433D01*
X130438411Y-129135074D01*
X130438406Y-129135072D01*
X130432991Y-129132144D01*
X130410287Y-129125116D01*
X130253655Y-129076630D01*
X130253652Y-129076629D01*
X130247768Y-129074808D01*
X130241643Y-129074164D01*
X130241642Y-129074164D01*
X130061064Y-129055184D01*
X130061063Y-129055184D01*
X130054936Y-129054540D01*
X129934787Y-129065474D01*
X129867981Y-129071554D01*
X129867980Y-129071554D01*
X129861840Y-129072113D01*
X129855926Y-129073854D01*
X129855924Y-129073854D01*
X129729485Y-129111068D01*
X129675834Y-129126858D01*
X129504005Y-129216688D01*
X129352896Y-129338183D01*
X129348937Y-129342901D01*
X129348936Y-129342902D01*
X129232221Y-129481997D01*
X129228263Y-129486714D01*
X129225300Y-129492103D01*
X129225297Y-129492108D01*
X129218949Y-129503656D01*
X129134854Y-129656625D01*
X129132993Y-129662492D01*
X129132992Y-129662494D01*
X129130797Y-129669413D01*
X129076226Y-129841443D01*
X129054613Y-130034129D01*
X122453500Y-130034129D01*
X122453500Y-127494129D01*
X129054613Y-127494129D01*
X129070837Y-127687343D01*
X129124282Y-127873726D01*
X129127098Y-127879205D01*
X129127099Y-127879208D01*
X129210095Y-128040699D01*
X129212911Y-128046178D01*
X129333347Y-128198132D01*
X129338041Y-128202127D01*
X129372262Y-128231251D01*
X129481005Y-128323799D01*
X129650260Y-128418392D01*
X129834664Y-128478308D01*
X130027194Y-128501266D01*
X130033329Y-128500794D01*
X130033331Y-128500794D01*
X130214375Y-128486864D01*
X130214379Y-128486863D01*
X130220517Y-128486391D01*
X130226449Y-128484735D01*
X130226453Y-128484734D01*
X130313892Y-128460320D01*
X130407268Y-128434249D01*
X130580335Y-128346826D01*
X130609809Y-128323799D01*
X130728265Y-128231251D01*
X130728266Y-128231250D01*
X130733126Y-128227453D01*
X130859820Y-128080676D01*
X130955593Y-127912086D01*
X131016795Y-127728105D01*
X131041097Y-127535740D01*
X131041484Y-127508000D01*
X131022563Y-127315031D01*
X131020782Y-127309132D01*
X131020781Y-127309127D01*
X130968303Y-127135312D01*
X130966522Y-127129413D01*
X130875494Y-126958214D01*
X130871604Y-126953444D01*
X130871601Y-126953440D01*
X130756836Y-126812725D01*
X130756834Y-126812723D01*
X130752947Y-126807957D01*
X130603549Y-126684364D01*
X130598132Y-126681435D01*
X130598129Y-126681433D01*
X130438411Y-126595074D01*
X130438406Y-126595072D01*
X130432991Y-126592144D01*
X130410287Y-126585116D01*
X130253655Y-126536630D01*
X130253652Y-126536629D01*
X130247768Y-126534808D01*
X130241643Y-126534164D01*
X130241642Y-126534164D01*
X130061064Y-126515184D01*
X130061063Y-126515184D01*
X130054936Y-126514540D01*
X129934787Y-126525474D01*
X129867981Y-126531554D01*
X129867980Y-126531554D01*
X129861840Y-126532113D01*
X129855926Y-126533854D01*
X129855924Y-126533854D01*
X129729485Y-126571068D01*
X129675834Y-126586858D01*
X129504005Y-126676688D01*
X129352896Y-126798183D01*
X129348937Y-126802901D01*
X129348936Y-126802902D01*
X129232221Y-126941997D01*
X129228263Y-126946714D01*
X129225300Y-126952103D01*
X129225297Y-126952108D01*
X129218949Y-126963656D01*
X129134854Y-127116625D01*
X129132993Y-127122492D01*
X129132992Y-127122494D01*
X129130797Y-127129413D01*
X129076226Y-127301443D01*
X129054613Y-127494129D01*
X122453500Y-127494129D01*
X122453500Y-124954129D01*
X129054613Y-124954129D01*
X129070837Y-125147343D01*
X129124282Y-125333726D01*
X129127098Y-125339205D01*
X129127099Y-125339208D01*
X129210095Y-125500699D01*
X129212911Y-125506178D01*
X129333347Y-125658132D01*
X129338041Y-125662127D01*
X129372262Y-125691251D01*
X129481005Y-125783799D01*
X129650260Y-125878392D01*
X129834664Y-125938308D01*
X130027194Y-125961266D01*
X130033329Y-125960794D01*
X130033331Y-125960794D01*
X130214375Y-125946864D01*
X130214379Y-125946863D01*
X130220517Y-125946391D01*
X130226449Y-125944735D01*
X130226453Y-125944734D01*
X130313892Y-125920320D01*
X130407268Y-125894249D01*
X130580335Y-125806826D01*
X130609809Y-125783799D01*
X130728265Y-125691251D01*
X130728266Y-125691250D01*
X130733126Y-125687453D01*
X130859820Y-125540676D01*
X130955593Y-125372086D01*
X131016795Y-125188105D01*
X131041097Y-124995740D01*
X131041484Y-124968000D01*
X131022563Y-124775031D01*
X131020782Y-124769132D01*
X131020781Y-124769127D01*
X130968303Y-124595312D01*
X130966522Y-124589413D01*
X130875494Y-124418214D01*
X130871604Y-124413444D01*
X130871601Y-124413440D01*
X130756836Y-124272725D01*
X130756834Y-124272723D01*
X130752947Y-124267957D01*
X130603549Y-124144364D01*
X130598132Y-124141435D01*
X130598129Y-124141433D01*
X130438411Y-124055074D01*
X130438406Y-124055072D01*
X130432991Y-124052144D01*
X130410287Y-124045116D01*
X130253655Y-123996630D01*
X130253652Y-123996629D01*
X130247768Y-123994808D01*
X130241643Y-123994164D01*
X130241642Y-123994164D01*
X130062369Y-123975321D01*
X130055088Y-123972325D01*
X130051706Y-123974103D01*
X130038300Y-123976054D01*
X129867981Y-123991554D01*
X129867980Y-123991554D01*
X129861840Y-123992113D01*
X129855926Y-123993854D01*
X129855924Y-123993854D01*
X129729485Y-124031068D01*
X129675834Y-124046858D01*
X129504005Y-124136688D01*
X129352896Y-124258183D01*
X129348937Y-124262901D01*
X129348936Y-124262902D01*
X129232221Y-124401997D01*
X129228263Y-124406714D01*
X129225300Y-124412103D01*
X129225297Y-124412108D01*
X129218949Y-124423656D01*
X129134854Y-124576625D01*
X129132993Y-124582492D01*
X129132992Y-124582494D01*
X129130797Y-124589413D01*
X129076226Y-124761443D01*
X129054613Y-124954129D01*
X122453500Y-124954129D01*
X122453500Y-123503292D01*
X129337263Y-123503292D01*
X129346559Y-123515307D01*
X129394522Y-123548891D01*
X129404017Y-123554374D01*
X129599097Y-123645341D01*
X129609389Y-123649087D01*
X129817300Y-123704796D01*
X129828095Y-123706699D01*
X130037862Y-123725052D01*
X130047444Y-123728800D01*
X130052874Y-123726066D01*
X130064558Y-123724490D01*
X130267905Y-123706699D01*
X130278700Y-123704796D01*
X130486611Y-123649087D01*
X130496903Y-123645341D01*
X130691983Y-123554374D01*
X130701478Y-123548891D01*
X130750278Y-123514721D01*
X130758654Y-123504242D01*
X130751586Y-123490796D01*
X130060812Y-122800022D01*
X130046868Y-122792408D01*
X130045035Y-122792539D01*
X130038420Y-122796790D01*
X129343693Y-123491517D01*
X129337263Y-123503292D01*
X122453500Y-123503292D01*
X122453500Y-122433475D01*
X128750540Y-122433475D01*
X128769301Y-122647905D01*
X128771204Y-122658700D01*
X128826913Y-122866611D01*
X128830659Y-122876903D01*
X128921629Y-123071988D01*
X128927107Y-123081474D01*
X128961279Y-123130278D01*
X128971757Y-123138653D01*
X128985205Y-123131585D01*
X129675978Y-122440812D01*
X129682356Y-122429132D01*
X130412408Y-122429132D01*
X130412539Y-122430965D01*
X130416790Y-122437580D01*
X131111517Y-123132307D01*
X131123291Y-123138737D01*
X131135307Y-123129440D01*
X131168893Y-123081474D01*
X131174371Y-123071988D01*
X131265341Y-122876903D01*
X131269087Y-122866611D01*
X131324796Y-122658700D01*
X131326699Y-122647905D01*
X131345460Y-122433475D01*
X131345460Y-122422525D01*
X131326699Y-122208095D01*
X131324796Y-122197300D01*
X131269087Y-121989389D01*
X131265341Y-121979097D01*
X131174371Y-121784012D01*
X131168893Y-121774526D01*
X131134721Y-121725722D01*
X131124243Y-121717347D01*
X131110795Y-121724415D01*
X130420022Y-122415188D01*
X130412408Y-122429132D01*
X129682356Y-122429132D01*
X129683592Y-122426868D01*
X129683461Y-122425035D01*
X129679210Y-122418420D01*
X128984483Y-121723693D01*
X128972709Y-121717263D01*
X128960693Y-121726560D01*
X128927107Y-121774526D01*
X128921629Y-121784012D01*
X128830659Y-121979097D01*
X128826913Y-121989389D01*
X128771204Y-122197300D01*
X128769301Y-122208095D01*
X128750540Y-122422525D01*
X128750540Y-122433475D01*
X122453500Y-122433475D01*
X122453500Y-121351757D01*
X129337347Y-121351757D01*
X129344415Y-121365205D01*
X130035188Y-122055978D01*
X130049132Y-122063592D01*
X130050965Y-122063461D01*
X130057580Y-122059210D01*
X130752307Y-121364483D01*
X130758737Y-121352708D01*
X130749441Y-121340693D01*
X130701478Y-121307109D01*
X130691983Y-121301626D01*
X130496903Y-121210659D01*
X130486611Y-121206913D01*
X130278700Y-121151204D01*
X130267893Y-121149299D01*
X130051970Y-121130407D01*
X130046671Y-121128334D01*
X130026252Y-121131964D01*
X129828095Y-121149301D01*
X129817300Y-121151204D01*
X129609389Y-121206913D01*
X129599097Y-121210659D01*
X129404012Y-121301629D01*
X129394526Y-121307107D01*
X129345722Y-121341279D01*
X129337347Y-121351757D01*
X122453500Y-121351757D01*
X122453500Y-119874129D01*
X129054613Y-119874129D01*
X129070837Y-120067343D01*
X129124282Y-120253726D01*
X129127098Y-120259205D01*
X129127099Y-120259208D01*
X129210095Y-120420699D01*
X129212911Y-120426178D01*
X129333347Y-120578132D01*
X129338041Y-120582127D01*
X129372262Y-120611251D01*
X129481005Y-120703799D01*
X129650260Y-120798392D01*
X129834664Y-120858308D01*
X130027194Y-120881266D01*
X130026948Y-120883329D01*
X130031582Y-120884797D01*
X130038126Y-120881357D01*
X130053280Y-120879259D01*
X130124117Y-120873808D01*
X130214376Y-120866864D01*
X130214381Y-120866863D01*
X130220517Y-120866391D01*
X130226449Y-120864735D01*
X130226453Y-120864734D01*
X130313893Y-120840320D01*
X130407268Y-120814249D01*
X130580335Y-120726826D01*
X130609809Y-120703799D01*
X130728265Y-120611251D01*
X130728266Y-120611250D01*
X130733126Y-120607453D01*
X130859820Y-120460676D01*
X130955593Y-120292086D01*
X131016795Y-120108105D01*
X131041097Y-119915740D01*
X131041484Y-119888000D01*
X131022563Y-119695031D01*
X131020782Y-119689132D01*
X131020781Y-119689127D01*
X130968303Y-119515312D01*
X130966522Y-119509413D01*
X130875494Y-119338214D01*
X130871604Y-119333444D01*
X130871601Y-119333440D01*
X130756836Y-119192725D01*
X130756834Y-119192723D01*
X130752947Y-119187957D01*
X130603549Y-119064364D01*
X130598132Y-119061435D01*
X130598129Y-119061433D01*
X130438411Y-118975074D01*
X130438406Y-118975072D01*
X130432991Y-118972144D01*
X130410287Y-118965116D01*
X130253655Y-118916630D01*
X130253652Y-118916629D01*
X130247768Y-118914808D01*
X130241643Y-118914164D01*
X130241642Y-118914164D01*
X130061064Y-118895184D01*
X130061063Y-118895184D01*
X130054936Y-118894540D01*
X129934787Y-118905474D01*
X129867981Y-118911554D01*
X129867980Y-118911554D01*
X129861840Y-118912113D01*
X129855926Y-118913854D01*
X129855924Y-118913854D01*
X129729485Y-118951068D01*
X129675834Y-118966858D01*
X129504005Y-119056688D01*
X129352896Y-119178183D01*
X129348937Y-119182901D01*
X129348936Y-119182902D01*
X129232221Y-119321997D01*
X129228263Y-119326714D01*
X129225300Y-119332103D01*
X129225297Y-119332108D01*
X129218949Y-119343656D01*
X129134854Y-119496625D01*
X129132993Y-119502492D01*
X129132992Y-119502494D01*
X129130797Y-119509413D01*
X129076226Y-119681443D01*
X129054613Y-119874129D01*
X122453500Y-119874129D01*
X122453500Y-117334129D01*
X129054613Y-117334129D01*
X129070837Y-117527343D01*
X129124282Y-117713726D01*
X129127098Y-117719205D01*
X129127099Y-117719208D01*
X129210095Y-117880699D01*
X129212911Y-117886178D01*
X129333347Y-118038132D01*
X129338041Y-118042127D01*
X129372262Y-118071251D01*
X129481005Y-118163799D01*
X129650260Y-118258392D01*
X129834664Y-118318308D01*
X130027194Y-118341266D01*
X130033329Y-118340794D01*
X130033331Y-118340794D01*
X130214375Y-118326864D01*
X130214379Y-118326863D01*
X130220517Y-118326391D01*
X130226449Y-118324735D01*
X130226453Y-118324734D01*
X130313893Y-118300320D01*
X130407268Y-118274249D01*
X130580335Y-118186826D01*
X130609809Y-118163799D01*
X130728265Y-118071251D01*
X130728266Y-118071250D01*
X130733126Y-118067453D01*
X130859820Y-117920676D01*
X130955593Y-117752086D01*
X131016795Y-117568105D01*
X131041097Y-117375740D01*
X131041484Y-117348000D01*
X131022563Y-117155031D01*
X131020782Y-117149132D01*
X131020781Y-117149127D01*
X130968303Y-116975312D01*
X130966522Y-116969413D01*
X130875494Y-116798214D01*
X130871604Y-116793444D01*
X130871601Y-116793440D01*
X130756836Y-116652725D01*
X130756834Y-116652723D01*
X130752947Y-116647957D01*
X130603549Y-116524364D01*
X130598132Y-116521435D01*
X130598129Y-116521433D01*
X130438411Y-116435074D01*
X130438406Y-116435072D01*
X130432991Y-116432144D01*
X130410287Y-116425116D01*
X130253655Y-116376630D01*
X130253652Y-116376629D01*
X130247768Y-116374808D01*
X130241643Y-116374164D01*
X130241642Y-116374164D01*
X130061064Y-116355184D01*
X130061063Y-116355184D01*
X130054936Y-116354540D01*
X129934787Y-116365474D01*
X129867981Y-116371554D01*
X129867980Y-116371554D01*
X129861840Y-116372113D01*
X129855926Y-116373854D01*
X129855924Y-116373854D01*
X129729485Y-116411068D01*
X129675834Y-116426858D01*
X129504005Y-116516688D01*
X129352896Y-116638183D01*
X129348937Y-116642901D01*
X129348936Y-116642902D01*
X129232221Y-116781997D01*
X129228263Y-116786714D01*
X129225300Y-116792103D01*
X129225297Y-116792108D01*
X129218949Y-116803656D01*
X129134854Y-116956625D01*
X129132993Y-116962492D01*
X129132992Y-116962494D01*
X129130797Y-116969413D01*
X129076226Y-117141443D01*
X129054613Y-117334129D01*
X122453500Y-117334129D01*
X122453500Y-114794129D01*
X129054613Y-114794129D01*
X129070837Y-114987343D01*
X129124282Y-115173726D01*
X129127098Y-115179205D01*
X129127099Y-115179208D01*
X129210095Y-115340699D01*
X129212911Y-115346178D01*
X129333347Y-115498132D01*
X129338041Y-115502127D01*
X129372262Y-115531251D01*
X129481005Y-115623799D01*
X129650260Y-115718392D01*
X129834664Y-115778308D01*
X130027194Y-115801266D01*
X130033329Y-115800794D01*
X130033331Y-115800794D01*
X130214375Y-115786864D01*
X130214379Y-115786863D01*
X130220517Y-115786391D01*
X130226449Y-115784735D01*
X130226453Y-115784734D01*
X130313892Y-115760320D01*
X130407268Y-115734249D01*
X130580335Y-115646826D01*
X130609809Y-115623799D01*
X130728265Y-115531251D01*
X130728266Y-115531250D01*
X130733126Y-115527453D01*
X130859820Y-115380676D01*
X130955593Y-115212086D01*
X131016795Y-115028105D01*
X131041097Y-114835740D01*
X131041484Y-114808000D01*
X131022563Y-114615031D01*
X131020782Y-114609132D01*
X131020781Y-114609127D01*
X130968303Y-114435312D01*
X130966522Y-114429413D01*
X130875494Y-114258214D01*
X130871604Y-114253444D01*
X130871601Y-114253440D01*
X130756836Y-114112725D01*
X130756834Y-114112723D01*
X130752947Y-114107957D01*
X130603549Y-113984364D01*
X130598132Y-113981435D01*
X130598129Y-113981433D01*
X130438411Y-113895074D01*
X130438406Y-113895072D01*
X130432991Y-113892144D01*
X130410287Y-113885116D01*
X130253655Y-113836630D01*
X130253652Y-113836629D01*
X130247768Y-113834808D01*
X130241643Y-113834164D01*
X130241642Y-113834164D01*
X130061064Y-113815184D01*
X130061063Y-113815184D01*
X130054936Y-113814540D01*
X129934787Y-113825474D01*
X129867981Y-113831554D01*
X129867980Y-113831554D01*
X129861840Y-113832113D01*
X129855926Y-113833854D01*
X129855924Y-113833854D01*
X129729485Y-113871068D01*
X129675834Y-113886858D01*
X129504005Y-113976688D01*
X129352896Y-114098183D01*
X129348937Y-114102901D01*
X129348936Y-114102902D01*
X129232221Y-114241997D01*
X129228263Y-114246714D01*
X129225300Y-114252103D01*
X129225297Y-114252108D01*
X129218949Y-114263656D01*
X129134854Y-114416625D01*
X129132993Y-114422492D01*
X129132992Y-114422494D01*
X129130797Y-114429413D01*
X129076226Y-114601443D01*
X129054613Y-114794129D01*
X122453500Y-114794129D01*
X122453500Y-110975709D01*
X129189455Y-110975709D01*
X129206123Y-111264792D01*
X129206948Y-111268997D01*
X129206949Y-111269005D01*
X129239141Y-111433085D01*
X129261870Y-111548938D01*
X129263257Y-111552988D01*
X129263258Y-111552993D01*
X129283889Y-111613251D01*
X129355665Y-111822890D01*
X129485771Y-112081577D01*
X129488197Y-112085106D01*
X129488200Y-112085112D01*
X129527332Y-112142049D01*
X129649782Y-112320214D01*
X129844661Y-112534384D01*
X129902265Y-112582548D01*
X130063512Y-112717372D01*
X130063517Y-112717376D01*
X130066804Y-112720124D01*
X130131547Y-112760737D01*
X130308459Y-112871714D01*
X130308463Y-112871716D01*
X130312099Y-112873997D01*
X130383664Y-112906310D01*
X130572096Y-112991391D01*
X130572100Y-112991393D01*
X130576008Y-112993157D01*
X130580128Y-112994377D01*
X130580127Y-112994377D01*
X130849534Y-113074179D01*
X130849538Y-113074180D01*
X130853647Y-113075397D01*
X130857881Y-113076045D01*
X130857886Y-113076046D01*
X131135636Y-113118547D01*
X131135638Y-113118547D01*
X131139878Y-113119196D01*
X131287226Y-113121511D01*
X131425115Y-113123678D01*
X131425121Y-113123678D01*
X131429406Y-113123745D01*
X131716871Y-113088958D01*
X131996957Y-113015479D01*
X132000917Y-113013839D01*
X132000922Y-113013837D01*
X132130718Y-112960073D01*
X132264478Y-112904668D01*
X132514486Y-112758575D01*
X132742353Y-112579904D01*
X132943864Y-112371961D01*
X132946397Y-112368513D01*
X132946401Y-112368508D01*
X133112751Y-112142049D01*
X133115289Y-112138594D01*
X133253456Y-111884121D01*
X133355810Y-111613251D01*
X133420455Y-111330996D01*
X133446195Y-111042579D01*
X133446662Y-110998000D01*
X133426967Y-110709107D01*
X133368248Y-110425561D01*
X133271589Y-110152606D01*
X133138781Y-109895296D01*
X132972281Y-109658390D01*
X132891919Y-109571910D01*
X132778090Y-109449415D01*
X132778087Y-109449412D01*
X132775169Y-109446272D01*
X132771853Y-109443558D01*
X132771850Y-109443555D01*
X132593061Y-109297218D01*
X132551094Y-109262868D01*
X132304201Y-109111572D01*
X132300284Y-109109853D01*
X132300281Y-109109851D01*
X132183467Y-109058573D01*
X132039059Y-108995183D01*
X132034931Y-108994007D01*
X132034928Y-108994006D01*
X131764702Y-108917030D01*
X131764703Y-108917030D01*
X131760574Y-108915854D01*
X131545645Y-108885266D01*
X131478151Y-108875660D01*
X131478149Y-108875660D01*
X131473899Y-108875055D01*
X131469610Y-108875033D01*
X131469603Y-108875032D01*
X131188626Y-108873560D01*
X131188619Y-108873560D01*
X131184340Y-108873538D01*
X131180096Y-108874097D01*
X131180092Y-108874097D01*
X131053475Y-108890767D01*
X130897254Y-108911334D01*
X130893114Y-108912467D01*
X130893112Y-108912467D01*
X130876433Y-108917030D01*
X130617954Y-108987742D01*
X130351608Y-109101348D01*
X130103144Y-109250051D01*
X130099793Y-109252735D01*
X130099791Y-109252737D01*
X130044270Y-109297218D01*
X129877160Y-109431098D01*
X129753643Y-109561258D01*
X129697092Y-109620851D01*
X129677838Y-109641140D01*
X129508866Y-109876289D01*
X129506857Y-109880084D01*
X129506856Y-109880085D01*
X129485864Y-109919731D01*
X129373370Y-110132195D01*
X129273859Y-110404122D01*
X129272946Y-110408308D01*
X129272946Y-110408309D01*
X129213087Y-110682849D01*
X129213086Y-110682857D01*
X129212174Y-110687039D01*
X129189455Y-110975709D01*
X122453500Y-110975709D01*
X122453500Y-101375090D01*
X128699499Y-101375090D01*
X128702353Y-101385740D01*
X128702353Y-101385744D01*
X128709362Y-101411902D01*
X128711742Y-101422635D01*
X128718358Y-101460156D01*
X128723869Y-101469702D01*
X128725109Y-101473108D01*
X128726646Y-101476405D01*
X128729501Y-101487058D01*
X128751367Y-101518286D01*
X128757262Y-101527539D01*
X128776317Y-101560544D01*
X128784756Y-101567626D01*
X128784761Y-101567631D01*
X128805515Y-101585045D01*
X128813619Y-101592471D01*
X135143395Y-107922247D01*
X135177421Y-107984559D01*
X135180300Y-108011342D01*
X135180300Y-140141903D01*
X135179821Y-140152885D01*
X135176499Y-140190855D01*
X135179353Y-140201505D01*
X135179353Y-140201509D01*
X135186362Y-140227667D01*
X135188742Y-140238400D01*
X135191649Y-140254888D01*
X135195358Y-140275921D01*
X135200869Y-140285467D01*
X135202109Y-140288873D01*
X135203646Y-140292170D01*
X135206501Y-140302823D01*
X135228367Y-140334051D01*
X135234262Y-140343304D01*
X135253317Y-140376309D01*
X135261756Y-140383391D01*
X135261761Y-140383396D01*
X135282515Y-140400810D01*
X135290619Y-140408236D01*
X148008764Y-153126381D01*
X148016191Y-153134485D01*
X148040691Y-153163683D01*
X148050236Y-153169194D01*
X148073691Y-153182736D01*
X148082959Y-153188640D01*
X148114177Y-153210499D01*
X148124824Y-153213352D01*
X148128114Y-153214886D01*
X148131531Y-153216130D01*
X148141079Y-153221642D01*
X148178612Y-153228260D01*
X148189342Y-153230639D01*
X148215498Y-153237648D01*
X148215503Y-153237648D01*
X148226145Y-153240500D01*
X148237120Y-153239540D01*
X148237122Y-153239540D01*
X148264108Y-153237179D01*
X148275089Y-153236700D01*
X149253300Y-153236700D01*
X149321421Y-153256702D01*
X149367914Y-153310358D01*
X149379300Y-153362700D01*
X149379300Y-153713064D01*
X149391119Y-153772480D01*
X149436140Y-153839860D01*
X149503520Y-153884881D01*
X149562936Y-153896700D01*
X151173064Y-153896700D01*
X151232480Y-153884881D01*
X151299860Y-153839860D01*
X151344881Y-153772480D01*
X151356700Y-153713064D01*
X151356700Y-152102936D01*
X151344881Y-152043520D01*
X151299860Y-151976140D01*
X151232480Y-151931119D01*
X151173064Y-151919300D01*
X149562936Y-151919300D01*
X149503520Y-151931119D01*
X149436140Y-151976140D01*
X149391119Y-152043520D01*
X149379300Y-152102936D01*
X149379300Y-152453300D01*
X149359298Y-152521421D01*
X149305642Y-152567914D01*
X149253300Y-152579300D01*
X148443577Y-152579300D01*
X148375456Y-152559298D01*
X148354482Y-152542395D01*
X135874605Y-140062518D01*
X135840579Y-140000206D01*
X135837700Y-139973423D01*
X135837700Y-107842848D01*
X135838180Y-107831865D01*
X135840540Y-107804893D01*
X135841501Y-107793910D01*
X135838647Y-107783260D01*
X135838647Y-107783256D01*
X135831638Y-107757098D01*
X135829258Y-107746365D01*
X135824556Y-107719699D01*
X135822642Y-107708844D01*
X135817131Y-107699298D01*
X135815891Y-107695892D01*
X135814354Y-107692595D01*
X135811499Y-107681942D01*
X135789633Y-107650714D01*
X135783736Y-107641457D01*
X135770193Y-107618000D01*
X135764683Y-107608456D01*
X135756244Y-107601374D01*
X135756239Y-107601369D01*
X135735485Y-107583955D01*
X135727381Y-107576529D01*
X129397605Y-101246753D01*
X129363579Y-101184441D01*
X129360700Y-101157658D01*
X129360700Y-92517342D01*
X129380702Y-92449221D01*
X129397605Y-92428247D01*
X130655247Y-91170605D01*
X130717559Y-91136579D01*
X130744342Y-91133700D01*
X132653658Y-91133700D01*
X132721779Y-91153702D01*
X132742753Y-91170605D01*
X132979353Y-91407205D01*
X133013379Y-91469517D01*
X133008314Y-91540332D01*
X132965767Y-91597168D01*
X132899247Y-91621979D01*
X132890258Y-91622300D01*
X131357936Y-91622300D01*
X131298520Y-91634119D01*
X131231140Y-91679140D01*
X131186119Y-91746520D01*
X131174300Y-91805936D01*
X131174300Y-95646064D01*
X131186119Y-95705480D01*
X131231140Y-95772860D01*
X131298520Y-95817881D01*
X131357936Y-95829700D01*
X131673300Y-95829700D01*
X131741421Y-95849702D01*
X131787914Y-95903358D01*
X131799300Y-95955700D01*
X131799300Y-99342138D01*
X131798821Y-99353120D01*
X131795499Y-99391090D01*
X131798353Y-99401740D01*
X131798353Y-99401744D01*
X131805362Y-99427902D01*
X131807742Y-99438635D01*
X131814358Y-99476156D01*
X131819869Y-99485702D01*
X131821109Y-99489108D01*
X131822646Y-99492405D01*
X131825501Y-99503058D01*
X131847367Y-99534286D01*
X131853262Y-99543539D01*
X131872317Y-99576544D01*
X131880756Y-99583626D01*
X131880761Y-99583631D01*
X131901515Y-99601045D01*
X131909619Y-99608471D01*
X133094913Y-100793765D01*
X133128939Y-100856077D01*
X133130740Y-100899305D01*
X133122091Y-100965000D01*
X133142839Y-101122597D01*
X133145998Y-101130224D01*
X133145999Y-101130227D01*
X133173254Y-101196026D01*
X133203669Y-101269454D01*
X133300436Y-101395564D01*
X133426545Y-101492331D01*
X133489173Y-101518272D01*
X133565773Y-101550001D01*
X133565776Y-101550002D01*
X133573403Y-101553161D01*
X133581591Y-101554239D01*
X133652201Y-101563535D01*
X133731000Y-101573909D01*
X133796694Y-101565260D01*
X133866842Y-101576199D01*
X133902235Y-101601087D01*
X135980078Y-103678930D01*
X136014104Y-103741242D01*
X136009039Y-103812057D01*
X135966492Y-103868893D01*
X135899972Y-103893704D01*
X135899440Y-103893721D01*
X135897041Y-103893469D01*
X135891439Y-103893979D01*
X135891432Y-103893979D01*
X135707153Y-103910749D01*
X135707149Y-103910750D01*
X135701015Y-103911308D01*
X135512188Y-103966883D01*
X135337752Y-104058076D01*
X135184350Y-104181414D01*
X135057827Y-104332199D01*
X134963001Y-104504688D01*
X134903483Y-104692309D01*
X134881542Y-104887918D01*
X134898013Y-105084064D01*
X134899712Y-105089989D01*
X134911557Y-105131296D01*
X134952268Y-105273274D01*
X134955087Y-105278759D01*
X135039424Y-105442861D01*
X135039427Y-105442866D01*
X135042242Y-105448343D01*
X135164506Y-105602602D01*
X135314403Y-105730175D01*
X135486226Y-105826203D01*
X135492085Y-105828107D01*
X135492088Y-105828108D01*
X135552201Y-105847640D01*
X135673427Y-105887029D01*
X135679537Y-105887758D01*
X135679539Y-105887758D01*
X135746203Y-105895707D01*
X135868878Y-105910335D01*
X135875013Y-105909863D01*
X135875015Y-105909863D01*
X136058992Y-105895707D01*
X136058996Y-105895706D01*
X136065134Y-105895234D01*
X136254719Y-105842301D01*
X136430411Y-105753552D01*
X136460333Y-105730175D01*
X136580659Y-105636166D01*
X136580660Y-105636165D01*
X136585520Y-105632368D01*
X136714136Y-105483364D01*
X136717180Y-105478006D01*
X136808316Y-105317580D01*
X136808318Y-105317575D01*
X136811362Y-105312217D01*
X136873493Y-105125444D01*
X136879496Y-105077922D01*
X136897721Y-104933664D01*
X136897722Y-104933655D01*
X136898163Y-104930161D01*
X136898556Y-104902000D01*
X136899740Y-104902017D01*
X136915692Y-104837868D01*
X136967354Y-104789169D01*
X137037143Y-104776132D01*
X137102902Y-104802895D01*
X137113544Y-104812396D01*
X142001395Y-109700247D01*
X142035421Y-109762559D01*
X142038300Y-109789342D01*
X142038300Y-144379138D01*
X142037821Y-144390120D01*
X142034499Y-144428090D01*
X142037353Y-144438740D01*
X142037353Y-144438744D01*
X142044362Y-144464902D01*
X142046742Y-144475635D01*
X142053358Y-144513156D01*
X142058869Y-144522702D01*
X142060109Y-144526108D01*
X142061646Y-144529405D01*
X142064501Y-144540058D01*
X142086367Y-144571286D01*
X142092262Y-144580539D01*
X142111317Y-144613544D01*
X142119756Y-144620626D01*
X142119761Y-144620631D01*
X142140515Y-144638045D01*
X142148619Y-144645471D01*
X148089529Y-150586381D01*
X148096956Y-150594485D01*
X148121456Y-150623683D01*
X148154457Y-150642736D01*
X148163714Y-150648633D01*
X148194942Y-150670499D01*
X148205592Y-150673353D01*
X148208882Y-150674887D01*
X148212295Y-150676129D01*
X148221844Y-150681642D01*
X148250428Y-150686682D01*
X148259367Y-150688259D01*
X148270094Y-150690637D01*
X148296265Y-150697649D01*
X148296267Y-150697649D01*
X148306911Y-150700501D01*
X148317885Y-150699541D01*
X148317887Y-150699541D01*
X148344881Y-150697179D01*
X148355863Y-150696700D01*
X149348343Y-150696700D01*
X149416464Y-150716702D01*
X149460408Y-150765104D01*
X149532911Y-150906178D01*
X149653347Y-151058132D01*
X149658041Y-151062127D01*
X149692262Y-151091251D01*
X149801005Y-151183799D01*
X149970260Y-151278392D01*
X150154664Y-151338308D01*
X150347194Y-151361266D01*
X150353329Y-151360794D01*
X150353331Y-151360794D01*
X150534375Y-151346864D01*
X150534379Y-151346863D01*
X150540517Y-151346391D01*
X150546449Y-151344735D01*
X150546453Y-151344734D01*
X150633893Y-151320320D01*
X150727268Y-151294249D01*
X150900335Y-151206826D01*
X150929809Y-151183799D01*
X151048265Y-151091251D01*
X151048266Y-151091250D01*
X151053126Y-151087453D01*
X151179820Y-150940676D01*
X151275593Y-150772086D01*
X151336795Y-150588105D01*
X151361097Y-150395740D01*
X151361484Y-150368000D01*
X151342563Y-150175031D01*
X151340782Y-150169132D01*
X151340781Y-150169127D01*
X151288303Y-149995312D01*
X151286522Y-149989413D01*
X151195494Y-149818214D01*
X151191604Y-149813444D01*
X151191601Y-149813440D01*
X151076836Y-149672725D01*
X151076834Y-149672723D01*
X151072947Y-149667957D01*
X150923549Y-149544364D01*
X150918132Y-149541435D01*
X150918129Y-149541433D01*
X150758411Y-149455074D01*
X150758406Y-149455072D01*
X150752991Y-149452144D01*
X150730287Y-149445116D01*
X150573655Y-149396630D01*
X150573652Y-149396629D01*
X150567768Y-149394808D01*
X150561643Y-149394164D01*
X150561642Y-149394164D01*
X150381064Y-149375184D01*
X150381063Y-149375184D01*
X150374936Y-149374540D01*
X150254787Y-149385474D01*
X150187981Y-149391554D01*
X150187980Y-149391554D01*
X150181840Y-149392113D01*
X150175926Y-149393854D01*
X150175924Y-149393854D01*
X150049485Y-149431068D01*
X149995834Y-149446858D01*
X149824005Y-149536688D01*
X149672896Y-149658183D01*
X149668937Y-149662901D01*
X149668936Y-149662902D01*
X149552221Y-149801997D01*
X149548263Y-149806714D01*
X149544566Y-149813440D01*
X149456297Y-149974001D01*
X149405952Y-150024059D01*
X149345882Y-150039300D01*
X148524342Y-150039300D01*
X148456221Y-150019298D01*
X148435247Y-150002395D01*
X146246981Y-147814129D01*
X149374613Y-147814129D01*
X149390837Y-148007343D01*
X149444282Y-148193726D01*
X149447098Y-148199205D01*
X149447099Y-148199208D01*
X149530095Y-148360699D01*
X149532911Y-148366178D01*
X149653347Y-148518132D01*
X149658041Y-148522127D01*
X149692262Y-148551251D01*
X149801005Y-148643799D01*
X149970260Y-148738392D01*
X150154664Y-148798308D01*
X150347194Y-148821266D01*
X150353329Y-148820794D01*
X150353331Y-148820794D01*
X150534375Y-148806864D01*
X150534379Y-148806863D01*
X150540517Y-148806391D01*
X150546449Y-148804735D01*
X150546453Y-148804734D01*
X150633892Y-148780320D01*
X150727268Y-148754249D01*
X150900335Y-148666826D01*
X150929809Y-148643799D01*
X151048265Y-148551251D01*
X151048266Y-148551250D01*
X151053126Y-148547453D01*
X151179820Y-148400676D01*
X151275593Y-148232086D01*
X151336795Y-148048105D01*
X151361097Y-147855740D01*
X151361484Y-147828000D01*
X151342563Y-147635031D01*
X151340782Y-147629132D01*
X151340781Y-147629127D01*
X151288303Y-147455312D01*
X151286522Y-147449413D01*
X151195494Y-147278214D01*
X151191604Y-147273444D01*
X151191601Y-147273440D01*
X151076836Y-147132725D01*
X151076834Y-147132723D01*
X151072947Y-147127957D01*
X150923549Y-147004364D01*
X150918132Y-147001435D01*
X150918129Y-147001433D01*
X150758411Y-146915074D01*
X150758406Y-146915072D01*
X150752991Y-146912144D01*
X150730287Y-146905116D01*
X150573655Y-146856630D01*
X150573652Y-146856629D01*
X150567768Y-146854808D01*
X150561643Y-146854164D01*
X150561642Y-146854164D01*
X150381064Y-146835184D01*
X150381063Y-146835184D01*
X150374936Y-146834540D01*
X150254787Y-146845474D01*
X150187981Y-146851554D01*
X150187980Y-146851554D01*
X150181840Y-146852113D01*
X150175926Y-146853854D01*
X150175924Y-146853854D01*
X150049485Y-146891068D01*
X149995834Y-146906858D01*
X149824005Y-146996688D01*
X149672896Y-147118183D01*
X149668937Y-147122901D01*
X149668936Y-147122902D01*
X149552221Y-147261997D01*
X149548263Y-147266714D01*
X149545300Y-147272103D01*
X149545297Y-147272108D01*
X149538949Y-147283656D01*
X149454854Y-147436625D01*
X149452993Y-147442492D01*
X149452992Y-147442494D01*
X149450797Y-147449413D01*
X149396226Y-147621443D01*
X149374613Y-147814129D01*
X146246981Y-147814129D01*
X143706981Y-145274129D01*
X149374613Y-145274129D01*
X149390837Y-145467343D01*
X149444282Y-145653726D01*
X149447098Y-145659205D01*
X149447099Y-145659208D01*
X149530095Y-145820699D01*
X149532911Y-145826178D01*
X149653347Y-145978132D01*
X149658041Y-145982127D01*
X149692262Y-146011251D01*
X149801005Y-146103799D01*
X149970260Y-146198392D01*
X150154664Y-146258308D01*
X150347194Y-146281266D01*
X150353329Y-146280794D01*
X150353331Y-146280794D01*
X150534375Y-146266864D01*
X150534379Y-146266863D01*
X150540517Y-146266391D01*
X150546449Y-146264735D01*
X150546453Y-146264734D01*
X150633892Y-146240320D01*
X150727268Y-146214249D01*
X150900335Y-146126826D01*
X150929809Y-146103799D01*
X151048265Y-146011251D01*
X151048266Y-146011250D01*
X151053126Y-146007453D01*
X151179820Y-145860676D01*
X151275593Y-145692086D01*
X151336795Y-145508105D01*
X151361097Y-145315740D01*
X151361484Y-145288000D01*
X151342563Y-145095031D01*
X151340782Y-145089132D01*
X151340781Y-145089127D01*
X151288303Y-144915312D01*
X151286522Y-144909413D01*
X151195494Y-144738214D01*
X151191604Y-144733444D01*
X151191601Y-144733440D01*
X151076836Y-144592725D01*
X151076834Y-144592723D01*
X151072947Y-144587957D01*
X150923549Y-144464364D01*
X150918132Y-144461435D01*
X150918129Y-144461433D01*
X150758411Y-144375074D01*
X150758406Y-144375072D01*
X150752991Y-144372144D01*
X150730287Y-144365116D01*
X150573655Y-144316630D01*
X150573652Y-144316629D01*
X150567768Y-144314808D01*
X150561643Y-144314164D01*
X150561642Y-144314164D01*
X150381064Y-144295184D01*
X150381063Y-144295184D01*
X150374936Y-144294540D01*
X150254787Y-144305474D01*
X150187981Y-144311554D01*
X150187980Y-144311554D01*
X150181840Y-144312113D01*
X150175926Y-144313854D01*
X150175924Y-144313854D01*
X150049485Y-144351068D01*
X149995834Y-144366858D01*
X149824005Y-144456688D01*
X149672896Y-144578183D01*
X149668937Y-144582901D01*
X149668936Y-144582902D01*
X149616434Y-144645471D01*
X149548263Y-144726714D01*
X149545300Y-144732103D01*
X149545297Y-144732108D01*
X149538949Y-144743656D01*
X149454854Y-144896625D01*
X149452993Y-144902492D01*
X149452992Y-144902494D01*
X149450797Y-144909413D01*
X149396226Y-145081443D01*
X149374613Y-145274129D01*
X143706981Y-145274129D01*
X142732605Y-144299753D01*
X142698579Y-144237441D01*
X142695700Y-144210658D01*
X142695700Y-142734129D01*
X149374613Y-142734129D01*
X149390837Y-142927343D01*
X149444282Y-143113726D01*
X149447098Y-143119205D01*
X149447099Y-143119208D01*
X149530095Y-143280699D01*
X149532911Y-143286178D01*
X149653347Y-143438132D01*
X149658041Y-143442127D01*
X149692262Y-143471251D01*
X149801005Y-143563799D01*
X149970260Y-143658392D01*
X150154664Y-143718308D01*
X150347194Y-143741266D01*
X150353329Y-143740794D01*
X150353331Y-143740794D01*
X150534375Y-143726864D01*
X150534379Y-143726863D01*
X150540517Y-143726391D01*
X150546449Y-143724735D01*
X150546453Y-143724734D01*
X150633892Y-143700320D01*
X150727268Y-143674249D01*
X150900335Y-143586826D01*
X150929809Y-143563799D01*
X151048265Y-143471251D01*
X151048266Y-143471250D01*
X151053126Y-143467453D01*
X151179820Y-143320676D01*
X151275593Y-143152086D01*
X151336795Y-142968105D01*
X151361097Y-142775740D01*
X151361484Y-142748000D01*
X151342563Y-142555031D01*
X151340782Y-142549132D01*
X151340781Y-142549127D01*
X151288303Y-142375312D01*
X151286522Y-142369413D01*
X151195494Y-142198214D01*
X151191604Y-142193444D01*
X151191601Y-142193440D01*
X151076836Y-142052725D01*
X151076834Y-142052723D01*
X151072947Y-142047957D01*
X150923549Y-141924364D01*
X150918132Y-141921435D01*
X150918129Y-141921433D01*
X150758411Y-141835074D01*
X150758406Y-141835072D01*
X150752991Y-141832144D01*
X150730287Y-141825116D01*
X150573655Y-141776630D01*
X150573652Y-141776629D01*
X150567768Y-141774808D01*
X150561643Y-141774164D01*
X150561642Y-141774164D01*
X150381064Y-141755184D01*
X150381063Y-141755184D01*
X150374936Y-141754540D01*
X150254787Y-141765474D01*
X150187981Y-141771554D01*
X150187980Y-141771554D01*
X150181840Y-141772113D01*
X150175926Y-141773854D01*
X150175924Y-141773854D01*
X150049485Y-141811068D01*
X149995834Y-141826858D01*
X149824005Y-141916688D01*
X149672896Y-142038183D01*
X149668937Y-142042901D01*
X149668936Y-142042902D01*
X149552221Y-142181997D01*
X149548263Y-142186714D01*
X149545300Y-142192103D01*
X149545297Y-142192108D01*
X149538949Y-142203656D01*
X149454854Y-142356625D01*
X149452993Y-142362492D01*
X149452992Y-142362494D01*
X149450797Y-142369413D01*
X149396226Y-142541443D01*
X149374613Y-142734129D01*
X142695700Y-142734129D01*
X142695700Y-140194129D01*
X149374613Y-140194129D01*
X149390837Y-140387343D01*
X149444282Y-140573726D01*
X149447098Y-140579205D01*
X149447099Y-140579208D01*
X149530095Y-140740699D01*
X149532911Y-140746178D01*
X149653347Y-140898132D01*
X149658041Y-140902127D01*
X149692262Y-140931251D01*
X149801005Y-141023799D01*
X149970260Y-141118392D01*
X150154664Y-141178308D01*
X150347194Y-141201266D01*
X150353329Y-141200794D01*
X150353331Y-141200794D01*
X150534375Y-141186864D01*
X150534379Y-141186863D01*
X150540517Y-141186391D01*
X150546449Y-141184735D01*
X150546453Y-141184734D01*
X150633892Y-141160320D01*
X150727268Y-141134249D01*
X150900335Y-141046826D01*
X150929809Y-141023799D01*
X151048265Y-140931251D01*
X151048266Y-140931250D01*
X151053126Y-140927453D01*
X151179820Y-140780676D01*
X151275593Y-140612086D01*
X151336795Y-140428105D01*
X151348679Y-140334037D01*
X151360655Y-140239242D01*
X151360656Y-140239235D01*
X151361097Y-140235740D01*
X151361484Y-140208000D01*
X151342563Y-140015031D01*
X151340782Y-140009132D01*
X151340781Y-140009127D01*
X151288303Y-139835312D01*
X151286522Y-139829413D01*
X151195494Y-139658214D01*
X151191604Y-139653444D01*
X151191601Y-139653440D01*
X151076836Y-139512725D01*
X151076834Y-139512723D01*
X151072947Y-139507957D01*
X150923549Y-139384364D01*
X150918132Y-139381435D01*
X150918129Y-139381433D01*
X150758411Y-139295074D01*
X150758406Y-139295072D01*
X150752991Y-139292144D01*
X150730287Y-139285116D01*
X150573655Y-139236630D01*
X150573652Y-139236629D01*
X150567768Y-139234808D01*
X150561643Y-139234164D01*
X150561642Y-139234164D01*
X150381064Y-139215184D01*
X150381063Y-139215184D01*
X150374936Y-139214540D01*
X150254787Y-139225474D01*
X150187981Y-139231554D01*
X150187980Y-139231554D01*
X150181840Y-139232113D01*
X150175926Y-139233854D01*
X150175924Y-139233854D01*
X150049485Y-139271068D01*
X149995834Y-139286858D01*
X149824005Y-139376688D01*
X149672896Y-139498183D01*
X149668937Y-139502901D01*
X149668936Y-139502902D01*
X149552221Y-139641997D01*
X149548263Y-139646714D01*
X149545300Y-139652103D01*
X149545297Y-139652108D01*
X149538949Y-139663656D01*
X149454854Y-139816625D01*
X149452993Y-139822492D01*
X149452992Y-139822494D01*
X149450797Y-139829413D01*
X149396226Y-140001443D01*
X149374613Y-140194129D01*
X142695700Y-140194129D01*
X142695700Y-137654129D01*
X149374613Y-137654129D01*
X149390837Y-137847343D01*
X149444282Y-138033726D01*
X149447098Y-138039205D01*
X149447099Y-138039208D01*
X149530095Y-138200699D01*
X149532911Y-138206178D01*
X149653347Y-138358132D01*
X149658041Y-138362127D01*
X149692262Y-138391251D01*
X149801005Y-138483799D01*
X149970260Y-138578392D01*
X150154664Y-138638308D01*
X150347194Y-138661266D01*
X150353329Y-138660794D01*
X150353331Y-138660794D01*
X150534375Y-138646864D01*
X150534379Y-138646863D01*
X150540517Y-138646391D01*
X150546449Y-138644735D01*
X150546453Y-138644734D01*
X150633892Y-138620320D01*
X150727268Y-138594249D01*
X150900335Y-138506826D01*
X150929809Y-138483799D01*
X151048265Y-138391251D01*
X151048266Y-138391250D01*
X151053126Y-138387453D01*
X151179820Y-138240676D01*
X151275593Y-138072086D01*
X151336795Y-137888105D01*
X151361097Y-137695740D01*
X151361484Y-137668000D01*
X151342563Y-137475031D01*
X151340782Y-137469132D01*
X151340781Y-137469127D01*
X151288303Y-137295312D01*
X151286522Y-137289413D01*
X151195494Y-137118214D01*
X151191604Y-137113444D01*
X151191601Y-137113440D01*
X151076836Y-136972725D01*
X151076834Y-136972723D01*
X151072947Y-136967957D01*
X150923549Y-136844364D01*
X150918132Y-136841435D01*
X150918129Y-136841433D01*
X150758411Y-136755074D01*
X150758406Y-136755072D01*
X150752991Y-136752144D01*
X150730287Y-136745116D01*
X150573655Y-136696630D01*
X150573652Y-136696629D01*
X150567768Y-136694808D01*
X150561643Y-136694164D01*
X150561642Y-136694164D01*
X150381064Y-136675184D01*
X150381063Y-136675184D01*
X150374936Y-136674540D01*
X150254787Y-136685474D01*
X150187981Y-136691554D01*
X150187980Y-136691554D01*
X150181840Y-136692113D01*
X150175926Y-136693854D01*
X150175924Y-136693854D01*
X150049485Y-136731068D01*
X149995834Y-136746858D01*
X149824005Y-136836688D01*
X149672896Y-136958183D01*
X149668937Y-136962901D01*
X149668936Y-136962902D01*
X149552221Y-137101997D01*
X149548263Y-137106714D01*
X149545300Y-137112103D01*
X149545297Y-137112108D01*
X149538949Y-137123656D01*
X149454854Y-137276625D01*
X149452993Y-137282492D01*
X149452992Y-137282494D01*
X149450797Y-137289413D01*
X149396226Y-137461443D01*
X149374613Y-137654129D01*
X142695700Y-137654129D01*
X142695700Y-135114129D01*
X149374613Y-135114129D01*
X149390837Y-135307343D01*
X149444282Y-135493726D01*
X149447098Y-135499205D01*
X149447099Y-135499208D01*
X149530095Y-135660699D01*
X149532911Y-135666178D01*
X149653347Y-135818132D01*
X149658041Y-135822127D01*
X149692262Y-135851251D01*
X149801005Y-135943799D01*
X149970260Y-136038392D01*
X150154664Y-136098308D01*
X150347194Y-136121266D01*
X150353329Y-136120794D01*
X150353331Y-136120794D01*
X150534375Y-136106864D01*
X150534379Y-136106863D01*
X150540517Y-136106391D01*
X150546449Y-136104735D01*
X150546453Y-136104734D01*
X150633892Y-136080320D01*
X150727268Y-136054249D01*
X150900335Y-135966826D01*
X150929809Y-135943799D01*
X151048265Y-135851251D01*
X151048266Y-135851250D01*
X151053126Y-135847453D01*
X151179820Y-135700676D01*
X151275593Y-135532086D01*
X151336795Y-135348105D01*
X151361097Y-135155740D01*
X151361484Y-135128000D01*
X151342563Y-134935031D01*
X151340782Y-134929132D01*
X151340781Y-134929127D01*
X151288303Y-134755312D01*
X151286522Y-134749413D01*
X151195494Y-134578214D01*
X151191604Y-134573444D01*
X151191601Y-134573440D01*
X151076836Y-134432725D01*
X151076834Y-134432723D01*
X151072947Y-134427957D01*
X150923549Y-134304364D01*
X150918132Y-134301435D01*
X150918129Y-134301433D01*
X150758411Y-134215074D01*
X150758406Y-134215072D01*
X150752991Y-134212144D01*
X150730287Y-134205116D01*
X150573655Y-134156630D01*
X150573652Y-134156629D01*
X150567768Y-134154808D01*
X150561643Y-134154164D01*
X150561642Y-134154164D01*
X150381064Y-134135184D01*
X150381063Y-134135184D01*
X150374936Y-134134540D01*
X150254787Y-134145474D01*
X150187981Y-134151554D01*
X150187980Y-134151554D01*
X150181840Y-134152113D01*
X150175926Y-134153854D01*
X150175924Y-134153854D01*
X150049485Y-134191068D01*
X149995834Y-134206858D01*
X149824005Y-134296688D01*
X149672896Y-134418183D01*
X149668937Y-134422901D01*
X149668936Y-134422902D01*
X149552221Y-134561997D01*
X149548263Y-134566714D01*
X149545300Y-134572103D01*
X149545297Y-134572108D01*
X149538949Y-134583656D01*
X149454854Y-134736625D01*
X149452993Y-134742492D01*
X149452992Y-134742494D01*
X149450797Y-134749413D01*
X149396226Y-134921443D01*
X149374613Y-135114129D01*
X142695700Y-135114129D01*
X142695700Y-109620851D01*
X142696179Y-109609869D01*
X142698539Y-109582892D01*
X142699500Y-109571910D01*
X142689639Y-109535107D01*
X142687259Y-109524373D01*
X142682556Y-109497700D01*
X142680642Y-109486844D01*
X142675130Y-109477296D01*
X142673886Y-109473879D01*
X142672352Y-109470589D01*
X142669499Y-109459942D01*
X142659928Y-109446272D01*
X142647641Y-109428725D01*
X142641736Y-109419456D01*
X142628194Y-109396001D01*
X142622683Y-109386456D01*
X142614240Y-109379371D01*
X142614237Y-109379368D01*
X142593485Y-109361955D01*
X142585381Y-109354529D01*
X134367087Y-101136235D01*
X134333061Y-101073923D01*
X134331260Y-101030693D01*
X134338831Y-100973187D01*
X134339909Y-100965000D01*
X134319161Y-100807403D01*
X134258331Y-100660546D01*
X134161564Y-100534436D01*
X134035455Y-100437669D01*
X133962026Y-100407254D01*
X133896227Y-100379999D01*
X133896224Y-100379998D01*
X133888597Y-100376839D01*
X133858298Y-100372850D01*
X133739188Y-100357169D01*
X133731000Y-100356091D01*
X133665306Y-100364740D01*
X133595158Y-100353801D01*
X133559765Y-100328913D01*
X132493605Y-99262753D01*
X132459579Y-99200441D01*
X132456700Y-99173658D01*
X132456700Y-95955700D01*
X132476702Y-95887579D01*
X132530358Y-95841086D01*
X132582700Y-95829700D01*
X132898064Y-95829700D01*
X132957480Y-95817881D01*
X133024860Y-95772860D01*
X133069881Y-95705480D01*
X133081700Y-95646064D01*
X133081700Y-91813742D01*
X133101702Y-91745621D01*
X133155358Y-91699128D01*
X133225632Y-91689024D01*
X133290212Y-91718518D01*
X133296795Y-91724647D01*
X134137395Y-92565247D01*
X134171421Y-92627559D01*
X134174300Y-92654342D01*
X134174300Y-95646064D01*
X134186119Y-95705480D01*
X134231140Y-95772860D01*
X134298520Y-95817881D01*
X134357936Y-95829700D01*
X135898064Y-95829700D01*
X135957480Y-95817881D01*
X136024860Y-95772860D01*
X136069881Y-95705480D01*
X136076806Y-95670669D01*
X136870001Y-95670669D01*
X136870371Y-95677490D01*
X136875895Y-95728352D01*
X136879521Y-95743604D01*
X136924676Y-95864054D01*
X136933214Y-95879649D01*
X137009715Y-95981724D01*
X137022276Y-95994285D01*
X137124351Y-96070786D01*
X137139946Y-96079324D01*
X137260394Y-96124478D01*
X137275649Y-96128105D01*
X137326514Y-96133631D01*
X137333328Y-96134000D01*
X137855885Y-96134000D01*
X137871124Y-96129525D01*
X137872329Y-96128135D01*
X137874000Y-96120452D01*
X137874000Y-96115884D01*
X138382000Y-96115884D01*
X138386475Y-96131123D01*
X138387865Y-96132328D01*
X138395548Y-96133999D01*
X138922669Y-96133999D01*
X138929490Y-96133629D01*
X138980352Y-96128105D01*
X138995604Y-96124479D01*
X139116054Y-96079324D01*
X139131649Y-96070786D01*
X139233724Y-95994285D01*
X139246285Y-95981724D01*
X139322786Y-95879649D01*
X139331324Y-95864054D01*
X139376478Y-95743606D01*
X139380105Y-95728351D01*
X139385631Y-95677486D01*
X139386000Y-95670672D01*
X139386000Y-95646064D01*
X140174300Y-95646064D01*
X140186119Y-95705480D01*
X140231140Y-95772860D01*
X140298520Y-95817881D01*
X140357936Y-95829700D01*
X140673300Y-95829700D01*
X140741421Y-95849702D01*
X140787914Y-95903358D01*
X140799300Y-95955700D01*
X140799300Y-106691138D01*
X140798821Y-106702120D01*
X140795499Y-106740090D01*
X140798353Y-106750740D01*
X140798353Y-106750744D01*
X140805362Y-106776902D01*
X140807742Y-106787635D01*
X140814358Y-106825156D01*
X140819869Y-106834702D01*
X140821109Y-106838108D01*
X140822646Y-106841405D01*
X140825501Y-106852058D01*
X140847367Y-106883286D01*
X140853262Y-106892539D01*
X140872317Y-106925544D01*
X140880756Y-106932626D01*
X140880761Y-106932631D01*
X140901515Y-106950045D01*
X140909619Y-106957471D01*
X143525395Y-109573247D01*
X143559421Y-109635559D01*
X143562300Y-109662342D01*
X143562300Y-132017136D01*
X143542298Y-132085257D01*
X143513004Y-132117098D01*
X143466986Y-132152409D01*
X143466982Y-132152413D01*
X143460436Y-132157436D01*
X143363669Y-132283546D01*
X143360509Y-132291176D01*
X143314950Y-132401165D01*
X143302839Y-132430403D01*
X143282091Y-132588000D01*
X143302839Y-132745597D01*
X143305998Y-132753224D01*
X143305999Y-132753227D01*
X143328731Y-132808105D01*
X143363669Y-132892454D01*
X143460436Y-133018564D01*
X143586545Y-133115331D01*
X143624386Y-133131005D01*
X143725773Y-133173001D01*
X143725776Y-133173002D01*
X143733403Y-133176161D01*
X143891000Y-133196909D01*
X143899188Y-133195831D01*
X144040409Y-133177239D01*
X144048597Y-133176161D01*
X144056224Y-133173002D01*
X144056227Y-133173001D01*
X144157614Y-133131005D01*
X144195455Y-133115331D01*
X144321564Y-133018564D01*
X144418331Y-132892454D01*
X144453269Y-132808105D01*
X144476001Y-132753227D01*
X144476002Y-132753224D01*
X144479161Y-132745597D01*
X144499909Y-132588000D01*
X144498083Y-132574129D01*
X149374613Y-132574129D01*
X149390837Y-132767343D01*
X149444282Y-132953726D01*
X149447098Y-132959205D01*
X149447099Y-132959208D01*
X149524752Y-133110302D01*
X149532911Y-133126178D01*
X149653347Y-133278132D01*
X149658041Y-133282127D01*
X149692262Y-133311251D01*
X149801005Y-133403799D01*
X149970260Y-133498392D01*
X150154664Y-133558308D01*
X150347194Y-133581266D01*
X150353329Y-133580794D01*
X150353331Y-133580794D01*
X150534375Y-133566864D01*
X150534379Y-133566863D01*
X150540517Y-133566391D01*
X150546449Y-133564735D01*
X150546453Y-133564734D01*
X150633892Y-133540320D01*
X150727268Y-133514249D01*
X150900335Y-133426826D01*
X150929809Y-133403799D01*
X151048265Y-133311251D01*
X151048266Y-133311250D01*
X151053126Y-133307453D01*
X151179820Y-133160676D01*
X151275593Y-132992086D01*
X151336795Y-132808105D01*
X151361097Y-132615740D01*
X151361484Y-132588000D01*
X151342563Y-132395031D01*
X151340782Y-132389132D01*
X151340781Y-132389127D01*
X151288303Y-132215312D01*
X151286522Y-132209413D01*
X151220507Y-132085257D01*
X151198388Y-132043656D01*
X151198386Y-132043653D01*
X151195494Y-132038214D01*
X151191604Y-132033444D01*
X151191601Y-132033440D01*
X151076836Y-131892725D01*
X151076834Y-131892723D01*
X151072947Y-131887957D01*
X150923549Y-131764364D01*
X150918132Y-131761435D01*
X150918129Y-131761433D01*
X150758411Y-131675074D01*
X150758406Y-131675072D01*
X150752991Y-131672144D01*
X150730287Y-131665116D01*
X150573655Y-131616630D01*
X150573652Y-131616629D01*
X150567768Y-131614808D01*
X150561643Y-131614164D01*
X150561642Y-131614164D01*
X150381064Y-131595184D01*
X150381063Y-131595184D01*
X150374936Y-131594540D01*
X150254787Y-131605474D01*
X150187981Y-131611554D01*
X150187980Y-131611554D01*
X150181840Y-131612113D01*
X150175926Y-131613854D01*
X150175924Y-131613854D01*
X150049485Y-131651068D01*
X149995834Y-131666858D01*
X149824005Y-131756688D01*
X149672896Y-131878183D01*
X149668937Y-131882901D01*
X149668936Y-131882902D01*
X149556300Y-132017136D01*
X149548263Y-132026714D01*
X149545300Y-132032103D01*
X149545297Y-132032108D01*
X149498574Y-132117098D01*
X149454854Y-132196625D01*
X149452993Y-132202492D01*
X149452992Y-132202494D01*
X149450797Y-132209413D01*
X149396226Y-132381443D01*
X149374613Y-132574129D01*
X144498083Y-132574129D01*
X144479161Y-132430403D01*
X144467051Y-132401165D01*
X144421491Y-132291176D01*
X144418331Y-132283546D01*
X144321564Y-132157436D01*
X144315018Y-132152413D01*
X144315014Y-132152409D01*
X144268996Y-132117098D01*
X144227129Y-132059760D01*
X144219700Y-132017136D01*
X144219700Y-130034129D01*
X149374613Y-130034129D01*
X149390837Y-130227343D01*
X149444282Y-130413726D01*
X149447098Y-130419205D01*
X149447099Y-130419208D01*
X149530095Y-130580699D01*
X149532911Y-130586178D01*
X149653347Y-130738132D01*
X149658041Y-130742127D01*
X149692262Y-130771251D01*
X149801005Y-130863799D01*
X149970260Y-130958392D01*
X150154664Y-131018308D01*
X150347194Y-131041266D01*
X150353329Y-131040794D01*
X150353331Y-131040794D01*
X150534375Y-131026864D01*
X150534379Y-131026863D01*
X150540517Y-131026391D01*
X150546449Y-131024735D01*
X150546453Y-131024734D01*
X150633892Y-131000320D01*
X150727268Y-130974249D01*
X150900335Y-130886826D01*
X150929809Y-130863799D01*
X151048265Y-130771251D01*
X151048266Y-130771250D01*
X151053126Y-130767453D01*
X151179820Y-130620676D01*
X151275593Y-130452086D01*
X151336795Y-130268105D01*
X151361097Y-130075740D01*
X151361484Y-130048000D01*
X151342563Y-129855031D01*
X151340782Y-129849132D01*
X151340781Y-129849127D01*
X151288303Y-129675312D01*
X151286522Y-129669413D01*
X151195494Y-129498214D01*
X151191604Y-129493444D01*
X151191601Y-129493440D01*
X151076836Y-129352725D01*
X151076834Y-129352723D01*
X151072947Y-129347957D01*
X150923549Y-129224364D01*
X150918132Y-129221435D01*
X150918129Y-129221433D01*
X150758411Y-129135074D01*
X150758406Y-129135072D01*
X150752991Y-129132144D01*
X150730287Y-129125116D01*
X150573655Y-129076630D01*
X150573652Y-129076629D01*
X150567768Y-129074808D01*
X150561643Y-129074164D01*
X150561642Y-129074164D01*
X150381064Y-129055184D01*
X150381063Y-129055184D01*
X150374936Y-129054540D01*
X150254787Y-129065474D01*
X150187981Y-129071554D01*
X150187980Y-129071554D01*
X150181840Y-129072113D01*
X150175926Y-129073854D01*
X150175924Y-129073854D01*
X150049485Y-129111068D01*
X149995834Y-129126858D01*
X149824005Y-129216688D01*
X149672896Y-129338183D01*
X149668937Y-129342901D01*
X149668936Y-129342902D01*
X149552221Y-129481997D01*
X149548263Y-129486714D01*
X149545300Y-129492103D01*
X149545297Y-129492108D01*
X149538949Y-129503656D01*
X149454854Y-129656625D01*
X149452993Y-129662492D01*
X149452992Y-129662494D01*
X149450797Y-129669413D01*
X149396226Y-129841443D01*
X149374613Y-130034129D01*
X144219700Y-130034129D01*
X144219700Y-127494129D01*
X149374613Y-127494129D01*
X149390837Y-127687343D01*
X149444282Y-127873726D01*
X149447098Y-127879205D01*
X149447099Y-127879208D01*
X149530095Y-128040699D01*
X149532911Y-128046178D01*
X149653347Y-128198132D01*
X149658041Y-128202127D01*
X149692262Y-128231251D01*
X149801005Y-128323799D01*
X149970260Y-128418392D01*
X150154664Y-128478308D01*
X150347194Y-128501266D01*
X150353329Y-128500794D01*
X150353331Y-128500794D01*
X150534375Y-128486864D01*
X150534379Y-128486863D01*
X150540517Y-128486391D01*
X150546449Y-128484735D01*
X150546453Y-128484734D01*
X150633892Y-128460320D01*
X150727268Y-128434249D01*
X150900335Y-128346826D01*
X150929809Y-128323799D01*
X151048265Y-128231251D01*
X151048266Y-128231250D01*
X151053126Y-128227453D01*
X151179820Y-128080676D01*
X151275593Y-127912086D01*
X151336795Y-127728105D01*
X151361097Y-127535740D01*
X151361484Y-127508000D01*
X151342563Y-127315031D01*
X151340782Y-127309132D01*
X151340781Y-127309127D01*
X151288303Y-127135312D01*
X151286522Y-127129413D01*
X151195494Y-126958214D01*
X151191604Y-126953444D01*
X151191601Y-126953440D01*
X151076836Y-126812725D01*
X151076834Y-126812723D01*
X151072947Y-126807957D01*
X150923549Y-126684364D01*
X150918132Y-126681435D01*
X150918129Y-126681433D01*
X150758411Y-126595074D01*
X150758406Y-126595072D01*
X150752991Y-126592144D01*
X150730287Y-126585116D01*
X150573655Y-126536630D01*
X150573652Y-126536629D01*
X150567768Y-126534808D01*
X150561643Y-126534164D01*
X150561642Y-126534164D01*
X150381064Y-126515184D01*
X150381063Y-126515184D01*
X150374936Y-126514540D01*
X150254787Y-126525474D01*
X150187981Y-126531554D01*
X150187980Y-126531554D01*
X150181840Y-126532113D01*
X150175926Y-126533854D01*
X150175924Y-126533854D01*
X150049485Y-126571068D01*
X149995834Y-126586858D01*
X149824005Y-126676688D01*
X149672896Y-126798183D01*
X149668937Y-126802901D01*
X149668936Y-126802902D01*
X149552221Y-126941997D01*
X149548263Y-126946714D01*
X149545300Y-126952103D01*
X149545297Y-126952108D01*
X149538949Y-126963656D01*
X149454854Y-127116625D01*
X149452993Y-127122492D01*
X149452992Y-127122494D01*
X149450797Y-127129413D01*
X149396226Y-127301443D01*
X149374613Y-127494129D01*
X144219700Y-127494129D01*
X144219700Y-124954129D01*
X149374613Y-124954129D01*
X149390837Y-125147343D01*
X149444282Y-125333726D01*
X149447098Y-125339205D01*
X149447099Y-125339208D01*
X149530095Y-125500699D01*
X149532911Y-125506178D01*
X149653347Y-125658132D01*
X149658041Y-125662127D01*
X149692262Y-125691251D01*
X149801005Y-125783799D01*
X149970260Y-125878392D01*
X150154664Y-125938308D01*
X150347194Y-125961266D01*
X150353329Y-125960794D01*
X150353331Y-125960794D01*
X150534375Y-125946864D01*
X150534379Y-125946863D01*
X150540517Y-125946391D01*
X150546449Y-125944735D01*
X150546453Y-125944734D01*
X150633892Y-125920320D01*
X150727268Y-125894249D01*
X150900335Y-125806826D01*
X150929809Y-125783799D01*
X151048265Y-125691251D01*
X151048266Y-125691250D01*
X151053126Y-125687453D01*
X151179820Y-125540676D01*
X151275593Y-125372086D01*
X151336795Y-125188105D01*
X151361097Y-124995740D01*
X151361484Y-124968000D01*
X151342563Y-124775031D01*
X151340782Y-124769132D01*
X151340781Y-124769127D01*
X151288303Y-124595312D01*
X151286522Y-124589413D01*
X151195494Y-124418214D01*
X151191604Y-124413444D01*
X151191601Y-124413440D01*
X151076836Y-124272725D01*
X151076834Y-124272723D01*
X151072947Y-124267957D01*
X150923549Y-124144364D01*
X150918132Y-124141435D01*
X150918129Y-124141433D01*
X150758411Y-124055074D01*
X150758406Y-124055072D01*
X150752991Y-124052144D01*
X150730287Y-124045116D01*
X150573655Y-123996630D01*
X150573652Y-123996629D01*
X150567768Y-123994808D01*
X150561643Y-123994164D01*
X150561642Y-123994164D01*
X150381064Y-123975184D01*
X150381063Y-123975184D01*
X150374936Y-123974540D01*
X150254787Y-123985474D01*
X150187981Y-123991554D01*
X150187980Y-123991554D01*
X150181840Y-123992113D01*
X150175926Y-123993854D01*
X150175924Y-123993854D01*
X150049485Y-124031068D01*
X149995834Y-124046858D01*
X149824005Y-124136688D01*
X149672896Y-124258183D01*
X149668937Y-124262901D01*
X149668936Y-124262902D01*
X149552221Y-124401997D01*
X149548263Y-124406714D01*
X149545300Y-124412103D01*
X149545297Y-124412108D01*
X149538949Y-124423656D01*
X149454854Y-124576625D01*
X149452993Y-124582492D01*
X149452992Y-124582494D01*
X149450797Y-124589413D01*
X149396226Y-124761443D01*
X149374613Y-124954129D01*
X144219700Y-124954129D01*
X144219700Y-110975709D01*
X146969455Y-110975709D01*
X146986123Y-111264792D01*
X146986948Y-111268997D01*
X146986949Y-111269005D01*
X147019141Y-111433085D01*
X147041870Y-111548938D01*
X147043257Y-111552988D01*
X147043258Y-111552993D01*
X147063889Y-111613251D01*
X147135665Y-111822890D01*
X147265771Y-112081577D01*
X147268197Y-112085106D01*
X147268200Y-112085112D01*
X147307332Y-112142049D01*
X147429782Y-112320214D01*
X147624661Y-112534384D01*
X147682265Y-112582548D01*
X147843512Y-112717372D01*
X147843517Y-112717376D01*
X147846804Y-112720124D01*
X147911547Y-112760737D01*
X148088459Y-112871714D01*
X148088463Y-112871716D01*
X148092099Y-112873997D01*
X148163664Y-112906310D01*
X148352096Y-112991391D01*
X148352100Y-112991393D01*
X148356008Y-112993157D01*
X148360128Y-112994377D01*
X148360127Y-112994377D01*
X148629534Y-113074179D01*
X148629538Y-113074180D01*
X148633647Y-113075397D01*
X148637881Y-113076045D01*
X148637886Y-113076046D01*
X148915636Y-113118547D01*
X148915638Y-113118547D01*
X148919878Y-113119196D01*
X149067226Y-113121511D01*
X149205115Y-113123678D01*
X149205121Y-113123678D01*
X149209406Y-113123745D01*
X149496871Y-113088958D01*
X149776957Y-113015479D01*
X149780917Y-113013839D01*
X149780922Y-113013837D01*
X149910718Y-112960073D01*
X150044478Y-112904668D01*
X150294486Y-112758575D01*
X150522353Y-112579904D01*
X150723864Y-112371961D01*
X150726397Y-112368513D01*
X150726401Y-112368508D01*
X150892751Y-112142049D01*
X150895289Y-112138594D01*
X151033456Y-111884121D01*
X151135810Y-111613251D01*
X151200455Y-111330996D01*
X151226195Y-111042579D01*
X151226662Y-110998000D01*
X151206967Y-110709107D01*
X151148248Y-110425561D01*
X151051589Y-110152606D01*
X150918781Y-109895296D01*
X150752281Y-109658390D01*
X150671919Y-109571910D01*
X150558090Y-109449415D01*
X150558087Y-109449412D01*
X150555169Y-109446272D01*
X150551853Y-109443558D01*
X150551850Y-109443555D01*
X150373061Y-109297218D01*
X150331094Y-109262868D01*
X150084201Y-109111572D01*
X150080284Y-109109853D01*
X150080281Y-109109851D01*
X149963467Y-109058573D01*
X149819059Y-108995183D01*
X149814931Y-108994007D01*
X149814928Y-108994006D01*
X149544702Y-108917030D01*
X149544703Y-108917030D01*
X149540574Y-108915854D01*
X149325645Y-108885266D01*
X149258151Y-108875660D01*
X149258149Y-108875660D01*
X149253899Y-108875055D01*
X149249610Y-108875033D01*
X149249603Y-108875032D01*
X148968626Y-108873560D01*
X148968619Y-108873560D01*
X148964340Y-108873538D01*
X148960096Y-108874097D01*
X148960092Y-108874097D01*
X148833475Y-108890767D01*
X148677254Y-108911334D01*
X148673114Y-108912467D01*
X148673112Y-108912467D01*
X148656433Y-108917030D01*
X148397954Y-108987742D01*
X148131608Y-109101348D01*
X147883144Y-109250051D01*
X147879793Y-109252735D01*
X147879791Y-109252737D01*
X147824270Y-109297218D01*
X147657160Y-109431098D01*
X147533643Y-109561258D01*
X147477092Y-109620851D01*
X147457838Y-109641140D01*
X147288866Y-109876289D01*
X147286857Y-109880084D01*
X147286856Y-109880085D01*
X147265864Y-109919731D01*
X147153370Y-110132195D01*
X147053859Y-110404122D01*
X147052946Y-110408308D01*
X147052946Y-110408309D01*
X146993087Y-110682849D01*
X146993086Y-110682857D01*
X146992174Y-110687039D01*
X146969455Y-110975709D01*
X144219700Y-110975709D01*
X144219700Y-109493862D01*
X144220179Y-109482880D01*
X144220945Y-109474127D01*
X144223501Y-109444910D01*
X144220647Y-109434260D01*
X144220647Y-109434256D01*
X144213638Y-109408098D01*
X144211258Y-109397365D01*
X144206556Y-109370699D01*
X144204642Y-109359844D01*
X144199131Y-109350298D01*
X144197891Y-109346892D01*
X144196354Y-109343595D01*
X144193499Y-109332942D01*
X144171633Y-109301714D01*
X144165736Y-109292457D01*
X144152193Y-109269000D01*
X144146683Y-109259456D01*
X144138244Y-109252374D01*
X144138239Y-109252369D01*
X144117485Y-109234955D01*
X144109381Y-109227529D01*
X141493605Y-106611753D01*
X141459579Y-106549441D01*
X141456700Y-106522658D01*
X141456700Y-104887918D01*
X142501542Y-104887918D01*
X142518013Y-105084064D01*
X142519712Y-105089989D01*
X142531557Y-105131296D01*
X142572268Y-105273274D01*
X142575087Y-105278759D01*
X142659424Y-105442861D01*
X142659427Y-105442866D01*
X142662242Y-105448343D01*
X142784506Y-105602602D01*
X142934403Y-105730175D01*
X143106226Y-105826203D01*
X143112085Y-105828107D01*
X143112088Y-105828108D01*
X143172201Y-105847640D01*
X143293427Y-105887029D01*
X143299537Y-105887758D01*
X143299539Y-105887758D01*
X143366203Y-105895707D01*
X143488878Y-105910335D01*
X143495013Y-105909863D01*
X143495015Y-105909863D01*
X143678992Y-105895707D01*
X143678996Y-105895706D01*
X143685134Y-105895234D01*
X143874719Y-105842301D01*
X144050411Y-105753552D01*
X144080333Y-105730175D01*
X144200659Y-105636166D01*
X144200660Y-105636165D01*
X144205520Y-105632368D01*
X144334136Y-105483364D01*
X144337180Y-105478006D01*
X144428316Y-105317580D01*
X144428318Y-105317575D01*
X144431362Y-105312217D01*
X144493493Y-105125444D01*
X144499496Y-105077922D01*
X144517721Y-104933664D01*
X144517722Y-104933655D01*
X144518163Y-104930161D01*
X144518556Y-104902000D01*
X144499348Y-104706104D01*
X144497031Y-104698428D01*
X144444237Y-104523569D01*
X144442456Y-104517669D01*
X144350048Y-104343874D01*
X144280182Y-104258210D01*
X144229537Y-104196112D01*
X144229534Y-104196109D01*
X144225642Y-104191337D01*
X144220893Y-104187408D01*
X144078727Y-104069798D01*
X144078723Y-104069796D01*
X144073977Y-104065869D01*
X143900831Y-103972249D01*
X143806814Y-103943146D01*
X143718685Y-103915866D01*
X143718682Y-103915865D01*
X143712798Y-103914044D01*
X143706673Y-103913400D01*
X143706672Y-103913400D01*
X143523169Y-103894113D01*
X143523168Y-103894113D01*
X143517041Y-103893469D01*
X143444275Y-103900091D01*
X143327153Y-103910749D01*
X143327149Y-103910750D01*
X143321015Y-103911308D01*
X143132188Y-103966883D01*
X142957752Y-104058076D01*
X142804350Y-104181414D01*
X142677827Y-104332199D01*
X142583001Y-104504688D01*
X142523483Y-104692309D01*
X142501542Y-104887918D01*
X141456700Y-104887918D01*
X141456700Y-95955700D01*
X141476702Y-95887579D01*
X141530358Y-95841086D01*
X141582700Y-95829700D01*
X141898064Y-95829700D01*
X141957480Y-95817881D01*
X142024860Y-95772860D01*
X142069881Y-95705480D01*
X142081700Y-95646064D01*
X143334300Y-95646064D01*
X143346119Y-95705480D01*
X143391140Y-95772860D01*
X143458520Y-95817881D01*
X143517936Y-95829700D01*
X145058064Y-95829700D01*
X145117480Y-95817881D01*
X145184860Y-95772860D01*
X145229881Y-95705480D01*
X145236806Y-95670669D01*
X146030001Y-95670669D01*
X146030371Y-95677490D01*
X146035895Y-95728352D01*
X146039521Y-95743604D01*
X146084676Y-95864054D01*
X146093214Y-95879649D01*
X146169715Y-95981724D01*
X146182276Y-95994285D01*
X146284351Y-96070786D01*
X146299946Y-96079324D01*
X146420394Y-96124478D01*
X146435649Y-96128105D01*
X146486514Y-96133631D01*
X146493328Y-96134000D01*
X147015885Y-96134000D01*
X147031124Y-96129525D01*
X147032329Y-96128135D01*
X147034000Y-96120452D01*
X147034000Y-96115884D01*
X147542000Y-96115884D01*
X147546475Y-96131123D01*
X147547865Y-96132328D01*
X147555548Y-96133999D01*
X148082669Y-96133999D01*
X148089490Y-96133629D01*
X148140352Y-96128105D01*
X148155604Y-96124479D01*
X148276054Y-96079324D01*
X148291649Y-96070786D01*
X148393724Y-95994285D01*
X148406285Y-95981724D01*
X148482786Y-95879649D01*
X148491324Y-95864054D01*
X148536478Y-95743606D01*
X148540105Y-95728351D01*
X148545631Y-95677486D01*
X148546000Y-95670672D01*
X148546000Y-93998115D01*
X148541525Y-93982876D01*
X148540135Y-93981671D01*
X148532452Y-93980000D01*
X147560115Y-93980000D01*
X147544876Y-93984475D01*
X147543671Y-93985865D01*
X147542000Y-93993548D01*
X147542000Y-96115884D01*
X147034000Y-96115884D01*
X147034000Y-93998115D01*
X147029525Y-93982876D01*
X147028135Y-93981671D01*
X147020452Y-93980000D01*
X146048116Y-93980000D01*
X146032877Y-93984475D01*
X146031672Y-93985865D01*
X146030001Y-93993548D01*
X146030001Y-95670669D01*
X145236806Y-95670669D01*
X145241700Y-95646064D01*
X145241700Y-93453885D01*
X146030000Y-93453885D01*
X146034475Y-93469124D01*
X146035865Y-93470329D01*
X146043548Y-93472000D01*
X147015885Y-93472000D01*
X147031124Y-93467525D01*
X147032329Y-93466135D01*
X147034000Y-93458452D01*
X147034000Y-93453885D01*
X147542000Y-93453885D01*
X147546475Y-93469124D01*
X147547865Y-93470329D01*
X147555548Y-93472000D01*
X148527884Y-93472000D01*
X148543123Y-93467525D01*
X148544328Y-93466135D01*
X148545999Y-93458452D01*
X148545999Y-91781331D01*
X148545629Y-91774510D01*
X148540105Y-91723648D01*
X148536479Y-91708396D01*
X148491324Y-91587946D01*
X148482786Y-91572351D01*
X148406285Y-91470276D01*
X148393724Y-91457715D01*
X148291649Y-91381214D01*
X148276054Y-91372676D01*
X148155606Y-91327522D01*
X148140351Y-91323895D01*
X148089486Y-91318369D01*
X148082672Y-91318000D01*
X147560115Y-91318000D01*
X147544876Y-91322475D01*
X147543671Y-91323865D01*
X147542000Y-91331548D01*
X147542000Y-93453885D01*
X147034000Y-93453885D01*
X147034000Y-91336116D01*
X147029525Y-91320877D01*
X147028135Y-91319672D01*
X147020452Y-91318001D01*
X146493331Y-91318001D01*
X146486510Y-91318371D01*
X146435648Y-91323895D01*
X146420396Y-91327521D01*
X146299946Y-91372676D01*
X146284351Y-91381214D01*
X146182276Y-91457715D01*
X146169715Y-91470276D01*
X146093214Y-91572351D01*
X146084676Y-91587946D01*
X146039522Y-91708394D01*
X146035895Y-91723649D01*
X146030369Y-91774514D01*
X146030000Y-91781328D01*
X146030000Y-93453885D01*
X145241700Y-93453885D01*
X145241700Y-91805936D01*
X145229881Y-91746520D01*
X145184860Y-91679140D01*
X145117480Y-91634119D01*
X145058064Y-91622300D01*
X143517936Y-91622300D01*
X143458520Y-91634119D01*
X143391140Y-91679140D01*
X143346119Y-91746520D01*
X143334300Y-91805936D01*
X143334300Y-95646064D01*
X142081700Y-95646064D01*
X142081700Y-91805936D01*
X142069881Y-91746520D01*
X142024860Y-91679140D01*
X141957480Y-91634119D01*
X141898064Y-91622300D01*
X140357936Y-91622300D01*
X140298520Y-91634119D01*
X140231140Y-91679140D01*
X140186119Y-91746520D01*
X140174300Y-91805936D01*
X140174300Y-95646064D01*
X139386000Y-95646064D01*
X139386000Y-93998115D01*
X139381525Y-93982876D01*
X139380135Y-93981671D01*
X139372452Y-93980000D01*
X138400115Y-93980000D01*
X138384876Y-93984475D01*
X138383671Y-93985865D01*
X138382000Y-93993548D01*
X138382000Y-96115884D01*
X137874000Y-96115884D01*
X137874000Y-93998115D01*
X137869525Y-93982876D01*
X137868135Y-93981671D01*
X137860452Y-93980000D01*
X136888116Y-93980000D01*
X136872877Y-93984475D01*
X136871672Y-93985865D01*
X136870001Y-93993548D01*
X136870001Y-95670669D01*
X136076806Y-95670669D01*
X136081700Y-95646064D01*
X136081700Y-93453885D01*
X136870000Y-93453885D01*
X136874475Y-93469124D01*
X136875865Y-93470329D01*
X136883548Y-93472000D01*
X137855885Y-93472000D01*
X137871124Y-93467525D01*
X137872329Y-93466135D01*
X137874000Y-93458452D01*
X137874000Y-93453885D01*
X138382000Y-93453885D01*
X138386475Y-93469124D01*
X138387865Y-93470329D01*
X138395548Y-93472000D01*
X139367884Y-93472000D01*
X139383123Y-93467525D01*
X139384328Y-93466135D01*
X139385999Y-93458452D01*
X139385999Y-91781331D01*
X139385629Y-91774510D01*
X139380105Y-91723648D01*
X139376479Y-91708396D01*
X139331324Y-91587946D01*
X139322786Y-91572351D01*
X139246285Y-91470276D01*
X139233724Y-91457715D01*
X139131649Y-91381214D01*
X139116054Y-91372676D01*
X138995606Y-91327522D01*
X138980351Y-91323895D01*
X138929486Y-91318369D01*
X138922672Y-91318000D01*
X138400115Y-91318000D01*
X138384876Y-91322475D01*
X138383671Y-91323865D01*
X138382000Y-91331548D01*
X138382000Y-93453885D01*
X137874000Y-93453885D01*
X137874000Y-91336116D01*
X137869525Y-91320877D01*
X137868135Y-91319672D01*
X137860452Y-91318001D01*
X137333331Y-91318001D01*
X137326510Y-91318371D01*
X137275648Y-91323895D01*
X137260396Y-91327521D01*
X137139946Y-91372676D01*
X137124351Y-91381214D01*
X137022276Y-91457715D01*
X137009715Y-91470276D01*
X136933214Y-91572351D01*
X136924676Y-91587946D01*
X136879522Y-91708394D01*
X136875895Y-91723649D01*
X136870369Y-91774514D01*
X136870000Y-91781328D01*
X136870000Y-93453885D01*
X136081700Y-93453885D01*
X136081700Y-91805936D01*
X136069881Y-91746520D01*
X136024860Y-91679140D01*
X135957480Y-91634119D01*
X135898064Y-91622300D01*
X134357936Y-91622300D01*
X134298520Y-91634119D01*
X134288204Y-91641012D01*
X134288201Y-91641013D01*
X134287057Y-91641778D01*
X134284182Y-91642678D01*
X134276737Y-91645762D01*
X134276461Y-91645096D01*
X134219304Y-91662993D01*
X134150837Y-91644210D01*
X134127960Y-91626108D01*
X133088471Y-90586619D01*
X133081044Y-90578515D01*
X133063630Y-90557762D01*
X133063631Y-90557762D01*
X133056544Y-90549317D01*
X133023539Y-90530262D01*
X133014286Y-90524367D01*
X132983058Y-90502501D01*
X132972405Y-90499646D01*
X132969108Y-90498109D01*
X132965702Y-90496869D01*
X132956156Y-90491358D01*
X132918636Y-90484742D01*
X132907902Y-90482362D01*
X132881744Y-90475353D01*
X132881740Y-90475353D01*
X132871090Y-90472499D01*
X132838458Y-90475354D01*
X132833120Y-90475821D01*
X132822138Y-90476300D01*
X130575851Y-90476300D01*
X130564869Y-90475821D01*
X130559531Y-90475354D01*
X130526910Y-90472500D01*
X130516259Y-90475354D01*
X130516258Y-90475354D01*
X130490107Y-90482361D01*
X130479377Y-90484740D01*
X130441844Y-90491358D01*
X130432296Y-90496870D01*
X130428879Y-90498114D01*
X130425589Y-90499648D01*
X130414942Y-90502501D01*
X130405915Y-90508821D01*
X130405914Y-90508822D01*
X130383725Y-90524359D01*
X130374456Y-90530264D01*
X130341456Y-90549317D01*
X130334371Y-90557760D01*
X130334368Y-90557763D01*
X130316955Y-90578515D01*
X130309529Y-90586619D01*
X128813619Y-92082529D01*
X128805515Y-92089956D01*
X128776317Y-92114456D01*
X128757264Y-92147457D01*
X128751367Y-92156714D01*
X128729501Y-92187942D01*
X128726646Y-92198595D01*
X128725109Y-92201892D01*
X128723869Y-92205298D01*
X128718358Y-92214844D01*
X128716444Y-92225699D01*
X128711742Y-92252365D01*
X128709362Y-92263098D01*
X128702353Y-92289256D01*
X128702353Y-92289260D01*
X128699499Y-92299910D01*
X128700460Y-92310892D01*
X128702821Y-92337880D01*
X128703300Y-92348862D01*
X128703300Y-101326138D01*
X128702821Y-101337120D01*
X128699499Y-101375090D01*
X122453500Y-101375090D01*
X122453500Y-97593593D01*
X122473502Y-97525472D01*
X122485318Y-97509892D01*
X126075333Y-93470329D01*
X129173862Y-89983797D01*
X129234064Y-89946166D01*
X129268043Y-89941498D01*
X139862223Y-89941499D01*
G37*
%TD.AperFunction*%
%TD*%
M02*
