%TF.GenerationSoftware,KiCad,Pcbnew,(6.0.7-1)-1*%
%TF.CreationDate,2022-08-05T12:56:02-05:00*%
%TF.ProjectId,Adafruit NeoPixel 8 Stick,41646166-7275-4697-9420-4e656f506978,rev?*%
%TF.SameCoordinates,Original*%
%TF.FileFunction,Legend,Top*%
%TF.FilePolarity,Positive*%
%FSLAX46Y46*%
G04 Gerber Fmt 4.6, Leading zero omitted, Abs format (unit mm)*
G04 Created by KiCad (PCBNEW (6.0.7-1)-1) date 2022-08-05 12:56:02*
%MOMM*%
%LPD*%
G01*
G04 APERTURE LIST*
%ADD10C,0.150000*%
%ADD11C,0.040640*%
%ADD12C,0.250000*%
%ADD13C,0.120000*%
G04 APERTURE END LIST*
D10*
%TO.C,MD1*%
X129113595Y-108110380D02*
X129113595Y-107110380D01*
X129446928Y-107824666D01*
X129780261Y-107110380D01*
X129780261Y-108110380D01*
X130256452Y-108110380D02*
X130256452Y-107110380D01*
X130494547Y-107110380D01*
X130637404Y-107158000D01*
X130732642Y-107253238D01*
X130780261Y-107348476D01*
X130827880Y-107538952D01*
X130827880Y-107681809D01*
X130780261Y-107872285D01*
X130732642Y-107967523D01*
X130637404Y-108062761D01*
X130494547Y-108110380D01*
X130256452Y-108110380D01*
X131780261Y-108110380D02*
X131208833Y-108110380D01*
X131494547Y-108110380D02*
X131494547Y-107110380D01*
X131399309Y-107253238D01*
X131304071Y-107348476D01*
X131208833Y-107396095D01*
X133374190Y-134432523D02*
X133374190Y-133162523D01*
X133858000Y-133162523D01*
X133978952Y-133223000D01*
X134039428Y-133283476D01*
X134099904Y-133404428D01*
X134099904Y-133585857D01*
X134039428Y-133706809D01*
X133978952Y-133767285D01*
X133858000Y-133827761D01*
X133374190Y-133827761D01*
X135188476Y-134432523D02*
X135188476Y-133767285D01*
X135128000Y-133646333D01*
X135007047Y-133585857D01*
X134765142Y-133585857D01*
X134644190Y-133646333D01*
X135188476Y-134372047D02*
X135067523Y-134432523D01*
X134765142Y-134432523D01*
X134644190Y-134372047D01*
X134583714Y-134251095D01*
X134583714Y-134130142D01*
X134644190Y-134009190D01*
X134765142Y-133948714D01*
X135067523Y-133948714D01*
X135188476Y-133888238D01*
X135793238Y-134432523D02*
X135793238Y-133585857D01*
X135793238Y-133827761D02*
X135853714Y-133706809D01*
X135914190Y-133646333D01*
X136035142Y-133585857D01*
X136156095Y-133585857D01*
X136398000Y-133585857D02*
X136881809Y-133585857D01*
X136579428Y-133162523D02*
X136579428Y-134251095D01*
X136639904Y-134372047D01*
X136760857Y-134432523D01*
X136881809Y-134432523D01*
X137305142Y-134432523D02*
X137305142Y-133585857D01*
X137305142Y-133162523D02*
X137244666Y-133223000D01*
X137305142Y-133283476D01*
X137365619Y-133223000D01*
X137305142Y-133162523D01*
X137305142Y-133283476D01*
X138454190Y-134372047D02*
X138333238Y-134432523D01*
X138091333Y-134432523D01*
X137970380Y-134372047D01*
X137909904Y-134311571D01*
X137849428Y-134190619D01*
X137849428Y-133827761D01*
X137909904Y-133706809D01*
X137970380Y-133646333D01*
X138091333Y-133585857D01*
X138333238Y-133585857D01*
X138454190Y-133646333D01*
X139179904Y-134432523D02*
X139058952Y-134372047D01*
X138998476Y-134251095D01*
X138998476Y-133162523D01*
X140147523Y-134372047D02*
X140026571Y-134432523D01*
X139784666Y-134432523D01*
X139663714Y-134372047D01*
X139603238Y-134251095D01*
X139603238Y-133767285D01*
X139663714Y-133646333D01*
X139784666Y-133585857D01*
X140026571Y-133585857D01*
X140147523Y-133646333D01*
X140208000Y-133767285D01*
X140208000Y-133888238D01*
X139603238Y-134009190D01*
X140752285Y-133948714D02*
X141719904Y-133948714D01*
X142264190Y-134069666D02*
X142868952Y-134069666D01*
X142143238Y-134432523D02*
X142566571Y-133162523D01*
X142989904Y-134432523D01*
X143413238Y-134432523D02*
X143413238Y-133585857D01*
X143413238Y-133827761D02*
X143473714Y-133706809D01*
X143534190Y-133646333D01*
X143655142Y-133585857D01*
X143776095Y-133585857D01*
X144743714Y-133585857D02*
X144743714Y-134613952D01*
X144683238Y-134734904D01*
X144622761Y-134795380D01*
X144501809Y-134855857D01*
X144320380Y-134855857D01*
X144199428Y-134795380D01*
X144743714Y-134372047D02*
X144622761Y-134432523D01*
X144380857Y-134432523D01*
X144259904Y-134372047D01*
X144199428Y-134311571D01*
X144138952Y-134190619D01*
X144138952Y-133827761D01*
X144199428Y-133706809D01*
X144259904Y-133646333D01*
X144380857Y-133585857D01*
X144622761Y-133585857D01*
X144743714Y-133646333D01*
X145529904Y-134432523D02*
X145408952Y-134372047D01*
X145348476Y-134311571D01*
X145288000Y-134190619D01*
X145288000Y-133827761D01*
X145348476Y-133706809D01*
X145408952Y-133646333D01*
X145529904Y-133585857D01*
X145711333Y-133585857D01*
X145832285Y-133646333D01*
X145892761Y-133706809D01*
X145953238Y-133827761D01*
X145953238Y-134190619D01*
X145892761Y-134311571D01*
X145832285Y-134372047D01*
X145711333Y-134432523D01*
X145529904Y-134432523D01*
X146497523Y-133585857D02*
X146497523Y-134432523D01*
X146497523Y-133706809D02*
X146558000Y-133646333D01*
X146678952Y-133585857D01*
X146860380Y-133585857D01*
X146981333Y-133646333D01*
X147041809Y-133767285D01*
X147041809Y-134432523D01*
D11*
%TO.C,U2*%
X134510250Y-102504822D02*
X134632170Y-102870582D01*
X134754090Y-102504822D01*
X135050181Y-102870582D02*
X134876010Y-102870582D01*
X134876010Y-102504822D01*
X135328856Y-102504822D02*
X135259187Y-102504822D01*
X135224353Y-102522240D01*
X135206936Y-102539657D01*
X135172101Y-102591908D01*
X135154684Y-102661577D01*
X135154684Y-102800914D01*
X135172101Y-102835748D01*
X135189518Y-102853165D01*
X135224353Y-102870582D01*
X135294021Y-102870582D01*
X135328856Y-102853165D01*
X135346273Y-102835748D01*
X135363690Y-102800914D01*
X135363690Y-102713828D01*
X135346273Y-102678994D01*
X135328856Y-102661577D01*
X135294021Y-102644160D01*
X135224353Y-102644160D01*
X135189518Y-102661577D01*
X135172101Y-102678994D01*
X135154684Y-102713828D01*
X135712033Y-102870582D02*
X135503027Y-102870582D01*
X135607530Y-102870582D02*
X135607530Y-102504822D01*
X135572696Y-102557074D01*
X135537861Y-102591908D01*
X135503027Y-102609325D01*
X135921038Y-102661577D02*
X135886204Y-102644160D01*
X135868787Y-102626742D01*
X135851370Y-102591908D01*
X135851370Y-102574491D01*
X135868787Y-102539657D01*
X135886204Y-102522240D01*
X135921038Y-102504822D01*
X135990707Y-102504822D01*
X136025541Y-102522240D01*
X136042958Y-102539657D01*
X136060376Y-102574491D01*
X136060376Y-102591908D01*
X136042958Y-102626742D01*
X136025541Y-102644160D01*
X135990707Y-102661577D01*
X135921038Y-102661577D01*
X135886204Y-102678994D01*
X135868787Y-102696411D01*
X135851370Y-102731245D01*
X135851370Y-102800914D01*
X135868787Y-102835748D01*
X135886204Y-102853165D01*
X135921038Y-102870582D01*
X135990707Y-102870582D01*
X136025541Y-102853165D01*
X136042958Y-102835748D01*
X136060376Y-102800914D01*
X136060376Y-102731245D01*
X136042958Y-102696411D01*
X136025541Y-102678994D01*
X135990707Y-102661577D01*
X136286798Y-102504822D02*
X136321633Y-102504822D01*
X136356467Y-102522240D01*
X136373884Y-102539657D01*
X136391301Y-102574491D01*
X136408718Y-102644160D01*
X136408718Y-102731245D01*
X136391301Y-102800914D01*
X136373884Y-102835748D01*
X136356467Y-102853165D01*
X136321633Y-102870582D01*
X136286798Y-102870582D01*
X136251964Y-102853165D01*
X136234547Y-102835748D01*
X136217130Y-102800914D01*
X136199713Y-102731245D01*
X136199713Y-102644160D01*
X136217130Y-102574491D01*
X136234547Y-102539657D01*
X136251964Y-102522240D01*
X136286798Y-102504822D01*
D10*
%TO.C,U1*%
X145108380Y-100329904D02*
X145917904Y-100329904D01*
X146013142Y-100282285D01*
X146060761Y-100234666D01*
X146108380Y-100139428D01*
X146108380Y-99948952D01*
X146060761Y-99853714D01*
X146013142Y-99806095D01*
X145917904Y-99758476D01*
X145108380Y-99758476D01*
X146108380Y-98758476D02*
X146108380Y-99329904D01*
X146108380Y-99044190D02*
X145108380Y-99044190D01*
X145251238Y-99139428D01*
X145346476Y-99234666D01*
X145394095Y-99329904D01*
%TO.C,MD1*%
X128778000Y-108458000D02*
X151638000Y-108458000D01*
X128778000Y-159258000D02*
X151638000Y-159258000D01*
X128778000Y-159258000D02*
X128778000Y-108458000D01*
X151638000Y-159258000D02*
X151638000Y-108458000D01*
D12*
X152363000Y-152868000D02*
G75*
G03*
X152363000Y-152868000I-125000J0D01*
G01*
D13*
%TO.C,R1*%
X142970000Y-106272000D02*
X136430000Y-106272000D01*
X142970000Y-105942000D02*
X142970000Y-106272000D01*
X142970000Y-103862000D02*
X142970000Y-103532000D01*
X136430000Y-103532000D02*
X136430000Y-103862000D01*
X136430000Y-106272000D02*
X136430000Y-105942000D01*
X142970000Y-103532000D02*
X136430000Y-103532000D01*
%TO.C,U1*%
X141696000Y-99568000D02*
X141696000Y-100368000D01*
X144816000Y-99568000D02*
X144816000Y-97768000D01*
X144816000Y-99568000D02*
X144816000Y-100368000D01*
X141696000Y-99568000D02*
X141696000Y-98768000D01*
%TD*%
M02*
